<?xml version="1.0" encoding="utf-8" ?>
<svg baseProfile="full" height="200mm" version="1.1" viewBox="0,0,200,200" width="200mm" xmlns="http://www.w3.org/2000/svg" xmlns:ev="http://www.w3.org/2001/xml-events" xmlns:xlink="http://www.w3.org/1999/xlink"><defs /><rect fill="#2b2b2b" height="200" width="200" x="0" y="0" /><text alignment-baseline="middle" fill="#e1ed5e" style="dominant-baseline: central; font-size:9.0px; font-family:Arial;" text-anchor="middle" x="100.0" y="100.0">2020</text><line stroke="#e1ed5e" stroke-width="0.3" x1="100.0" x2="100.0" y1="15.0" y2="10.0" /><path d="M 100.0 14.0 a86.0,86.0 0 0,1 42.35913384403234,11.155469271406648" fill="none" id="id61" stroke="none" /><text fill="#e1ed5e" style="font-size:6.75px; font-family:Arial;" text-anchor="middle"><textPath startOffset="22.145653131862478" xlink:href="#id61">January</textPath></text><line stroke="#e1ed5e" stroke-width="0.3" x1="143.13028292997686" x2="145.6673583964461" y1="26.7553504044142" y2="22.446841604673864" /><path d="M 143.63769802327073 25.89364864446614 a86.0,86.0 0 0,1 29.32050498858742,28.57503671076993" fill="none" id="id62" stroke="none" /><text fill="#e1ed5e" style="font-size:6.75px; font-family:Arial;" text-anchor="middle"><textPath startOffset="20.669276256404974" xlink:href="#id62">February</textPath></text><line stroke="#e1ed5e" stroke-width="0.3" x1="172.87174338648825" x2="177.1583165268699" y1="56.24261187166439" y2="53.66864786411523" /><path d="M 173.72905801456457 55.72781907015455 a86.0,86.0 0 0,1 12.242430191666344,42.057860355516425" fill="none" id="id63" stroke="none" /><text fill="#e1ed5e" style="font-size:6.75px; font-family:Arial;" text-anchor="middle"><textPath startOffset="22.145653131862474" xlink:href="#id63">March</textPath></text><line stroke="#e1ed5e" stroke-width="0.3" x1="184.99686870605535" x2="189.99668451229388" y1="99.2704041080226" y2="99.22748670261217" /><path d="M 185.99683186730306 99.26182062694052 a86.0,86.0 0 0,1 -10.086455211305974,41.156179273409016" fill="none" id="id64" stroke="none" /><text fill="#e1ed5e" style="font-size:6.75px; font-family:Arial;" text-anchor="middle"><textPath startOffset="21.40746469413373" xlink:href="#id64">April</textPath></text><line stroke="#e1ed5e" stroke-width="0.3" x1="174.33088141563837" x2="178.70328620479359" y1="141.23008692659167" y2="143.65538615756765" /><path d="M 175.20536237346943 141.71514677278685 a86.0,86.0 0 0,1 -30.301960400862466,31.631185727798858" fill="none" id="id65" stroke="none" /><text fill="#e1ed5e" style="font-size:6.75px; font-family:Arial;" text-anchor="middle"><textPath startOffset="22.145653131862474" xlink:href="#id65">May</textPath></text><path d="M 117.62189284568427 111.42229804090321 l 43.27988037154435 28.053495564154893 a72.57660960496771,72.57660960496771 0 0,0 -0.6866285064046828,1.0396430729097552 l -42.79192742621894 -28.79231851540371" fill="#34ff5e" stroke="none" /><path d="M 114.91283532996324 114.78537596483092 l 36.15685829741517 35.84782717745715 a71.9154702942455,71.9154702942455 0 0,0 -0.8767114982371591,0.8692182825945891 l -35.53615487904804 -36.4632254702804" fill="#33ff50" stroke="none" /><path d="M 113.31354834802062 116.24036423190432 l 31.98231430924313 39.013223205711036 a71.44700202662045,71.44700202662045 0 0,0 -0.9551757514000192,0.7694219719841128 l -31.307887787487857 -39.55649347148855" fill="#32ff47" stroke="none" /><path d="M 112.45986205192187 116.90419585922612 l 30.015926943705125 40.72236962481864 a71.5892010032793,71.5892010032793 0 0,0 -0.995495530719645,0.7206619938148087 l -29.31245040261151 -41.231632390006524" fill="#32ff4a" stroke="none" /><path d="M 110.96478420261333 117.91015095944535 l 26.642292290185864 43.51818221002185 a72.02591421366559,72.02591421366559 0 0,0 -1.0600405124975318,0.6365238703169985 l -25.891319021130897 -43.969120080874774" fill="#33ff53" stroke="none" /><line stroke="#e1ed5e" stroke-width="0.3" x1="143.1302829299769" x2="145.66735839644613" y1="173.24464959558577" y2="177.55315839532614" /><path d="M 143.63769802327073 174.10635135553383 a86.0,86.0 0 0,1 -40.68552437913181,11.842963189579606" fill="none" id="id66" stroke="none" /><text fill="#e1ed5e" style="font-size:6.75px; font-family:Arial;" text-anchor="middle"><textPath startOffset="21.407464694133747" xlink:href="#id66">June</textPath></text><path d="M 110.65571695917076 118.09573695890943 l 25.69175724287455 43.63022055302357 a71.6326232357388,71.6326232357388 0 0,0 -1.064964024815042,0.6148572664042342 l -24.93900075019911 -44.064824716703974" fill="#32ff4b" stroke="none" /><path d="M 110.02825361518725 118.45085714620011 l 24.098648825218802 44.338799551017594 a71.46458184535504,71.46458184535504 0 0,0 -1.0828966294442468,0.5765814607838442 l -23.333963379988 -44.74595147952401" fill="#32ff47" stroke="none" /><path d="M 109.06512990194946 118.94263497670748 l 18.451092386225504 38.55568665580993 a63.74323085292019,63.74323085292019 0 0,0 -0.9910897279891646,0.4638800357529855 l -17.786513944364835 -38.866742923133444" fill="#a7ff21" stroke="none" /><path d="M 108.4095320186766 119.2426549942271 l 20.05572540462732 45.8914246075886 a71.08248170787668,71.08248170787668 0 0,0 -1.1223075097224444,0.47904633937077434 l -19.264982819734445 -46.22894559661878" fill="#31ff3f" stroke="none" /><path d="M 107.06938296918513 119.77432235084164 l 19.005503575799693 53.1617760398765 a77.45691806930061,77.45691806930061 0 0,0 -1.2558873103704054,0.4368627992635349 l -18.090110493384266 -53.480197271708626" fill="#3fffbc" stroke="none" /><path d="M 106.38641147887787 120.00534299687104 l 15.393827480078794 48.22094532933931 a71.61846987949714,71.61846987949714 0 0,0 -1.1744043315431558,0.36383346394342 l -14.563782515664014 -48.47809538108937" fill="#32ff4a" stroke="none" /><path d="M 105.3480935250658 120.30758222061773 l 12.895578713874134 48.96661282886308 a71.6362036718542,71.6362036718542 0 0,0 -1.1918719226844388,0.30296918196748146 l -12.053101497964297 -49.18076724266582" fill="#32ff4b" stroke="none" /><path d="M 101.44090949804482 120.95050786540614 l 3.502404951517669 50.92419932284052 a72.04449938158672,72.04449938158672 0 0,0 -1.234553333345386,0.07426766286769387 l -2.627707266039818 -50.976818963532914" fill="#33ff53" stroke="none" /><line stroke="#e1ed5e" stroke-width="0.3" x1="101.45913802915013" x2="101.54496967792366" y1="184.9874750549273" y2="189.98673829345242" /><path d="M 101.47630435890484 185.9873277026323 a86.0,86.0 0 0,1 -42.54439059252881,-10.42667462771756" fill="none" id="id67" stroke="none" /><text fill="#e1ed5e" style="font-size:6.75px; font-family:Arial;" text-anchor="middle"><textPath startOffset="22.145653131862474" xlink:href="#id67">July</textPath></text><path d="M 99.63950707515114 120.99690560180557 l -1.0351902865953193 60.2946444418057 a81.30353030539118,81.30353030539118 0 0,0 -1.3952718971956555,-0.0359372547016012 l 2.0700754978617186 -60.26798946975405" fill="#47feff" stroke="none" /><path d="M 98.19965949673042 120.92268563240118 l -4.36448502733579 50.72193177258912 a71.90936153888619,71.90936153888619 0 0,0 -1.2289667263338593,-0.11638442673570493 l 5.234551317054664 -50.63953559034824" fill="#33ff50" stroke="none" /><path d="M 97.48249496171623 120.84855314841334 l -7.552515114851309 62.54565944524002 a84.0,84.0 0 0,0 -1.4300887124368238,-0.1851536151984119 l 8.625081649178927 -62.40679423384121" fill="#4dd2ff" stroke="none" /><path d="M 96.76829788921471 120.74984581791261 l -8.62169410778335 55.35746095800844 a77.0248346093553,77.0248346093553 0 0,0 -1.3047364997221274,-0.21469389451880466 l 9.57070811055854 -55.20130106499396" fill="#3effb4" stroke="none" /><path d="M 96.05791012581884 120.62667999033965 l -10.22796214859226 53.51701988685397 a75.4856185362978,75.4856185362978 0 0,0 -1.270687211640511,-0.25417302999898594 l 11.145145845763729 -53.333557460192125" fill="#3bff97" stroke="none" /><path d="M 94.6519064749342 120.30758222061772 l -13.55183974012845 51.45854283838591 a74.21309981002914,74.21309981002914 0 0,0 -1.2291760194389514,-0.3350173900010502 l 14.433197160502097 -51.218324954240714" fill="#38ff7f" stroke="none" /><path d="M 92.25597844496254 119.51999308798841 l -19.33343458494296 48.73288468827577 a73.4278145919802,73.4278145919802 0 0,0 -1.1676614813108206,-0.47487775919637987 l 20.16715052744422 -48.3938196725001" fill="#36ff6f" stroke="none" /><path d="M 91.59046798132341 119.24265499422711 l -20.35097621271108 46.56701623671909 a71.8197720774227,71.8197720774227 0 0,0 -1.1254725905068053,-0.5034095743002741 l 21.14736220607352 -46.210802911508964" fill="#33ff4e" stroke="none" /><line stroke="#e1ed5e" stroke-width="0.3" x1="58.13341422392154" x2="55.67067388415222" y1="173.97424548756322" y2="178.32567169271397" /><path d="M 57.64086615596768 174.84453072859336 a86.0,86.0 0 0,1 -31.369924170532247,-30.572349798747897" fill="none" id="id68" stroke="none" /><text fill="#e1ed5e" style="font-size:6.75px; font-family:Arial;" text-anchor="middle"><textPath startOffset="22.145653131862474" xlink:href="#id68">August</textPath></text><path d="M 86.96720088162412 116.46651593811092 l -31.493241163301306 39.790681406811764 a71.74566548768723,71.74566548768723 0 0,0 -0.9591685864770128,-0.7726383172841755 l 32.171660520133585 -39.24419479573418" fill="#32ff4d" stroke="none" /><path d="M 83.64595745247003 113.17365903436017 l -38.637977334140324 31.12401950147663 a70.61449266496473,70.61449266496473 0 0,0 -0.7523253567794201,-0.9505385117604098 l 39.1665691215613 -30.45616104580154" fill="#30ff35" stroke="none" /><line stroke="#e1ed5e" stroke-width="0.3" x1="26.387840678322732" x2="22.057713659400548" y1="142.50000000000003" y2="145.00000000000006" /><path d="M 25.521815274538298 143.00000000000003 a86.0,86.0 0 0,1 -11.493303480769221,-40.785679425670985" fill="none" id="id69" stroke="none" /><text fill="#e1ed5e" style="font-size:6.75px; font-family:Arial;" text-anchor="middle"><textPath startOffset="21.40746469413373" xlink:href="#id69">September</textPath></text><path d="M 81.29705330413844 109.54985784667822 l -47.03443139369304 24.016115803211772 a73.81109310363965,73.81109310363965 0 0,0 -0.5665180186848191,-1.1334155327454811 l 47.439769325589594 -23.205168414302538" fill="#37ff77" stroke="none" /><path d="M 80.16572619554312 106.89939002012753 l -50.31879373366811 17.503488493383326 a74.27619648820136,74.27619648820136 0 0,0 -0.4085706440258377,-1.2078665108166153 l 50.61184979926632 -16.63712030809255" fill="#38ff80" stroke="none" /><line stroke="#e1ed5e" stroke-width="0.3" x1="15.003131293944662" x2="10.003315487706104" y1="100.72959589197737" y2="100.7725132973878" /><path d="M 14.003168132696942 100.73817937305945 a86.0,86.0 0 0,1 10.791469493833604,-42.45332614584628" fill="none" id="id70" stroke="none" /><text fill="#e1ed5e" style="font-size:6.75px; font-family:Arial;" text-anchor="middle"><textPath startOffset="22.145653131862435" xlink:href="#id70">October</textPath></text><path d="M 79.17382384314186 97.30363454192245 l -51.463151037953786 -6.662935230040845 a72.89268369081486,72.89268369081486 0 0,0 0.1713168401499277,-1.2395633139363944 l 51.34118968124865 7.545386852177306" fill="#35ff64" stroke="none" /><path d="M 79.73907114497095 94.47779374421319 l -51.02849851123083 -13.908044182889602 a73.88989840511982,73.88989840511982 0 0,0 0.3440507469765977,-1.2209147261994269 l 50.78222927217965 14.781966832992042" fill="#37ff78" stroke="none" /><path d="M 80.41425534168474 92.42381321644754 l -49.913617495236785 -19.307659513786074 a74.51780009829535,74.51780009829535 0 0,0 0.4717378611274441,-1.1890875720200167 l 49.57482095914321 20.161648103019676" fill="#38ff85" stroke="none" /><path d="M 80.68587082218212 91.75594674310238 l -50.320471322834685 -21.47881696753296 a75.71279020920986,75.71279020920986 0 0,0 0.5204934097222207,-1.1909907813906857 l 49.94434403109549 22.339469818699513" fill="#3bff9c" stroke="none" /><path d="M 80.9802524753101 91.09779779509293 l -47.31637160144094 -22.14645105313602 a73.24274414475752,73.24274414475752 0 0,0 0.5427661996599995,-1.1341726052533658 l 46.92922614382104 22.95543616045447" fill="#36ff6b" stroke="none" /><path d="M 81.46374523516351 90.13048839642627 l -49.705709294848944 -26.465490514297077 a77.31234078482603,77.31234078482603 0 0,0 0.6337942380109808,-1.1661100122074608 l 49.244069707222614 27.314855359979155" fill="#3effba" stroke="none" /><line stroke="#e1ed5e" stroke-width="0.3" x1="26.387840678322718" x2="22.05771365940052" y1="57.49999999999999" y2="54.99999999999999" /><path d="M 25.521815274538284 56.99999999999999 a86.0,86.0 0 0,1 29.574782752854787,-30.34633250058573" fill="none" id="id71" stroke="none" /><text fill="#e1ed5e" style="font-size:6.75px; font-family:Arial;" text-anchor="middle"><textPath startOffset="21.40746469413373" xlink:href="#id71">November</textPath></text><path d="M 81.99639281039701 89.18935116829357 l -47.249022844984765 -28.37168064372042 a76.11281540944131,76.11281540944131 0 0,0 0.6822319131214318,-1.1143745583651021 l 46.75502296740794 29.178592318210065" fill="#3cffa3" stroke="none" /><path d="M 82.576782715395 88.27688183743585 l -46.632686085593555 -31.37655234904385 a77.20583109313303,77.20583109313303 0 0,0 0.7493019406897098,-1.0932539246260788 l 46.08719440808853 32.172441008739966" fill="#3effb8" stroke="none" /><path d="M 83.2033758604659 87.39550010848427 l -43.01528321342016 -32.2794704515018 a74.77991077121757,74.77991077121757 0 0,0 0.7793064574239211,-1.0201371688412653 l 42.454824778641935 33.01312853358395" fill="#39ff8a" stroke="none" /><path d="M 83.64595745247003 86.82634096563983 l -43.07325617411503 -34.6967661780446 a76.30977292174357,76.30977292174357 0 0,0 0.8305162535448745,-1.0130947892708686 l 42.471293101331526 35.43106324901396" fill="#3cffa7" stroke="none" /><line stroke="#e1ed5e" stroke-width="0.3" x1="56.869717070023135" x2="54.33264160355391" y1="26.7553504044142" y2="22.446841604673864" /><path d="M 56.362301976729285 25.89364864446614 a86.0,86.0 0 0,1 42.16139366436587,-11.88097634709845" fill="none" id="id72" stroke="none" /><text fill="#e1ed5e" style="font-size:6.75px; font-family:Arial;" text-anchor="middle"><textPath startOffset="22.145653131862474" xlink:href="#id72">December</textPath></text><path d="M 93.27111125876988 80.10723608172694 l -9.151388950981413 -27.054455338324605 a49.56031290769668,49.56031290769668 0 0,0 0.8082514421880138,-0.2656883029607449 l 8.685614771145639 27.207564562687377" fill="#ff1b02" stroke="none" /><path d="M 94.30408787586887 79.78721728523814 l -7.710464112455258 -27.361717024172155 a49.42736033015258,49.42736033015258 0 0,0 0.8186550107395505,-0.2231280635741912 l 7.23962770078103 27.490045581890485" fill="#ff1702" stroke="none" /><path d="M 95.70440661134978 79.44403061299748 l -5.627367926847655 -26.928992660087104 a48.51068729550643,48.51068729550643 0 0,0 0.8166046880128247,-0.16334380795068068 l 5.1642667533038535 27.021625864700653" fill="#ff0000" stroke="none" /><path d="M 96.76829788921471 79.25015418208739 l -4.534076666287551 -29.11202472470469 a50.4629909341803,50.4629909341803 0 0,0 0.8570896172461482,-0.1259626582332305 l 4.033661943433718 29.185568456236805" fill="#ff3104" stroke="none" /></svg>