<?xml version="1.0" encoding="utf-8" ?>
<svg baseProfile="full" height="200mm" version="1.1" viewBox="0,0,200,200" width="200mm" xmlns="http://www.w3.org/2000/svg" xmlns:ev="http://www.w3.org/2001/xml-events" xmlns:xlink="http://www.w3.org/1999/xlink"><defs /><rect fill="#2b2b2b" height="200" width="200" x="0" y="0" /><text alignment-baseline="middle" fill="#e1ed5e" style="dominant-baseline: central; font-size:9.0px; font-family:Arial;" text-anchor="middle" x="100.0" y="100.0">2018</text><line stroke="#e1ed5e" stroke-width="0.3" x1="100.0" x2="100.0" y1="15.0" y2="10.0" /><path d="M 100.0 14.0 a86.0,86.0 0 0,1 42.46469731375804,11.215312516191453" fill="none" id="id37" stroke="none" /><text fill="#e1ed5e" style="font-size:6.75px; font-family:Arial;" text-anchor="middle"><textPath startOffset="22.20632615414155" xlink:href="#id37">January</textPath></text><line stroke="#e1ed5e" stroke-width="0.3" x1="143.23703022742887" x2="145.7803849466894" y1="26.81831364943548" y2="22.513508569990506" /><path d="M 143.74570117128098 25.957352633546492 a86.0,86.0 0 0,1 28.547481713284135,27.462654790039103" fill="none" id="id38" stroke="none" /><text fill="#e1ed5e" style="font-size:6.75px; font-family:Arial;" text-anchor="middle"><textPath startOffset="19.985693538727396" xlink:href="#id38">February</textPath></text><path d="M 116.60985879189232 87.15038557335679 l 35.57109094714645 -27.51828351659438 a65.9728633608072,65.9728633608072 0 0,0 0.6871358337769327,0.9041902120933654 l -36.03950272114749 26.90190852861998" fill="#47ff2c" stroke="none" /><path d="M 117.2510076193507 88.02491185347247 l 40.62700496899417 -28.201944858420323 a70.45607370736235,70.45607370736235 0 0,0 0.6830063262790188,1.0022275052604392 l -41.10643576094193 27.498439329889475" fill="#34ff60" stroke="none" /><path d="M 117.65298651832404 88.62581576622439 l 45.10759262945409 -29.063754644402195 a74.66001068630895,74.66001068630895 0 0,0 0.6867739870750922,1.0863115184230572 l -45.601194212775134 28.28299547826493" fill="#3cffa5" stroke="none" /><line stroke="#e1ed5e" stroke-width="0.3" x1="172.23445277983987" x2="176.4835382374775" y1="55.19839476539836" y2="52.563006222186495" /><path d="M 173.08426987136738 54.67131705675599 a86.0,86.0 0 0,1 12.851231095245387,41.99856678651699" fill="none" id="id39" stroke="none" /><text fill="#e1ed5e" style="font-size:6.75px; font-family:Arial;" text-anchor="middle"><textPath startOffset="22.20632615414155" xlink:href="#id39">March</textPath></text><path d="M 119.196687751892 91.48605970444005 l 50.48154961018763 -22.389117589628164 a76.22372169175156,76.22372169175156 0 0,0 0.521621758927175,1.203974937521272 l -50.859462078957485 21.51684350752029" fill="#3fffbd" stroke="none" /><path d="M 119.47837535516314 92.15188598940014 l 48.35652706627297 -19.483531385597402 a73.13407431963043,73.13407431963043 0 0,0 0.4604188737374397,1.171715813374539 l -48.68473948989211 18.648266567327077" fill="#39ff8d" stroke="none" /><path d="M 119.7369772167798 92.82701384747503 l 50.596094766752636 -18.388078536423972 a74.83387630393997,74.83387630393997 0 0,0 0.4295711066428457,1.2144553651466603 l -50.90511895420529 17.5144255448507" fill="#3cffa8" stroke="none" /><path d="M 120.18372546131832 94.20196356495316 l 59.54969966766496 -17.10642215337915 a82.95802134831871,82.95802134831871 0 0,0 0.38244923591215846,1.375873386968985 l -59.83533567414348 16.078837462991213" fill="#4be0ff" stroke="none" /><path d="M 120.67395015179393 96.31383870115 l 60.37182774306645 -10.764285167245571 a82.32395470124436,82.32395470124436 0 0,0 0.23673287508103005,1.3972108294079373 l -60.5481724796677 9.723488549521797" fill="#4ae8ff" stroke="none" /><path d="M 120.78858239683441 97.02765380044208 l 22.167463041763796 -3.169498201862019 a43.392903709871355,43.392903709871355 0 0,0 0.09935735346993703,0.7403276897048137 l -22.218736394291568 2.787452170092541" fill="#ff2904" stroke="none" /><path d="M 120.87857604477298 97.74499172005257 l 51.52800909024999 -5.565326241528343 a72.8276815705616,72.8276815705616 0 0,0 0.12388638645713537,1.2475190049046034 l -51.616172602389355 4.6775317059193044" fill="#39ff88" stroke="none" /><path d="M 120.94382443527127 98.46500227214037 l 46.54884031507408 -3.411619703887866 a67.67369370086561,67.67369370086561 0 0,0 0.07514812103106643,1.1625081710049399 l -46.60066902710957 2.6098524686298914" fill="#2fff30" stroke="none" /><line stroke="#e1ed5e" stroke-width="0.3" x1="184.98032266829074" x2="189.97916517819016" y1="98.17113171792111" y2="98.06355123074" /><path d="M 185.9800911702706 98.14961562048488 a86.0,86.0 0 0,1 -9.607161424134198,41.387399972396054" fill="none" id="id40" stroke="none" /><text fill="#e1ed5e" style="font-size:6.75px; font-family:Arial;" text-anchor="middle"><textPath startOffset="21.466115282336823" xlink:href="#id40">April</textPath></text><path d="M 120.92983693683757 101.71520430193887 l 48.97318172979305 4.013361988250019 a70.13735445857932,70.13735445857932 0 0,0 -0.10896473834614383,1.2024168077644977 l -48.89684239516983 -4.8557601845630876" fill="#34ff5b" stroke="none" /><path d="M 120.81339534386255 102.79330883721812 l 53.258784656875974 7.147715756305801 a74.73628181834346,74.73628181834346 0 0,0 -0.18209298965363171,1.2735579455258292 l -53.12785761620574 -8.06341917381204" fill="#3cffa6" stroke="none" /><path d="M 120.49622156327973 104.57218783832717 l 53.0391761683912 11.831696660933517 a75.34283075528899,75.34283075528899 0 0,0 -0.2932609689108315,1.263360578715226 l -52.82765463354982 -12.742925896997308" fill="#3dffb0" stroke="none" /><path d="M 119.9155931802556 106.66101706037122 l 30.640151604628493 10.247978592630183 a53.30851212280789,53.30851212280789 0 0,0 -0.29855094354362594,0.8677287905366992 l -30.459209830141635 -10.773880086256183" fill="#ffe915" stroke="none" /><path d="M 119.54520255179757 107.68017299344265 l 46.279051731712535 18.185082622197996 a70.72371525904609,70.72371525904609 0 0,0 -0.4549804305476995,1.1292241159458576 l -45.95916868690745 -18.979006105986667" fill="#35ff65" stroke="none" /><path d="M 119.12269723197855 108.67885076344098 l 38.85512230190283 17.63442697244293 a63.66958569921027,63.66958569921027 0 0,0 -0.46152986089102277,0.9940942607353235 l -38.545817824171976 -18.300641300457084" fill="#69ff28" stroke="none" /><line stroke="#e1ed5e" stroke-width="0.3" x1="174.80103733775053" x2="179.2010983576182" y1="140.37084112569926" y2="142.7455964860345" /><path d="M 175.68104954172406 140.8457921977663 a86.0,86.0 0 0,1 -30.038265399797805,32.042727171017184" fill="none" id="id41" stroke="none" /><text fill="#e1ed5e" style="font-size:6.75px; font-family:Arial;" text-anchor="middle"><textPath startOffset="22.206326154141568" xlink:href="#id41">May</textPath></text><path d="M 118.12598468904814 110.60418214915192 l 43.420033621671784 25.401872137997902 a71.30461636691311,71.30461636691311 0 0,0 -0.6289037429596905,1.0540788476761493 l -42.976349003013866 -26.145513079560157" fill="#36ff6f" stroke="none" /><path d="M 117.14729908036423 112.12312394758627 l 40.463500183217924 28.60765568823978 a70.5549473923054,70.5549473923054 0 0,0 -0.709649077958627,0.9856405016221784 l -39.965071312883694 -29.29992979531309" fill="#35ff62" stroke="none" /><path d="M 116.498646956653 112.99209946851258 l 39.51299843221459 31.115085211487877 a71.29339492241843,71.29339492241843 0 0,0 -0.7675314086075349,0.9576134455870446 l -38.9715491115522 -31.79062649065317" fill="#36ff6f" stroke="none" /><path d="M 116.0416608686014 113.55231037782055 l 40.90316703614916 34.555799405704654 a74.54598347359415,74.54598347359415 0 0,0 -0.8365390184269237,0.9730838683637344 l -40.30228550815146 -35.25476037322992" fill="#3cffa3" stroke="none" /><path d="M 115.07121518719521 114.62390073753431 l 38.51337596401695 37.37029696474927 a74.66394714684401,74.66394714684401 0 0,0 -0.9029337784904301,0.9146671504976596 l -37.86440156047099 -38.02770460922759" fill="#3cffa5" stroke="none" /><path d="M 114.29624159901734 115.38237550388516 l 42.88872479705202 46.14712651165547 a84.0,84.0 0 0,0 -1.0676018021325442,0.9752289336536681 l -42.088023445452606 -46.878548211895726" fill="#4dd2ff" stroke="none" /><path d="M 113.48314897796784 116.09983520530334 l 34.01238292500834 40.61319510205694 a73.97427497035841,73.97427497035841 0 0,0 -0.9832585649274198,0.8091548590329801 l -33.30825423153623 -41.1926450799471" fill="#3bff9a" stroke="none" /><path d="M 112.34349029814194 116.9893568818739 l 30.978351521704376 42.63804296047456 a73.70351952670293,73.70351952670293 0 0,0 -1.0328062684792756,0.7368798498527578 l -30.239817925376215 -43.16496707217153" fill="#3aff96" stroke="none" /><path d="M 111.7513745106137 117.40417183066458 l 29.798539695954997 44.13261654650438 a74.2507353118452,74.2507353118452 0 0,0 -1.0654107231724257,0.706096132247629 l -29.034454274042606 -44.639010699843325" fill="#3bff9f" stroke="none" /><line stroke="#e1ed5e" stroke-width="0.3" x1="143.8653032363475" x2="146.44561519142675" y1="172.8068346515853" y2="177.08958963109032" /><path d="M 144.38136562736335 173.6633856474863 a86.0,86.0 0 0,1 -40.68145358897372,12.25698825130547" fill="none" id="id42" stroke="none" /><text fill="#e1ed5e" style="font-size:6.75px; font-family:Arial;" text-anchor="middle"><textPath startOffset="21.466115282336833" xlink:href="#id42">June</textPath></text><path d="M 105.18746579009965 120.34920634021253 l 6.000262881031119 23.537617866251935 a45.290381006875585,45.290381006875585 0 0,0 -0.7570971183424825,0.1860760516072087 l -5.594212477945425 -23.63741517617317" fill="#ff5007" stroke="none" /><line stroke="#e1ed5e" stroke-width="0.3" x1="102.19456741930631" x2="102.32365962044197" y1="184.97166512339345" y2="189.96999836594603" /><path d="M 102.22038585953345 185.97133177190398 a86.0,86.0 0 0,1 -42.740103519485714,-10.115201625700543" fill="none" id="id43" stroke="none" /><text fill="#e1ed5e" style="font-size:6.75px; font-family:Arial;" text-anchor="middle"><textPath startOffset="22.20632615414155" xlink:href="#id43">July</textPath></text><path d="M 91.07499286063937 119.00905698771935 l -8.693028324566333 18.51497351624278 a41.4541679312282,41.4541679312282 0 0,0 -0.6433041993989468,-0.30882510924331597 l 9.010445191965522 -18.3625941304999" fill="#ff0000" stroke="none" /><line stroke="#e1ed5e" stroke-width="0.3" x1="58.666819895761336" x2="56.23545636021788" y1="174.27360380694188" y2="178.64263932499728" /><path d="M 58.180547188652646 175.14741091055294 a86.0,86.0 0 0,1 -31.652253787137756,-30.449443065178592" fill="none" id="id44" stroke="none" /><text fill="#e1ed5e" style="font-size:6.75px; font-family:Arial;" text-anchor="middle"><textPath startOffset="22.20632615414155" xlink:href="#id44">August</textPath></text><path d="M 88.8546689885994 117.79835938074946 l -16.366665679591552 26.136486868983695 a51.83802346649469,51.83802346649469 0 0,0 -0.7521899569599788,-0.4800832191679172 l 16.814137438598454 -25.850889220991974" fill="#ffce13" stroke="none" /><path d="M 84.9287848128048 114.62390073753433 l -27.410282965377856 26.596744343082566 a59.193067720377975,59.193067720377975 0 0,0 -0.7032515523817149,-0.7373564411095719 l 27.86404106913853 -26.120980785390493" fill="#b0ff20" stroke="none" /><path d="M 83.06392112726016 112.41649034213515 l -25.266453850150125 18.523808407349495 a52.32930206809526,52.32930206809526 0 0,0 -0.5263336213172682,-0.7310313655702574 l 25.581567263843002 -18.0861434363281" fill="#ffd714" stroke="none" /><line stroke="#e1ed5e" stroke-width="0.3" x1="26.63291911575756" x2="22.317208475507996" y1="142.92168965132927" y2="145.44649492493687" /><path d="M 25.769776987707644 143.4266507060508 a86.0,86.0 0 0,1 -11.730757126820373,-40.83630448921669" fill="none" id="id45" stroke="none" /><text fill="#e1ed5e" style="font-size:6.75px; font-family:Arial;" text-anchor="middle"><textPath startOffset="21.46611528233685" xlink:href="#id45">September</textPath></text><path d="M 80.73074385275274 108.34839909993369 l -31.79138595229685 13.773607857079355 a55.646854029889866,55.646854029889866 0 0,0 -0.3732287995164251,-0.8822026320517669 l 32.02376573300558 -13.22433069936143" fill="#ebff1a" stroke="none" /><path d="M 79.86692584326677 105.97154293290107 l -40.068103960845505 11.884345191373203 a62.793427900147634,62.793427900147634 0 0,0 -0.29844030759982276,-1.0389098624451159 l 40.266736905331435 -11.192877853423491" fill="#76ff27" stroke="none" /><path d="M 79.0235259727143 100.99374915477108 l -38.53683659262884 1.8256618696574847 a59.58005722947153,59.58005722947153 0 0,0 -0.03971398694361867,-1.0248415378806348 l 38.56255271242365 -1.1620430847628531" fill="#a9ff21" stroke="none" /><line stroke="#e1ed5e" stroke-width="0.3" x1="15.007084014347285" x2="10.007500721073583" y1="101.09737516637583" y2="101.16192664675087" /><path d="M 14.007167355692545 101.11028546245083 a86.0,86.0 0 0,1 10.666146001902534,-42.60595125391555" fill="none" id="id46" stroke="none" /><text fill="#e1ed5e" style="font-size:6.75px; font-family:Arial;" text-anchor="middle"><textPath startOffset="22.20632615414155" xlink:href="#id46">October</textPath></text><path d="M 79.21141760316559 97.0276538004421 l -35.64986853690013 -5.097209094763942 a57.012423790325556,57.012423790325556 0 0,0 0.1472660948269562,-0.9702995651114553 l 35.55684654863387 5.71010777226749" fill="#d4ff1c" stroke="none" /><path d="M 79.3925641242962 95.95851677861259 l -35.318908986354565 -6.926663701734605 a56.99172129842257,56.99172129842257 0 0,0 0.1970847108432308,-0.9610550432820063 l 35.19444497959634 7.533594401180014" fill="#d4ff1c" stroke="none" /><path d="M 79.71946130924805 94.55025226153421 l -35.01313062492837 -9.40866178898997 a57.25523731570236,57.25523731570236 0 0,0 0.26395544888202643,-0.9495881893869094 l 34.84598840547998 10.009961281795823" fill="#d0ff1d" stroke="none" /><path d="M 80.02781315780177 93.51064311812611 l -34.91083825372776 -11.343218960637342 a57.70742764028697,57.70742764028697 0 0,0 0.3150899915573775,-0.9420789693454382 l 34.71041096839861 11.942471032905102" fill="#c8ff1d" stroke="none" /><path d="M 80.95270993114464 91.15688171328213 l -44.39714706044066 -20.612340213700495 a69.94870004598415,69.94870004598415 0 0,0 0.5164272758833781,-1.0877275483857896 l 44.03576159071553 21.373510177726818" fill="#34ff58" stroke="none" /><line stroke="#e1ed5e" stroke-width="0.3" x1="26.266209847984243" x2="21.928928074336255" y1="57.711370442889674" y2="55.22380399835377" /><path d="M 25.398753493254645 57.213857153982495 a86.0,86.0 0 0,1 29.58750427330803,-30.492523968695096" fill="none" id="id47" stroke="none" /><text fill="#e1ed5e" style="font-size:6.75px; font-family:Arial;" text-anchor="middle"><textPath startOffset="21.46611528233685" xlink:href="#id47">November</textPath></text><path d="M 87.22198572758235 83.33499621200491 l -31.130618820315306 -40.600352253717446 a72.161548366539,72.161548366539 0 0,0 0.9922345067422909,-0.7473304592996737 l 30.427138159814625 41.130199302522975" fill="#38ff7d" stroke="none" /><line stroke="#e1ed5e" stroke-width="0.3" x1="56.762969772571076" x2="54.21961505331055" y1="26.818313649435495" y2="22.513508569990535" /><path d="M 56.25429882871897 25.957352633546506 a86.0,86.0 0 0,1 42.265352541879196,-11.944610805530505" fill="none" id="id48" stroke="none" /><text fill="#e1ed5e" style="font-size:6.75px; font-family:Arial;" text-anchor="middle"><textPath startOffset="22.20632615414155" xlink:href="#id48">December</textPath></text><path d="M 94.28887869178378 79.79150937346287 l -13.206659947675417 -46.731044458206306 a69.56136718759458,69.56136718759458 0 0,0 1.1550569317522819,-0.3157206919762777 l 12.400305126699413 46.95145169100888" fill="#33ff51" stroke="none" /><path d="M 96.75951476605007 79.25152402106235 l -7.1072556577126695 -45.506988195860735 a67.05864802230192,67.05864802230192 0 0,0 1.1420120315853435,-0.16830288740397342 l 6.322874645698677 45.62258556742567" fill="#37ff2e" stroke="none" /></svg>