<?xml version="1.0" encoding="utf-8" ?>
<svg baseProfile="full" height="200mm" version="1.1" viewBox="0,0,200,200" width="200mm" xmlns="http://www.w3.org/2000/svg" xmlns:ev="http://www.w3.org/2001/xml-events" xmlns:xlink="http://www.w3.org/1999/xlink"><defs /><rect fill="#2b2b2b" height="200" width="200" x="0" y="0" /><text alignment-baseline="middle" fill="#e1ed5e" style="dominant-baseline: central; font-size:9.0px; font-family:Arial;" text-anchor="middle" x="100.0" y="100.0">2016</text><line stroke="#e1ed5e" stroke-width="0.3" x1="100.0" x2="100.0" y1="15.0" y2="10.0" /><path d="M 100.0 14.0 a86.0,86.0 0 0,1 42.35913384403234,11.155469271406648" fill="none" id="id13" stroke="none" /><text fill="#e1ed5e" style="font-size:6.75px; font-family:Arial;" text-anchor="middle"><textPath startOffset="22.145653131862478" xlink:href="#id13">January</textPath></text><path d="M 100.72087961077811 79.0123766808444 l 1.9746912695661463 -57.49098173624989 a78.52488493346092,78.52488493346092 0 0,0 1.3467924145150543,0.05783706117037177 l -2.961309444682037 57.44861210665369" fill="#44ffe8" stroke="none" /><path d="M 101.80034050326958 79.07731436759882 l 5.043740905134522 -58.61591469933755 a79.83251463568546,79.83251463568546 0 0,0 1.3643773504199932,0.12920795362255608 l -6.049217818939528 58.52069499020981" fill="#46fff9" stroke="none" /><path d="M 102.87502721639298 79.19773525538626 l 8.201018506435394 -59.33848457976718 a80.90252462764957,80.90252462764957 0 0,0 1.3740904489351817,0.2019439765901011 l -9.218434060978257 59.1889595298782" fill="#48f8ff" stroke="none" /><path d="M 103.94208987418118 79.37332000966035 l 11.14116902082135 -58.2953041268501 a80.35038441655163,80.35038441655163 0 0,0 1.3525782514376017,0.27055353145074124 l -12.140243757789907 58.095461198736494" fill="#47ffff" stroke="none" /><path d="M 104.9986988182912 79.60360301121754 l 14.996096454873593 -61.18919096634738 a84.0,84.0 0 0,0 1.3975788270984224,0.3552590726589293 l -16.04428057519741 60.92274666185318" fill="#4dd2ff" stroke="none" /><path d="M 106.04205211174951 79.88797359093562 l 17.052568937077396 -56.76245594405927 a80.26859634034744,80.26859634034744 0 0,0 1.3162496683830776,0.40777751188377037 l -18.024459238332103 56.46136184436885" fill="#47fffe" stroke="none" /><line stroke="#e1ed5e" stroke-width="0.3" x1="143.13028292997686" x2="145.6673583964461" y1="26.7553504044142" y2="22.446841604673864" /><path d="M 143.63769802327073 25.89364864446614 a86.0,86.0 0 0,1 29.32050498858742,28.57503671076993" fill="none" id="id14" stroke="none" /><text fill="#e1ed5e" style="font-size:6.75px; font-family:Arial;" text-anchor="middle"><textPath startOffset="20.669276256404974" xlink:href="#id14">February</textPath></text><path d="M 116.7966241395341 87.39550010848427 l 23.09159240823649 -17.328361436598506 a49.87029182439137,49.87029182439137 0 0,0 0.5079597478096457,0.6891449543980182 l -23.385654175629963 16.92941017293161" fill="#ffe815" stroke="none" /><path d="M 117.42321728460499 88.27688183743584 l 26.603650310000194 -17.900123211758455 a53.065068545270684,53.065068545270684 0 0,0 0.502034869854375,0.7601447797968818 l -26.907009618775295 17.440798553622514" fill="#e3ff1b" stroke="none" /><line stroke="#e1ed5e" stroke-width="0.3" x1="172.87174338648825" x2="177.1583165268699" y1="56.24261187166439" y2="53.66864786411523" /><path d="M 173.72905801456457 55.72781907015455 a86.0,86.0 0 0,1 12.242430191666344,42.057860355516425" fill="none" id="id15" stroke="none" /><text fill="#e1ed5e" style="font-size:6.75px; font-family:Arial;" text-anchor="middle"><textPath startOffset="22.145653131862474" xlink:href="#id15">March</textPath></text><path d="M 118.00360718960297 89.18935116829356 l 31.152200332304616 -18.706001224132503 a57.33695181686662,57.33695181686662 0 0,0 0.49944932706322315,0.8481741474056315 l -31.468723369497607 18.168475908433315" fill="#a3ff22" stroke="none" /><path d="M 118.53625476483649 90.13048839642627 l 31.98122660327723 -17.02820181649297 a57.232009496485034,57.232009496485034 0 0,0 0.4542911514006381,0.8711631833443053 l -32.26882582365281 16.476692390044168" fill="#a4ff21" stroke="none" /><path d="M 119.4528033332814 92.08871423366111 l 42.16206331582068 -17.14694410235757 a66.51546193434322,66.51546193434322 0 0,0 0.42107874499009046,1.0613935063699158 l -42.450200735776896 16.42064957877409" fill="#31ff3b" stroke="none" /><path d="M 119.94978838288452 93.4421083053983 l 50.38032724490076 -16.561014245850327 a74.03248595110875,74.03248595110875 0 0,0 0.38650345899838207,1.2107165804008615 l -50.6571954196764 15.693728631758077" fill="#3dffab" stroke="none" /><path d="M 120.26092885502905 94.47779374421319 l 56.91970121407821 -15.513717676565433 a79.99599835961855,79.99599835961855 0 0,0 0.3497368639495488,1.3280078381106977 l -57.177627558832484 14.534329334081937" fill="#46fffb" stroke="none" /><path d="M 120.7213421655516 96.59031103205396 l 41.98959861927404 -6.909372473885301 a63.5542691182756,63.5542691182756 0 0,0 0.16789981042500296,1.078037226125686 l -42.10201992183731 6.187547065828174" fill="#4cff2c" stroke="none" /><path d="M 120.86939407059847 97.66154086499901 l 59.63359088218591 -6.682068242116434 a81.00679292793632,81.00679292793632 0 0,0 0.14298704793198536,1.383269981348618 l -59.739510322599564 5.657393738484884" fill="#48f6ff" stroke="none" /><path d="M 120.96210409425399 98.7389718711861 l 49.578933837186106 -2.9825455442916735 a70.66856408590701,70.66856408590701 0 0,0 0.06245220118194126,1.2115560186900325 l -49.62282762782462 2.1310177322249104" fill="#37ff7a" stroke="none" /><line stroke="#e1ed5e" stroke-width="0.3" x1="184.99686870605535" x2="189.99668451229388" y1="99.2704041080226" y2="99.22748670261217" /><path d="M 185.99683186730306 99.26182062694052 a86.0,86.0 0 0,1 -10.086455211305974,41.156179273409016" fill="none" id="id16" stroke="none" /><text fill="#e1ed5e" style="font-size:6.75px; font-family:Arial;" text-anchor="middle"><textPath startOffset="21.40746469413373" xlink:href="#id16">April</textPath></text><path d="M 120.99922638620191 99.81974689727618 l 58.7173126889385 -0.5040175100326957 a79.71947584116361,79.71947584116361 0 0,0 0.0,1.368541225513038 l -58.7173126889385 -0.5040175100326886" fill="#46fff7" stroke="none" /><path d="M 120.98066250479742 100.90099992219065 l 51.44442629552491 2.209245016872636 a72.49184168798269,72.49184168798269 0 0,0 -0.06406349329022488,1.2428146551305885 l -51.39892121277811 -3.092031465379955" fill="#3aff95" stroke="none" /><path d="M 120.86939407059847 102.33845913500097 l 41.76920810987826 4.680326890942687 a63.0306103445144,63.0306103445144 0 0,0 -0.12971673718428453,1.0742406661751673 l -41.68270928643431 -5.396661234041263" fill="#53ff2b" stroke="none" /><path d="M 120.77682067341334 103.0534771498775 l 52.35527010690673 7.694421752971691 a73.9176571106447,73.9176571106447 0 0,0 -0.19527815814922606,1.253825858416685 l -52.21547045661923 -8.592035793319827" fill="#3dffa9" stroke="none" /><path d="M 120.65975698304385 103.76489593502545 l 47.01568163083059 8.567823367895475 a68.7899771549964,68.7899771549964 0 0,0 -0.22167965751924615,1.159921641047672 l -46.86167568102919 -9.373647573976463" fill="#34ff5e" stroke="none" /><path d="M 120.43855184770803 104.8234425847677 l 43.940822545177696 10.369914476005237 a66.14787937640548,66.14787937640548 0 0,0 -0.270300625951955,1.1029187941987806 l -43.75633439270945 -11.122689094812117" fill="#30ff35" stroke="none" /><path d="M 120.16314734710363 105.8691983318838 l 50.305597330058546 14.643226221148936 a73.39348429812372,73.39348429812372 0 0,0 -0.36250677519796265,1.206667155695086 l -50.04681423485695 -15.504630980434746" fill="#3cffa2" stroke="none" /><path d="M 119.83427380445688 106.89939002012753 l 49.04159418233388 17.059212190400828 a72.92393167415045,72.92393167415045 0 0,0 -0.4214302832239048,1.178815506982866 l -48.74152372906603 -17.898562653764614" fill="#3bff9b" stroke="none" /><path d="M 119.0197475246899 108.90220220490707 l 40.67207693095467 19.036585657243 a65.90667473063492,65.90667473063492 0 0,0 -0.4884021727131488,1.02057269775544 l -40.33929550028161 -19.73197085706354" fill="#30ff31" stroke="none" /><path d="M 118.70294669586154 109.54985784667822 l 39.253475303716286 20.043104182162498 a65.07449771326367,65.07449771326367 0 0,0 -0.5165425563956748,0.9905384605777223 l -38.903624678345665 -20.713988885844724" fill="#39ff2e" stroke="none" /><line stroke="#e1ed5e" stroke-width="0.3" x1="174.33088141563837" x2="178.70328620479359" y1="141.23008692659167" y2="143.65538615756765" /><path d="M 175.20536237346943 141.71514677278685 a86.0,86.0 0 0,1 -30.301960400862466,31.631185727798858" fill="none" id="id17" stroke="none" /><text fill="#e1ed5e" style="font-size:6.75px; font-family:Arial;" text-anchor="middle"><textPath startOffset="22.145653131862474" xlink:href="#id17">May</textPath></text><path d="M 118.00360718960297 110.81064883170644 l 35.04496708452958 21.04349581057014 a61.877603083904575,61.877603083904575 0 0,0 -0.5546355801478042,0.9059555376893954 l -34.67856353992637 -21.64198846438409" fill="#63ff29" stroke="none" /><path d="M 117.423217284605 111.72311816256416 l 38.78090870971751 26.09352611686371 a67.74217566141837,67.74217566141837 0 0,0 -0.6574547928693562,0.9592461910709186 l -38.327264180032834 -26.755407043004674" fill="#33ff4e" stroke="none" /><path d="M 117.01052211995028 112.31430620078461 l 36.486700857461834 26.41355764666726 a66.0439270825238,66.0439270825238 0 0,0 -0.6726982200811791,0.9126443309740346 l -36.027900617796824 -27.036008286910175" fill="#30ff33" stroke="none" /><path d="M 116.57777611688842 112.89097897827486 l 18.30796613863135 14.23638520414295 a44.19172886643021,44.19172886643021 0 0,0 -0.4708177731146079,0.5948628759271247 l -18.06088193487518 -14.548568023984757" fill="#ff890c" stroke="none" /><path d="M 116.1254893667686 113.45245675266167 l 30.186524780067824 25.18267259248999 a60.31149039655194,60.31149039655194 0 0,0 -0.670047552024001,0.7893143314736683 l -29.74978266453671 -25.697153706413214" fill="#78ff26" stroke="none" /><path d="M 115.6541949942343 113.99807769240083 l 33.770037774906 30.197376014707494 a66.30228437388351,66.30228437388351 0 0,0 -0.7659565061209354,0.8419203760573558 l -33.24668356794319 -30.77263396632252" fill="#30ff37" stroke="none" /><path d="M 115.16444852881244 114.52719865689866 l 31.900786911629382 30.560232236346593 a65.17678123087536,65.17678123087536 0 0,0 -0.7809208769616469,0.8012936151370204 l -31.371479233516926 -31.103348543551352" fill="#37ff2e" stroke="none" /><path d="M 114.65682725009322 115.03919595460226 l 30.299103361502503 31.089549254221183 a64.41193081794056,64.41193081794056 0 0,0 -0.7984856109738077,0.764931152837645 l -29.760945264663384 -31.605092537364406" fill="#41ff2d" stroke="none" /><path d="M 113.86319453409587 115.77377054828091 l 29.897277767548474 34.01761393188775 a66.28846735681074,66.28846735681074 0 0,0 -0.861183530952758,0.7438698229787372 l -29.30891475683286 -34.525827887331204" fill="#30ff37" stroke="none" /><path d="M 113.03279911837588 116.46651593811092 l 26.99133258916721 34.10266698914344 a64.49165357527181,64.49165357527181 0 0,0 -0.8739849172167681,0.6796159578782746 l -26.40193772731521 -34.560983998642506" fill="#40ff2d" stroke="none" /><path d="M 112.16784306229584 117.11559508785304 l 30.674868631191394 43.148044248813285 a73.94054484077775,73.94054484077775 0 0,0 -1.040818476962892,0.7265721309565869 l -29.929655063054746 -43.66826119557499" fill="#3dffaa" stroke="none" /><path d="M 111.5731344415666 117.5232005979908 l 26.349639970881856 39.89671330838673 a68.81266839872774,68.81266839872774 0 0,0 -0.9912771844451987,0.6425338946862063 l -25.660877154179648 -40.343161044776835" fill="#34ff5e" stroke="none" /><line stroke="#e1ed5e" stroke-width="0.3" x1="143.1302829299769" x2="145.66735839644613" y1="173.24464959558577" y2="177.55315839532614" /><path d="M 143.63769802327073 174.10635135553383 a86.0,86.0 0 0,1 -40.68552437913181,11.842963189579606" fill="none" id="id18" stroke="none" /><text fill="#e1ed5e" style="font-size:6.75px; font-family:Arial;" text-anchor="middle"><textPath startOffset="21.407464694133747" xlink:href="#id18">June</textPath></text><path d="M 110.65571695917076 118.09573695890943 l 26.62324618260561 45.21209241562027 a73.46837655100653,73.46837655100653 0 0,0 -1.0922562158710816,0.6306144202572134 l -25.84319749887413 -45.662453733153654" fill="#3cffa3" stroke="none" /><path d="M 109.71004243097381 118.62028667847754 l 22.003761451710485 42.19511388835326 a68.58774163663246,68.58774163663246 0 0,0 -1.0486503220792662,0.5354483263830391 l -21.276183907917638 -42.56662016640914" fill="#34ff5b" stroke="none" /><path d="M 109.06512990194946 118.94263497670748 l 20.338010981064055 42.498620795683856 a68.11440820175092,68.11440820175092 0 0,0 -1.0590534774207103,0.49569050217783484 l -19.60546878977184 -42.84148752943222" fill="#33ff54" stroke="none" /><path d="M 107.407793817531 119.65005319985036 l 12.767532056238096 33.86739565323003 a57.19406530274669,57.19406530274669 0 0,0 -0.9216710552119888,0.33845037794819277 l -12.18427184937198 -34.081576880186944" fill="#a5ff21" stroke="none" /><path d="M 106.72888874123015 119.89276391827305 l 13.655419072064575 40.36982007760217 a63.61681408941401,63.61681408941401 0 0,0 -1.0374910632816932,0.3410439196916795 l -12.960405271135148 -40.59828491869587" fill="#4cff2c" stroke="none" /><path d="M 105.69591212413111 120.21278271476187 l 12.60161216425998 44.718675952316005 a67.46031218219127,67.46031218219127 0 0,0 -1.1173310131294232,0.30453353617874507 l -11.83209975019586 -44.92840998263889" fill="#32ff49" stroke="none" /><path d="M 104.9986988182912 120.39639698878246 l 9.957667419645908 40.63068113449424 a62.83308965272854,62.83308965272854 0 0,0 -1.0498148019200928,0.24775343475563766 l -9.258720463985936 -40.7956307128961" fill="#56ff2b" stroke="none" /><path d="M 104.29559338865022 120.5559693870025 l 8.593948977305487 41.12515690095687 a63.013503652431204,63.013503652431204 0 0,0 -1.0607378571496286,0.21217727912620915 l -7.8867146346249 -41.266623576745936" fill="#54ff2b" stroke="none" /><line stroke="#e1ed5e" stroke-width="0.3" x1="101.45913802915013" x2="101.54496967792366" y1="184.9874750549273" y2="189.98673829345242" /><path d="M 101.47630435890484 185.9873277026323 a86.0,86.0 0 0,1 -42.54439059252881,-10.42667462771756" fill="none" id="id19" stroke="none" /><text fill="#e1ed5e" style="font-size:6.75px; font-family:Arial;" text-anchor="middle"><textPath startOffset="22.145653131862474" xlink:href="#id19">July</textPath></text><path d="M 91.59046798132341 119.24265499422711 l -7.753612156479547 17.741781986777045 a40.36205902117422,40.36205902117422 0 0,0 -0.6325053646199161,-0.2829116044510427 l 8.057030923955098 -17.606066631416148" fill="#ff4406" stroke="none" /><path d="M 91.26138138417905 119.09545874513695 l -12.041005975728947 26.3117711125649 a49.93605232210408,49.93605232210408 0 0,0 -0.7764135556128942,-0.3634007474454906 l 12.49090824521333 -26.101194133548887" fill="#ffea15" stroke="none" /><path d="M 90.93487009805054 118.94263497670748 l -12.502340543115444 26.125083239214998 a49.962536030395206,49.962536030395206 0 0,0 -0.7704692959199076,-0.3768751413432028 l 12.94897008829742 -25.90661434777457" fill="#ffea16" stroke="none" /><path d="M 90.6110303473126 118.78422872680471 l -12.968903092049281 25.94649370786815 a50.00711952509947,50.00711952509947 0 0,0 -0.7645678476202215,-0.390393790756487 l 13.412398161383086 -25.72004196543883" fill="#ffeb16" stroke="none" /><path d="M 90.28995756902619 118.62028667847754 l -13.408624636628396 25.712805734163826 a49.998958487656864,49.998958487656864 0 0,0 -0.7576298947521821,-0.40339524528200876 l 13.84804334716714 -25.478840021159243" fill="#ffeb16" stroke="none" /><path d="M 89.97174638481275 118.45085714620012 l -13.904550361591115 25.58280656318168 a50.117288891776916,50.117288891776916 0 0,0 -0.7523698379520157,-0.41732686642379463 l 14.341664387699232 -25.340346781324737" fill="#ffec16" stroke="none" /><line stroke="#e1ed5e" stroke-width="0.3" x1="58.13341422392154" x2="55.670673884152215" y1="173.97424548756322" y2="178.32567169271397" /><path d="M 57.64086615596767 174.84453072859336 a86.0,86.0 0 0,1 -31.369924170532244,-30.572349798747897" fill="none" id="id20" stroke="none" /><text fill="#e1ed5e" style="font-size:6.75px; font-family:Arial;" text-anchor="middle"><textPath startOffset="22.145653131862474" xlink:href="#id20">August</textPath></text><path d="M 89.34428304082925 118.09573695890944 l -14.66719452450534 24.908102857610107 a49.90571194738099,49.90571194738099 0 0,0 -0.7344867058864816,-0.44103816336767826 l 15.09261398694925 -24.65265069370651" fill="#ffe915" stroke="none" /><path d="M 88.4268655584334 117.5232005979908 l -15.913918137619206 24.095700368253667 a49.87655739051152,49.87655739051152 0 0,0 -0.7103934977354684,-0.4779844491309117 l 16.32520792345168 -23.818966245065635" fill="#ffe915" stroke="none" /><path d="M 88.1277618465304 117.32195027204791 l -16.370556909094002 23.885131770388643 a49.95677214750833,49.95677214750833 0 0,0 -0.7032127179008179,-0.4908970913466801 l 16.778164718168586 -23.600589863236834" fill="#ffea16" stroke="none" /><path d="M 87.83215693770417 117.11559508785305 l -16.729873465625545 23.532662168855804 a49.87342818110345,49.87342818110345 0 0,0 -0.6935232431730002,-0.5020573450698139 l 17.131377719172498 -23.242004052412923" fill="#ffe815" stroke="none" /><path d="M 87.54013794807813 116.9041958592261 l -17.123646442313095 23.231515090518432 a49.8603977949426,49.8603977949426 0 0,0 -0.6846236512329483,-0.5137543512320403 l 17.51992308245681 -22.934141712022377" fill="#ffe815" stroke="none" /><path d="M 87.2517909369889 116.68781488649013 l -17.526940719595597 22.94332802430623 a49.87195787990717,49.87195787990717 0 0,0 -0.6758601549615401,-0.5255529444016931 l 17.918210819192367 -22.63907402828374" fill="#ffe815" stroke="none" /><path d="M 86.96720088162412 116.46651593811092 l -15.584477873940406 19.690478688998347 a46.11156907891731,46.11156907891731 0 0,0 -0.6164660712674364,-0.4965814296695315 l 15.920194715563104 -19.420048965535404" fill="#ffaa0f" stroke="none" /><path d="M 86.40962598614128 116.0094264158162 l -17.629561247783947 20.76757882098828 a48.24139790604231,48.24139790604231 0 0,0 -0.6267258701758673,-0.5413508797458537 l 17.983466597722675 -20.461883808777703" fill="#ffce13" stroke="none" /><path d="M 85.86807049272751 115.53346607816431 l -19.342390138936388 21.260675050719016 a49.74272707832522,49.74272707832522 0 0,0 -0.626687841837115,-0.5800529104981996 l 19.704507752087473 -20.92550439408844" fill="#ffe615" stroke="none" /><path d="M 85.60350026404147 115.28858382429668 l -16.58259030181501 17.610136248607258 a45.18882386170027,45.18882386170027 0 0,0 -0.5601854372660283,-0.5366449769936094 l 16.88244822494635 -17.322879141308068" fill="#ff9a0e" stroke="none" /><path d="M 85.34317274990678 115.03919595460226 l -20.248856925254508 20.777111032244104 a50.01214486427412,50.01214486427412 0 0,0 -0.6096911036611893,-0.60448009989966 l 20.60253994904566 -20.426450922115784" fill="#ffeb16" stroke="none" /><path d="M 85.08716467003676 114.78537596483092 l -14.491412264305318 14.367554784073645 a41.40655923685853,41.40655923685853 0 0,0 -0.4961160391868796,-0.5090587616433285 l 14.735915104643007 -14.116673330362579" fill="#ff5708" stroke="none" /><path d="M 84.83555147118756 114.52719865689866 l -15.485509882720322 14.834768171240766 a42.44461151483717,42.44461151483717 0 0,0 -0.4995208631058604,-0.5304738462574974 l 15.737886579562437 -14.56675286503878" fill="#ff6a09" stroke="none" /><path d="M 84.58840730492382 114.26474011684316 l -13.935759806881213 12.898731228435578 a39.98901442146235,39.98901442146235 0 0,0 -0.4619727066530471,-0.5077889303183946 l 14.15513021437614 -12.657604722559508" fill="#ff3d05" stroke="none" /><path d="M 84.3458050057657 113.99807769240083 l -14.100699890342234 12.608932791174357 a39.915996498462604,39.915996498462604 0 0,0 -0.4523602637000791,-0.5147029414624193 l 14.315071218000906 -12.365017571900637" fill="#ff3c05" stroke="none" /><path d="M 83.8745106332314 113.45245675266167 l -17.845181999988206 14.887085510281425 a44.239531742337974,44.239531742337974 0 0,0 -0.4814802711954734,-0.5873276432614677 l 18.09810909042231 -14.578555585321462" fill="#ff890c" stroke="none" /><path d="M 83.64595745247003 113.17365903436017 l -14.316720009736068 11.53253621240886 a39.38390228780872,39.38390228780872 0 0,0 -0.4195952873388335,-0.5301449384560243 l 14.51258172771646 -11.285071330038155" fill="#ff3204" stroke="none" /><path d="M 83.42222388311158 112.89097897827486 l -14.505148101023806 11.27929089696006 a39.374485695411465,39.374485695411465 0 0,0 -0.4103346827205814,-0.5371412716015187 l 14.696634761098688 -11.02862871211767" fill="#ff3204" stroke="none" /><path d="M 83.20337586046588 112.60449989151573 l -16.75144277335762 12.570594952026742 a41.94351194133867,41.94351194133867 0 0,0 -0.42722059503875864,-0.5796067872610422 l 16.964765387980208 -12.28118185549682" fill="#ff6108" stroke="none" /><path d="M 82.78059297857968 112.02048342749411 l -23.347402929750523 16.298300495654626 a49.47342309261005,49.47342309261005 0 0,0 -0.48015197053103004,-0.7005560745202591 l 23.62374463709688 -15.895109686064316" fill="#ffe215" stroke="none" /><path d="M 82.37810715431573 111.42229804090321 l -26.19210173669614 16.977403901730796 a52.21311321588965,52.21311321588965 0 0,0 -0.4810625558290039,-0.7563102401298962 l 26.479681984151036 -16.525279986922225" fill="#f0ff19" stroke="none" /><path d="M 82.18462484594161 111.11811171558189 l -24.677148560412892 15.400365815714013 a50.08836413981544,50.08836413981544 0 0,0 -0.448963559006494,-0.7333482327157608 l 24.93788008387479 -14.974480466873695" fill="#ffec16" stroke="none" /><path d="M 81.99639281039703 110.81064883170644 l -25.248758749565997 15.16115417335169 a50.45098324779539,50.45098324779539 0 0,0 -0.43946719932496836,-0.7463113811604226 l 25.505299659020736 -14.725491623897708" fill="#fff216" stroke="none" /><line stroke="#e1ed5e" stroke-width="0.3" x1="26.387840678322732" x2="22.057713659400548" y1="142.50000000000003" y2="145.00000000000006" /><path d="M 25.521815274538298 143.00000000000003 a86.0,86.0 0 0,1 -11.493303480769221,-40.785679425670985" fill="none" id="id21" stroke="none" /><text fill="#e1ed5e" style="font-size:6.75px; font-family:Arial;" text-anchor="middle"><textPath startOffset="21.40746469413373" xlink:href="#id21">September</textPath></text><path d="M 81.63589988554817 110.18625677009913 l -25.470499351979807 14.128056634680052 a50.126419648009104,50.126419648009104 0 0,0 -0.41092839283515614,-0.7560619589872085 l 25.709273094430294 -13.688739842218256" fill="#ffed16" stroke="none" /><path d="M 81.1358732173502 109.22738970284198 l -21.231175180146067 10.385231688365222 a44.63505525170346,44.63505525170346 0 0,0 -0.3307685913938296,-0.6911791398803481 l 21.406323029499806 -10.019240046419771" fill="#ff900d" stroke="none" /><path d="M 80.83023694016515 108.57439118712176 l -26.36076882561818 11.790836600255927 a49.877568471248026,49.877568471248026 0 0,0 -0.3428871873631881,-0.7845929873050203 l 26.559289894998336 -11.336581543175058" fill="#ffe915" stroke="none" /><path d="M 80.41425534168474 107.57618678355246 l -27.45511851043912 10.620229642958478 a50.43760876992951,50.43760876992951 0 0,0 -0.30543410558604495,-0.8102002528216762 l 27.6333832998396 -10.147361109942658" fill="#fff216" stroke="none" /><path d="M 80.16572619554312 106.89939002012753 l -27.598325997407926 9.600130402352098 a50.22037134605526,50.22037134605526 0 0,0 -0.2762469059294637,-0.8166748915220793 l 27.759058324909756 -9.124953836355859" fill="#ffee16" stroke="none" /><path d="M 79.73907114497094 105.5222062557868 l -22.54425459679226 6.144536840202928 a44.3666161072929,44.3666161072929 0 0,0 -0.19396771713084163,-0.7365270157147591 l 22.646411794727836 -5.756629320115366" fill="#ff8c0c" stroke="none" /><path d="M 79.64726062577567 105.17358676015961 l -28.368084358677596 7.211056111444879 a50.270250091576855,50.270250091576855 0 0,0 -0.2054197382382253,-0.8381826316695135 l 28.487691623432113 -6.723017655167267" fill="#ffef16" stroke="none" /><path d="M 79.48165901384964 104.47187691870673 l -34.34185904386672 7.4846483401073804 a56.14801905319676,56.14801905319676 0 0,0 -0.19716587893618084,-0.9435101055612637 l 34.46528263362727 -6.894021783260707" fill="#b4ff20" stroke="none" /><path d="M 79.34024301695615 103.76489593502545 l -28.233327659389 5.14505280116875 a49.698298887725635,49.698298887725635 0 0,0 -0.14574660987267005,-0.840627715091186 l 28.317489086753906 -4.6596320531569715" fill="#ffe615" stroke="none" /><path d="M 79.22317932658666 103.0534771498775 l -29.22214202420928 4.294648557831484 a50.53603884610023,50.53603884610023 0 0,0 -0.11877288707780172,-0.8593814442474784 l 29.291559427842294 -3.7923788053839202" fill="#fff316" stroke="none" /><path d="M 79.13060592940153 102.33845913500099 l -29.044647586457486 3.2545133434000078 a50.226416313394964,50.226416313394964 0 0,0 -0.08865586128368426,-0.8576650358056302 l 29.096235840222835 -2.755443785311446" fill="#ffee16" stroke="none" /><path d="M 79.06263194458094 101.62068470465958 l -29.090084744585397 2.251756537784986 a50.177104687624805,50.177104687624805 0 0,0 -0.05910394334179199,-0.8593583646571517 l 29.124452649092255 -1.7520547489734912" fill="#ffed16" stroke="none" /><path d="M 79.00696218219943 100.54070618675478 l -29.396537405711555 0.7571505268741293 a50.40628654498464,50.40628654498464 0 0,0 -0.014854416768613222,-0.8651953066517797 l 29.405203254078835 -0.2524083042532973" fill="#fff116" stroke="none" /><line stroke="#e1ed5e" stroke-width="0.3" x1="15.003131293944662" x2="10.003315487706104" y1="100.72959589197737" y2="100.7725132973878" /><path d="M 14.003168132696942 100.73817937305945 a86.0,86.0 0 0,1 10.791469493833615,-42.45332614584628" fill="none" id="id22" stroke="none" /><text fill="#e1ed5e" style="font-size:6.75px; font-family:Arial;" text-anchor="middle"><textPath startOffset="22.145653131862435" xlink:href="#id22">October</textPath></text><path d="M 79.00696218219943 99.45929381324524 l -15.74058662710923 -0.40542167580960975 a36.74580687360118,36.74580687360118 0 0,0 0.02165432674352849,-0.6304420961949774 l 15.731307613368852 0.6755700365687256" fill="#ff0000" stroke="none" /><path d="M 79.03789590574601 98.7389718711861 l -23.82348263442628 -1.4331615563609488 a44.866551424104856,44.866551424104856 0 0,0 0.05284860754363437,-0.7684071550094023 l 23.795370065717584 1.841912135524676" fill="#ff940d" stroke="none" /><path d="M 79.13060592940154 97.66154086499901 l -28.69623078081227 -3.2154725135995657 a49.87581902754192,49.87581902754192 0 0,0 0.10264423068860477,-0.8500414761228402 l 28.636804463864 3.7076076666458424" fill="#ffe915" stroke="none" /><path d="M 79.22317932658666 96.9465228501225 l -35.24938591286411 -5.180445849921339 a56.62802585659203,56.62802585659203 0 0,0 0.14960182750853956,-0.9605510497147384 l 35.15526259321731 5.784785081567528" fill="#adff20" stroke="none" /><path d="M 79.34024301695615 96.23510406497455 l -34.541193935984296 -6.294556162845689 a56.11004864437668,56.11004864437668 0 0,0 0.18081785866635117,-0.9461154428966538 l 34.42804978503578 6.886574170775657" fill="#b5ff20" stroke="none" /><path d="M 79.407916724674 95.88100663000787 l -28.539199307236984 -5.708639148339505 a50.10454359759229,50.10454359759229 0 0,0 0.17594398776127482,-0.8419556738782525 l 28.436997608651343 6.197711273503166" fill="#ffec16" stroke="none" /><path d="M 79.56144815229197 95.17655741523228 l -28.49979935607714 -6.725875047103862 a50.28269042430885,50.28269042430885 0 0,0 0.2054705732726281,-0.8383900559573773 l 28.380141256288216 7.214120927669357" fill="#ffef16" stroke="none" /><path d="M 79.64726062577567 94.8264132398404 l -31.073774482896766 -7.898831960502453 a53.061986946447675,53.061986946447675 0 0,0 0.23198326528982063,-0.8808782441070704 l 30.93360173680222 8.431090708982309" fill="#e3ff1b" stroke="none" /><path d="M 80.41425534168474 92.42381321644754 l -43.100361309453106 -16.67214565571194 a67.21256956468312,67.21256956468312 0 0,0 0.4254918122314305,-1.0725173186469819 l 42.80781082225554 17.409563991572504" fill="#32ff46" stroke="none" /><path d="M 80.68587082218212 91.75594674310238 l -26.893864813162637 -11.479391680684975 a50.24134740307373,50.24134740307373 0 0,0 0.3453880136580082,-0.7903153672763336 l 26.692842917487653 11.939369117737174" fill="#ffee16" stroke="none" /><path d="M 80.9802524753101 91.09779779509293 l -26.729743962383623 -12.510869838289956 a50.51272736304148,50.51272736304148 0 0,0 0.3743251483193108,-0.7821955916693268 l 26.511039556104407 12.96787793202437" fill="#fff316" stroke="none" /><path d="M 81.29705330413844 90.45014215332179 l -31.091364230482757 -15.875472110825507 a55.90993475293446,55.90993475293446 0 0,0 0.44379690416436957,-0.8510390805504062 l 30.814259257343448 16.4068574344804" fill="#b8ff1f" stroke="none" /><path d="M 81.63589988554816 89.8137432299009 l -30.80285085931972 -17.085822128424198 a56.224152777116494,56.224152777116494 0 0,0 0.47540636253128077,-0.8399974900349472 l 30.505011131767066 17.61207638855825" fill="#b3ff20" stroke="none" /><line stroke="#e1ed5e" stroke-width="0.3" x1="26.387840678322718" x2="22.05771365940052" y1="57.49999999999999" y2="54.99999999999999" /><path d="M 25.521815274538284 56.99999999999999 a86.0,86.0 0 0,1 29.574782752854787,-30.34633250058573" fill="none" id="id23" stroke="none" /><text fill="#e1ed5e" style="font-size:6.75px; font-family:Arial;" text-anchor="middle"><textPath startOffset="21.40746469413373" xlink:href="#id23">November</textPath></text><path d="M 81.99639281039701 89.18935116829357 l -25.120872418230835 -15.084362105857638 a50.301812421651746,50.301812421651746 0 0,0 0.45087678779573276,-0.7364733481582594 l 24.858227665979705 15.513372570140438" fill="#ffef16" stroke="none" /><path d="M 82.37810715431573 88.57770195909679 l -25.05747275349748 -16.241951103019886 a50.860976481440744,50.860976481440744 0 0,0 0.4811825256899983,-0.728571672997198 l 24.774965788886753 16.669702654356144" fill="#fff817" stroke="none" /><path d="M 83.42222388311158 87.10902102172516 l -23.271741589623613 -18.096247017961936 a50.4796219912894,50.4796219912894 0 0,0 0.5378088575226617,-0.6795039226506331 l 22.957666301459387 18.493070884527253" fill="#fff216" stroke="none" /><path d="M 83.8745106332314 86.54754324733833 l -22.362941089188343 -18.655960822162122 a50.12294642299361,50.12294642299361 0 0,0 0.5568550425488589,-0.6559738399304674 l 22.03939148313237 19.037101444542145" fill="#ffed16" stroke="none" /><path d="M 84.58840730492382 85.73525988315684 l -25.716135718524598 -23.802471301452204 a56.04107983995402,56.04107983995402 0 0,0 0.6595345692173559,-0.7004028570441629 l 25.303745315570968 24.240415618440878" fill="#b6ff1f" stroke="none" /><path d="M 85.08716467003674 85.21462403516908 l -21.49179755905795 -21.308108085405262 a51.26438224214799,51.26438224214799 0 0,0 0.6249569554064341,-0.6196154750635895 l 21.12284868352154 21.673903570697526" fill="#ffff18" stroke="none" /><path d="M 85.60350026404147 84.71141617570332 l -24.351009387676235 -25.859928111542175 a56.52052280207634,56.52052280207634 0 0,0 0.7120784592000122,-0.6590891911214037 l 23.90350115716227 26.274135048795944" fill="#afff20" stroke="none" /><path d="M 86.40962598614128 83.9905735841838 l -18.907994856452483 -22.273570397424233 a50.216848011731976,50.216848011731976 0 0,0 0.6619672565303771,-0.5522366290789685 l 18.522853265760197 22.594869210415084" fill="#ffee16" stroke="none" /><path d="M 88.12776184653039 82.6780497279521 l -16.654170773948696 -24.298932875114637 a50.458437552544666,50.458437552544666 0 0,0 0.7186812366091607,-0.4835608097151714 l 16.234593249242547 24.58124335888692" fill="#fff216" stroke="none" /><line stroke="#e1ed5e" stroke-width="0.3" x1="56.869717070023135" x2="54.33264160355391" y1="26.7553504044142" y2="22.446841604673864" /><path d="M 56.362301976729285 25.89364864446614 a86.0,86.0 0 0,1 42.16139366436587,-11.88097634709845" fill="none" id="id24" stroke="none" /><text fill="#e1ed5e" style="font-size:6.75px; font-family:Arial;" text-anchor="middle"><textPath startOffset="22.145653131862474" xlink:href="#id24">December</textPath></text></svg>