<?xml version="1.0" encoding="utf-8" ?>
<svg baseProfile="full" height="200mm" version="1.1" viewBox="0,0,200,200" width="200mm" xmlns="http://www.w3.org/2000/svg" xmlns:ev="http://www.w3.org/2001/xml-events" xmlns:xlink="http://www.w3.org/1999/xlink"><defs /><rect fill="#2b2b2b" height="200" width="200" x="0" y="0" /><text alignment-baseline="middle" fill="#e1ed5e" style="dominant-baseline: central; font-size:9.0px; font-family:Arial;" text-anchor="middle" x="100.0" y="100.0">2025</text><line stroke="#e1ed5e" stroke-width="0.3" x1="100.0" x2="100.0" y1="15.0" y2="10.0" /><path d="M 100.0 14.0 a86.0,86.0 0 0,1 42.46469731375804,11.215312516191453" fill="none" id="id121" stroke="none" /><text fill="#e1ed5e" style="font-size:6.75px; font-family:Arial;" text-anchor="middle"><textPath startOffset="22.20632615414155" xlink:href="#id121">January</textPath></text><path d="M 100.0 79.0 l 0.0 -54.741428449283205 a75.7414284492832,75.7414284492832 0 0,0 1.3037641836491813,0.011221909941711192 l -0.942283704376653 54.73331791595005" fill="#ff2703" stroke="none" /><path d="M 101.08401301168833 79.027996857942 l 2.8355589312070197 -54.85852122950535 a75.9317553509847,75.9317553509847 0 0,0 1.304717096612436,0.07870409829550182 l -3.7794380766590674 54.80158386182954" fill="#ff3a05" stroke="none" /><path d="M 101.44485096284872 79.0497635885617 l 3.842009713962018 -55.70886816163233 a76.84119474449227,76.84119474449227 0 0,0 1.3187771641444725,0.1023624893382052 l -4.8003770674688315 55.63448041010566" fill="#ff940d" stroke="none" /><path d="M 101.80526077348638 79.07773832637324 l 4.748900355185846 -55.03788557998443 a76.24238321885599,76.24238321885599 0 0,0 1.3065579986296523,0.12407342530331036 l -5.695583480905742 54.94798661016594" fill="#ff5a08" stroke="none" /><path d="M 102.52436894288641 79.15227682838746 l 6.6207217891443335 -54.67781381374546 a76.07719383247357,76.07719383247357 0 0,0 1.2986930231140716,0.16860762713953892 l -7.560929540766251 54.55574786344179" fill="#ff4906" stroke="none" /><path d="M 104.307194497241 79.44645832069477 l 11.380362329672653 -54.30605736944366 a76.48567845640835,76.48567845640835 0 0,0 1.2862606592825911,0.2811267602768665 l -12.313465713108773 54.10211711107092" fill="#ff710a" stroke="none" /><path d="M 104.66035177308747 79.52364482259891 l 12.445757170514513 -54.68337084483819 a77.08179667683189,77.08179667683189 0 0,0 1.2912166779657277,0.3055892701367934 l -13.385197535442765 54.46103566256052" fill="#ffaa0f" stroke="none" /><path d="M 105.71112130821622 79.79150937346287 l 15.192328167801998 -53.75722293494652 a76.86274118619431,76.86274118619431 0 0,0 1.2701010992477075,0.3707773393357466 l -16.11541948477313 53.48774726669207" fill="#ff960d" stroke="none" /><path d="M 106.74666289553966 80.11325718540242 l 17.89739473283666 -52.75510153894929 a76.70832502066293,76.70832502066293 0 0,0 1.2467586556055101,0.4349696141928358 l -18.802835392505443 52.439211071584246" fill="#ff870c" stroke="none" /><path d="M 107.08798089147638 80.2323363322302 l 19.424324069583193 -54.17248029590932 a78.54964801778436,78.54964801778436 0 0,0 1.2688299481893124,0.467320778014542 l -20.353936343545083 53.830096250088445" fill="#d2ff1c" stroke="none" /><path d="M 107.4271985657038 80.35727306442388 l 20.659389859956026 -54.6379297772648 a79.41330122267507,79.41330122267507 0 0,0 1.2744580683330489,0.4944699306191679 l -21.59683109328874 54.274217142755084" fill="#8cff24" stroke="none" /><path d="M 107.76421540070413 80.48803036053334 l 21.227396327948995 -53.3458039608618 a78.41408498874227,78.41408498874227 0 0,0 1.249831385580911,0.5098376035756366 l -22.142511583118296 52.972505471102586" fill="#ddff1b" stroke="none" /><line stroke="#e1ed5e" stroke-width="0.3" x1="143.23703022742887" x2="145.7803849466894" y1="26.81831364943548" y2="22.513508569990506" /><path d="M 143.74570117128098 25.957352633546492 a86.0,86.0 0 0,1 28.547481713284135,27.462654790039103" fill="none" id="id122" stroke="none" /><text fill="#e1ed5e" style="font-size:6.75px; font-family:Arial;" text-anchor="middle"><textPath startOffset="19.985693538727396" xlink:href="#id122">February</textPath></text><path d="M 111.2981086023043 82.29822771554956 l 29.87669816616415 -46.810534945719205 a76.53236241342948,76.53236241342948 0 0,0 1.1043728288522334,0.7183148080142786 l -30.678038020800663 46.2893212135454" fill="#ff760a" stroke="none" /><path d="M 111.60114157652 82.49532879139004 l 30.032795401409466 -45.31573082782982 a75.36436571949724,75.36436571949724 0 0,0 1.0751814370757105,0.7259673058200361 l -30.808381532891715 44.79205160971111" fill="#ff0000" stroke="none" /><path d="M 113.06298171725822 83.55741782278167 l 33.87134695678508 -42.63440138281896 a75.45144925470973,75.45144925470973 0 0,0 1.0099593313753648,0.8166502080086013 l -34.60020968672494 42.04504507754623" fill="#ff0901" stroke="none" /><path d="M 115.4437574822437 85.77008943001954 l 40.790587315871115 -37.58453279709863 a76.4659275515148,76.4659275515148 0 0,0 0.8835687426937407,0.9756586741084279 l -41.43149969918089 36.87682133572065" fill="#ff700a" stroke="none" /><path d="M 116.82858285166822 87.43820079747576 l 50.485748555004626 -37.68539760757273 a84.0,84.0 0 0,0 0.8549495499454851,1.1661502253140252 l -51.126960717463746 36.81078493858721" fill="#4dd2ff" stroke="none" /><path d="M 117.2510076193507 88.02491185347247 l 45.65614595253842 -31.69301088239575 a76.57814860204634,76.57814860204634 0 0,0 0.7423541676076535,1.0893131392712307 l -46.1949245858148 30.902419719854112" fill="#ff7a0b" stroke="none" /><line stroke="#e1ed5e" stroke-width="0.3" x1="172.23445277983987" x2="176.4835382374775" y1="55.19839476539836" y2="52.563006222186495" /><path d="M 173.08426987136738 54.67131705675599 a86.0,86.0 0 0,1 12.851231095245387,41.99856678651699" fill="none" id="id123" stroke="none" /><text fill="#e1ed5e" style="font-size:6.75px; font-family:Arial;" text-anchor="middle"><textPath startOffset="22.20632615414155" xlink:href="#id123">March</textPath></text><path d="M 118.3937258080291 89.86733742301442 l 48.704816132657676 -26.830315559608977 a76.60597942257817,76.60597942257817 0 0,0 0.626315534204458,1.160467564036399 l -49.1594397660806 25.98796701224012" fill="#ff7d0b" stroke="none" /><path d="M 118.73160827565052 90.50648371742162 l 48.79870372651943 -24.73206152824816 a75.70821101832588,75.70821101832588 0 0,0 0.5791317160621198,1.1674942004849045 l -49.217195455534956 23.888407739264306" fill="#ff2403" stroke="none" /><path d="M 118.89224826269711 90.83032412892265 l 50.137928049635676 -24.33530105415421 a76.73166699917348,76.73166699917348 0 0,0 0.5665055352897509,1.1932051342440266 l -50.54939177876718 23.468653504269643" fill="#ff890c" stroke="none" /><path d="M 119.34039704204932 91.81776055985345 l 51.12965540014628 -21.631152766233463 a76.51710035055719,76.51710035055719 0 0,0 0.5027476395585445,1.2174432867760776 l -51.49442472659102 20.74783490900408" fill="#ff750a" stroke="none" /><path d="M 120.08093135843002 93.85539295169968 l 53.87546709298284 -16.48546917078332 a77.34125174566078,77.34125174566078 0 0,0 0.37858212330729474,1.2763907165373654 l -54.15125511340184 15.555649067499425" fill="#ffc212" stroke="none" /><path d="M 120.28053869075195 94.5502522615342 l 53.93674203914608 -14.493778613587253 a76.85017242853479,76.85017242853479 0 0,0 0.3322989310909766,1.280483334758643 l -54.17823730210736 13.56319885327976" fill="#ff950d" stroke="none" /><path d="M 120.37134235888165 94.90015583598534 l 55.502865158344385 -13.89481154345559 a78.21567817140252,78.21567817140252 0 0,0 0.3157201911567107,1.308864020247898 l -55.733818149761916 12.937362291548286" fill="#eeff19" stroke="none" /><path d="M 120.53481517161879 95.60439243477599 l 56.34066896931133 -12.060077905817556 a78.6169806481033,78.6169806481033 0 0,0 0.27186764227153926,1.3257231755439682 l -56.539915907497864 11.088479074110175" fill="#ccff1d" stroke="none" /><line stroke="#e1ed5e" stroke-width="0.3" x1="184.98032266829074" x2="189.97916517819016" y1="98.17113171792111" y2="98.06355123074" /><path d="M 185.9800911702706 98.14961562048488 a86.0,86.0 0 0,1 -9.607161424134198,41.387399972396054" fill="none" id="id124" stroke="none" /><text fill="#e1ed5e" style="font-size:6.75px; font-family:Arial;" text-anchor="middle"><textPath startOffset="21.466115282336823" xlink:href="#id124">April</textPath></text><line stroke="#e1ed5e" stroke-width="0.3" x1="174.80103733775053" x2="179.2010983576182" y1="140.37084112569926" y2="142.7455964860345" /><path d="M 175.68104954172406 140.8457921977663 a86.0,86.0 0 0,1 -30.038265399797805,32.042727171017184" fill="none" id="id125" stroke="none" /><text fill="#e1ed5e" style="font-size:6.75px; font-family:Arial;" text-anchor="middle"><textPath startOffset="22.206326154141568" xlink:href="#id125">May</textPath></text><line stroke="#e1ed5e" stroke-width="0.3" x1="143.8653032363475" x2="146.44561519142675" y1="172.8068346515853" y2="177.08958963109032" /><path d="M 144.38136562736335 173.6633856474863 a86.0,86.0 0 0,1 -40.68145358897372,12.25698825130547" fill="none" id="id126" stroke="none" /><text fill="#e1ed5e" style="font-size:6.75px; font-family:Arial;" text-anchor="middle"><textPath startOffset="21.466115282336833" xlink:href="#id126">June</textPath></text><line stroke="#e1ed5e" stroke-width="0.3" x1="102.19456741930631" x2="102.32365962044197" y1="184.97166512339345" y2="189.96999836594603" /><path d="M 102.22038585953345 185.97133177190398 a86.0,86.0 0 0,1 -42.740103519485714,-10.115201625700543" fill="none" id="id127" stroke="none" /><text fill="#e1ed5e" style="font-size:6.75px; font-family:Arial;" text-anchor="middle"><textPath startOffset="22.20632615414155" xlink:href="#id127">July</textPath></text><line stroke="#e1ed5e" stroke-width="0.3" x1="58.666819895761336" x2="56.23545636021788" y1="174.27360380694188" y2="178.64263932499728" /><path d="M 58.180547188652646 175.14741091055294 a86.0,86.0 0 0,1 -31.652253787137756,-30.449443065178592" fill="none" id="id128" stroke="none" /><text fill="#e1ed5e" style="font-size:6.75px; font-family:Arial;" text-anchor="middle"><textPath startOffset="22.20632615414155" xlink:href="#id128">August</textPath></text><line stroke="#e1ed5e" stroke-width="0.3" x1="26.63291911575756" x2="22.317208475507996" y1="142.92168965132927" y2="145.44649492493687" /><path d="M 25.769776987707644 143.4266507060508 a86.0,86.0 0 0,1 -11.730757126820373,-40.83630448921669" fill="none" id="id129" stroke="none" /><text fill="#e1ed5e" style="font-size:6.75px; font-family:Arial;" text-anchor="middle"><textPath startOffset="21.46611528233685" xlink:href="#id129">September</textPath></text><line stroke="#e1ed5e" stroke-width="0.3" x1="15.007084014347285" x2="10.007500721073583" y1="101.09737516637583" y2="101.16192664675087" /><path d="M 14.007167355692545 101.11028546245083 a86.0,86.0 0 0,1 10.666146001902534,-42.60595125391555" fill="none" id="id130" stroke="none" /><text fill="#e1ed5e" style="font-size:6.75px; font-family:Arial;" text-anchor="middle"><textPath startOffset="22.20632615414155" xlink:href="#id130">October</textPath></text><line stroke="#e1ed5e" stroke-width="0.3" x1="26.266209847984257" x2="21.92892807433627" y1="57.711370442889674" y2="55.22380399835377" /><path d="M 25.39875349325466 57.213857153982495 a86.0,86.0 0 0,1 29.58750427330802,-30.492523968695096" fill="none" id="id131" stroke="none" /><text fill="#e1ed5e" style="font-size:6.75px; font-family:Arial;" text-anchor="middle"><textPath startOffset="21.46611528233685" xlink:href="#id131">November</textPath></text><line stroke="#e1ed5e" stroke-width="0.3" x1="56.762969772571076" x2="54.21961505331055" y1="26.818313649435495" y2="22.513508569990535" /><path d="M 56.25429882871897 25.957352633546506 a86.0,86.0 0 0,1 42.265352541879196,-11.944610805530505" fill="none" id="id132" stroke="none" /><text fill="#e1ed5e" style="font-size:6.75px; font-family:Arial;" text-anchor="middle"><textPath startOffset="22.20632615414155" xlink:href="#id132">December</textPath></text></svg>