<?xml version="1.0" encoding="utf-8" ?>
<svg baseProfile="full" height="200mm" version="1.1" viewBox="0,0,200,200" width="200mm" xmlns="http://www.w3.org/2000/svg" xmlns:ev="http://www.w3.org/2001/xml-events" xmlns:xlink="http://www.w3.org/1999/xlink"><defs /><rect fill="#2b2b2b" height="200" width="200" x="0" y="0" /><text alignment-baseline="middle" fill="#e1ed5e" style="dominant-baseline: central; font-size:9.0px; font-family:Arial;" text-anchor="middle" x="100.0" y="100.0">2024</text><line stroke="#e1ed5e" stroke-width="0.3" x1="100.0" x2="100.0" y1="15.0" y2="10.0" /><path d="M 100.0 14.0 a86.0,86.0 0 0,1 42.35913384403234,11.155469271406648" fill="none" id="id109" stroke="none" /><text fill="#e1ed5e" style="font-size:6.75px; font-family:Arial;" text-anchor="middle"><textPath startOffset="22.145653131862478" xlink:href="#id109">January</textPath></text><path d="M 100.36049292484886 79.00309439819443 l 0.884382480206488 -51.510845769225355 a72.51843712916977,72.51843712916977 0 0,0 1.2445085345595617,0.03205412527456846 l -1.768504328836791 51.48807392660075" fill="red" stroke="none" /><path d="M 100.72087961077811 79.0123766808444 l 1.8541113568472725 -53.98042914166509 a75.01226211928099,75.01226211928099 0 0,0 1.2865468787820349,0.05524985864541018 l -2.7804839962301435 53.94064671459385" fill="red" stroke="none" /><path d="M 101.08105385017728 79.02784411241856 l 2.7156768300699965 -52.68340500446062 a73.75335120643432,73.75335120643432 0 0,0 1.2638361895615933,0.07602924678191372 l -3.619657371764052 52.629023779854016" fill="red" stroke="none" /><path d="M 101.44090949804482 79.04949213459386 l 3.5916662497961447 -52.222039009647474 a73.34540500153827,73.34540500153827 0 0,0 1.2553625070628818,0.09717299751404548 l -4.48759775163426 52.15268824513838" fill="red" stroke="none" /><path d="M 101.80034050326958 79.07731436759882 l 4.398739913759177 -51.12002547692378 a72.30892629543357,72.30892629543357 0 0,0 1.2357954865996204,0.11703111743270703 l -5.27563496374381 51.036982603985884" fill="red" stroke="none" /><path d="M 102.51750503828377 79.15144685158666 l 6.18837326028266 -51.24860798974896 a72.62088515800114,72.62088515800114 0 0,0 1.2363608113289166,0.1600716598322929 l -7.067211893502368 51.13482473371627" fill="red" stroke="none" /><path d="M 102.87502721639298 79.19773525538626 l 7.087934631756155 -51.28476414470016 a72.77224981321143,72.77224981321143 0 0,0 1.2360016436580272,0.18164967756353084 l -7.9672613810218635 51.15553339383774" fill="red" stroke="none" /><path d="M 103.23170211078529 79.25015418208739 l 8.130458573712602 -52.20337644067913 a73.83272535489826,73.83272535489826 0 0,0 1.2506648295067295,0.20579642176154853 l -9.0254009062724 52.05611402042191" fill="red" stroke="none" /><path d="M 103.58742460773223 79.30868818359171 l 8.909357109353714 -51.38680423723392 a73.1534303168813,73.1534303168813 0 0,0 1.2354752788090997,0.22514475164593395 l -9.790167121713868 51.22629131165662" fill="red" stroke="none" /><path d="M 103.94208987418118 79.37332000966035 l 9.768336887276789 -51.1120663005028 a73.03713795982948,73.03713795982948 0 0,0 1.2294707121695274,0.24592857576940644 l -10.644304084977273 50.93684832807053" fill="red" stroke="none" /><path d="M 104.64783097203109 79.52079915486377 l 11.335126824506869 -49.94466026003646 a72.21478486353448,72.21478486353448 0 0,0 1.2065640968193283,0.28474584154565213 l -12.190823075066081 49.74271827484458" fill="red" stroke="none" /><path d="M 104.9986988182912 79.60360301121754 l 12.3191244027979 -50.266231474925846 a72.7537907089175,72.7537907089175 0 0,0 1.2104661605468217,0.3076957645199031 l -13.180195856570117 50.04735047857067" fill="red" stroke="none" /><path d="M 105.3480935250658 79.69241777938227 l 13.276801422376915 -50.414177547206634 a73.13312530215796,73.13312530215796 0 0,0 1.211288627993531,0.3301421019209103 l -14.14027145130514 50.17883495114158" fill="red" stroke="none" /><path d="M 105.69591212413111 79.78721728523813 l 14.18883678124323 -50.35117617413036 a73.31217861380917,73.31217861380917 0 0,0 1.208394123698167,0.3517459180838814 l -15.051090917323002 50.10018656174396" fill="red" stroke="none" /><path d="M 109.3889696526874 81.21577127319529 l 23.426001282602872 -46.867695021346776 a73.39616753834659,73.39616753834659 0 0,0 1.1221672108148846,0.5729865736000188 l -24.227095715131338 46.45865049607392" fill="red" stroke="none" /><path d="M 110.02825361518725 81.54914285379988 l 25.05102091943978 -46.09105693647969 a73.458928492946,73.458928492946 0 0,0 1.1027787685346033,0.6116927933793556 l -25.83854387613048 45.65423122766719" fill="red" stroke="none" /><line stroke="#e1ed5e" stroke-width="0.3" x1="143.13028292997686" x2="145.6673583964461" y1="26.7553504044142" y2="22.446841604673864" /><path d="M 143.63769802327073 25.89364864446614 a86.0,86.0 0 0,1 29.32050498858742,28.57503671076993" fill="none" id="id110" stroke="none" /><text fill="#e1ed5e" style="font-size:6.75px; font-family:Arial;" text-anchor="middle"><textPath startOffset="20.669276256404974" xlink:href="#id110">February</textPath></text><path d="M 114.91283532996326 85.21462403516908 l 37.07071446678335 -36.75387265726879 a73.20234694326024,73.20234694326024 0 0,0 0.8770798417934191,0.8999611841968612 l -37.69618110972758 36.112088781004196" fill="red" stroke="none" /><path d="M 115.16444852881244 85.47280134310134 l 38.0134261982748 -36.416002399458186 a73.641673625456,73.641673625456 0 0,0 0.8666719062109417,0.9203755308086277 l -38.632953938222 35.758085408705064" fill="red" stroke="none" /><path d="M 115.6541949942343 86.00192230759917 l 37.77220407763625 -33.77613780119096 a71.67116424207798,71.67116424207798 0 0,0 0.8122354344200686,0.9241748243678408 l -38.34645057601491 33.122750699011824" fill="red" stroke="none" /><path d="M 117.42321728460499 88.27688183743584 l 43.00555117657897 -28.936054108371025 a72.83408781259615,72.83408781259615 0 0,0 0.6890644410411797,1.0433313884213742 l -43.495940056540874 28.193542841610594" fill="red" stroke="none" /><path d="M 117.81537515405839 88.88188828441811 l 43.971944503000245 -27.441745520826412 a72.83224190216674,72.83224190216674 0 0,0 0.6528267212629232,1.0663433873502015 l -44.43653918871857 26.682865017351656" fill="red" stroke="none" /><line stroke="#e1ed5e" stroke-width="0.3" x1="172.87174338648825" x2="177.1583165268699" y1="56.24261187166439" y2="53.66864786411523" /><path d="M 173.72905801456457 55.72781907015455 a86.0,86.0 0 0,1 12.242430191666344,42.057860355516425" fill="none" id="id111" stroke="none" /><text fill="#e1ed5e" style="font-size:6.75px; font-family:Arial;" text-anchor="middle"><textPath startOffset="22.145653131862474" xlink:href="#id111">March</textPath></text><path d="M 118.00360718960297 89.18935116829356 l 44.324179841778665 -26.6153964578605 a72.70118226167978,72.70118226167978 0 0,0 0.6332836923956489,1.0754541587270494 l -44.774537244304085 25.850591130839895" fill="red" stroke="none" /><path d="M 118.36410011445183 89.81374322990088 l 45.189907502665946 -25.06607992606908 a72.67626247088296,72.67626247088296 0 0,0 0.5957884074732642,1.0961835647039648 l -45.61354125975455 24.28664152789051" fill="red" stroke="none" /><path d="M 118.8641267826498 90.77261029715802 l 47.290068454953754 -23.13194221686825 a73.64444249110008,73.64444249110008 0 0,0 0.5457429898854087,1.1403929519281528 l -47.680190702799074 22.316736762874996" fill="red" stroke="none" /><path d="M 119.0197475246899 91.09779779509293 l 47.40182846811698 -22.186449181710575 a73.337098404606,73.337098404606 0 0,0 0.5238906696735582,1.1447956604493215 l -47.77570360264559 21.36946453904657" fill="red" stroke="none" /><path d="M 119.16976305983485 91.42560881287824 l 47.76390838079186 -21.36418868634056 a73.32417703160023,73.32417703160023 0 0,0 0.5040727043977407,1.1534169940956203 l -48.12361496720657 20.541109622469094" fill="red" stroke="none" /><path d="M 119.31412917781788 91.75594674310238 l 54.51468773034951 -23.269078548376985 a80.27310684305368,80.27310684305368 0 0,0 0.5300859665663391,1.2720133487388172 l -54.90609954145233 22.32983269019689" fill="red" stroke="none" /><path d="M 119.4528033332814 92.08871423366111 l 55.98334351806791 -22.767938437376905 a81.43603041357184,81.43603041357184 0 0,0 0.5155339899371062,1.2994824263691944 l -56.36593618297114 21.803554993794144" fill="red" stroke="none" /><path d="M 119.58574465831526 92.42381321644754 l 55.047193124185966 -21.29343684882854 a80.02206302465609,80.02206302465609 0 0,0 0.4845881445049167,1.2854276258342257 l -55.40461195250532 20.34534094280016" fill="red" stroke="none" /><path d="M 119.71291397450082 92.76114493625339 l 55.320572368471275 -20.314480443473325 a79.93253636883048,79.93253636883048 0 0,0 0.46193328674655193,1.2921096164299521 l -55.66114582526177 19.361835870662457" fill="red" stroke="none" /><path d="M 119.83427380445688 93.10060997987247 l 56.750797398925506 -19.74087325145441 a81.08623038720168,81.08623038720168 0 0,0 0.44603055806969955,1.3186100904967488 l -57.08131337856757 18.7637614864835" fill="red" stroke="none" /><path d="M 119.94978838288452 93.4421083053983 l 56.02564840194944 -18.416743440498344 a79.97499230870656,79.97499230870656 0 0,0 0.41752766726079593,1.3078994709096659 l -56.33354078498749 17.452274935897293" fill="red" stroke="none" /><path d="M 120.05942366710727 93.78553927170692 l 49.96474209597138 -15.479204822013875 a73.30756383773567,73.30756383773567 0 0,0 0.36208239489614075,1.2052545316925065 l -50.22310081087115 14.619212686730645" fill="red" stroke="none" /><path d="M 120.26092885502905 94.47779374421319 l 50.24404033385309 -13.694236618314733 a73.07682503406144,73.07682503406144 0 0,0 0.3194867260723364,1.2131431374005595 l -50.47171654073016 12.829712976541375" fill="red" stroke="none" /><path d="M 120.51834098615036 95.52812308129327 l 60.077897193263475 -13.093698070635137 a82.48819935832638,82.48819935832638 0 0,0 0.2896604119361421,1.3861299293639637 l -60.29381531602398 12.060451689985769" fill="red" stroke="none" /><path d="M 120.592083275326 95.88100663000786 l 59.74627387614475 -11.950928067217552 a81.92981145343472,81.92981145343472 0 0,0 0.26402352922274924,1.3814826706174002 l -59.94262369764966 10.923542831566836" fill="red" stroke="none" /><path d="M 120.65975698304385 96.23510406497455 l 58.38449321011379 -10.639599552680371 a80.34602030501472,80.34602030501472 0 0,0 0.23562496782176087,1.3590221994973692 l -58.55853299542778 9.63578432026241" fill="red" stroke="none" /><path d="M 120.77682067341334 96.94652285012252 l 59.24950597259371 -8.707637009176837 a80.88594910561244,80.88594910561244 0 0,0 0.19010310104752268,1.375491339426049 l -59.390253590196444 7.689257361550704" fill="red" stroke="none" /><path d="M 120.96210409425399 98.7389718711861 l 59.3476386210018 -3.5702065662521223 a80.45492902034897,80.45492902034897 0 0,0 0.07110074300009246,1.3793354194856509 l -59.40018095345847 2.550899353389741" fill="red" stroke="none" /><path d="M 120.99303781780057 99.45929381324524 l 60.896694152440276 -1.56848282592132 a81.91689008042896,81.91689008042896 0 0,0 0.024140394166061473,1.4060569363673148 l -60.914645978205 0.5228789735849385" fill="red" stroke="none" /><line stroke="#e1ed5e" stroke-width="0.3" x1="184.99686870605535" x2="189.99668451229388" y1="99.2704041080226" y2="99.22748670261217" /><path d="M 185.99683186730306 99.26182062694052 a86.0,86.0 0 0,1 -10.086455211305974,41.156179273409016" fill="none" id="id112" stroke="none" /><text fill="#e1ed5e" style="font-size:6.75px; font-family:Arial;" text-anchor="middle"><textPath startOffset="21.40746469413373" xlink:href="#id112">April</textPath></text><path d="M 120.99922638620191 99.81974689727618 l 60.525173225821696 -0.5195358184252032 a81.52740297982683,81.52740297982683 0 0,0 0.0,1.399577842298053 l -60.525173225821696 -0.5195358184251959" fill="red" stroke="none" /><path d="M 120.99303781780057 100.54070618675476 l 60.913301838491364 1.5689105810024568 a81.9335032742935,81.9335032742935 0 0,0 -0.04828346421258769,1.4057203786687558 l -60.87739368728193 -2.614337224235323" fill="red" stroke="none" /><path d="M 120.82617615685814 102.69636545807757 l 61.14308299029242 7.916196220260268 a82.65340834175714,82.65340834175714 0 0,0 -0.1942570917650974,1.405547546950195 l -60.99818138197211 -8.964632075410547" fill="red" stroke="none" /><path d="M 120.77682067341334 103.0534771498775 l 61.14885054257129 8.986775253441127 a82.80569595218213,82.80569595218213 0 0,0 -0.21875887875616026,1.4045889286456343 l -60.98557017167686 -10.035152364018211" fill="red" stroke="none" /><path d="M 120.43855184770803 104.8234425847677 l 49.056836175758406 11.577279762639392 a71.40443018503055,71.40443018503055 0 0,0 -0.2917805129462827,1.1905640631650498 l -48.85086813629583 -12.417699650412542" fill="red" stroke="none" /><path d="M 120.05942366710727 106.21446072829308 l 55.55419166523524 17.21083058641321 a79.15909989891443,79.15909989891443 0 0,0 -0.4132681150587696,1.2945564843049757 l -55.250558834399214 -18.16195610440957" fill="red" stroke="none" /><path d="M 119.94978838288452 106.5578916946017 l 56.20363842707691 18.475252297088865 a80.16235221729004,80.16235221729004 0 0,0 -0.4409485867689453,1.303586145353196 l -55.8782044187356 -19.43734011691622" fill="red" stroke="none" /><path d="M 119.58574465831526 107.57618678355244 l 55.44488195784051 21.44727143301529 a80.4484683338461,80.4484683338461 0 0,0 -0.5092821893927276,1.283723805018982 l -55.068541093481656 -22.395896255247834" fill="red" stroke="none" /><path d="M 119.0197475246899 108.90220220490707 l 54.70862814786533 25.606400373777227 a81.40464993627214,81.40464993627214 0 0,0 -0.6032500965998225,1.2605606872877364 l -54.260998793305596 -26.541773563130064" fill="red" stroke="none" /><path d="M 118.70294669586154 109.54985784667822 l 43.43690116685325 22.179191235969654 a69.77172241023163,69.77172241023163 0 0,0 -0.5538277685478723,1.0620377711190614 l -43.04976532933043 -22.921575250193218" fill="red" stroke="none" /><line stroke="#e1ed5e" stroke-width="0.3" x1="174.33088141563837" x2="178.70328620479359" y1="141.23008692659167" y2="143.65538615756765" /><path d="M 175.20536237346943 141.71514677278685 a86.0,86.0 0 0,1 -30.301960400862466,31.631185727798858" fill="none" id="id113" stroke="none" /><text fill="#e1ed5e" style="font-size:6.75px; font-family:Arial;" text-anchor="middle"><textPath startOffset="22.145653131862474" xlink:href="#id113">May</textPath></text><path d="M 118.18653347947321 110.5 l 52.437451869527564 30.27477695248977 a81.54955390497956,81.54955390497956 0 0,0 -0.7103598731624102,1.2063463641316288 l -51.910018286235385 -31.170474484914948" fill="red" stroke="none" /><path d="M 117.62189284568427 111.42229804090321 l 50.32846054547098 32.622300074364425 a80.97639871665275,80.97639871665275 0 0,0 -0.7660967356766635,1.1599681006480087 l -49.76103937087359 -33.48144805335149" fill="red" stroke="none" /><path d="M 117.423217284605 111.72311816256416 l 49.35978389435915 33.21146546128963 a80.49277018415154,80.49277018415154 0 0,0 -0.7812025083664695,1.1397978062264897 l -48.782391649177356 -34.05389800258616" fill="red" stroke="none" /><path d="M 117.21940702142032 112.02048342749411 l 48.83158346811957 34.08823771263702 a80.55276227310684,80.55276227310684 0 0,0 -0.8012502766932107,1.1270588574902043 l -48.2392180928964 -34.92147379683672" fill="red" stroke="none" /><path d="M 117.01052211995028 112.31430620078461 l 48.87394464675032 35.3809668731109 a81.33635125038458,81.33635125038458 0 0,0 -0.8284610127084591,1.1239664742834317 l -48.25938161445803 -36.21473965666321" fill="red" stroke="none" /><path d="M 116.79662413953412 112.60449989151573 l 48.863980356174636 36.668441823900544 a82.09225157122137,82.09225157122137 0 0,0 -0.8555108062330854,1.1198911076249358 l -48.227317572587246 -37.50185384476636" fill="red" stroke="none" /><path d="M 116.57777611688842 112.89097897827486 l 48.54790041842873 37.7511410047207 a82.49835186568805,82.49835186568805 0 0,0 -0.8789357490047033,1.1105066063018534 l -47.892698238782465 -38.578967554937236" fill="red" stroke="none" /><path d="M 116.35404254752997 113.17365903436017 l 46.98561777928337 37.848287745621434 a81.33358238474048,81.33358238474048 0 0,0 -0.8851928074642651,1.0797912947692048 l -46.32897815258048 -38.64928132208913" fill="red" stroke="none" /><path d="M 115.89218393027572 113.72728997021213 l 45.905243460181566 39.65185596238964 a81.65938557552852,81.65938557552852 0 0,0 -0.9254300138531266,1.0529694769203195 l -45.217802382369854 -40.43403771712125" fill="red" stroke="none" /><path d="M 115.6541949942343 113.99807769240083 l 46.00488096863997 41.137848242331394 a82.71524634114184,82.71524634114184 0 0,0 -0.955567092275776,1.0503356251273002 l -45.29191617552231 -41.92152144301637" fill="red" stroke="none" /><path d="M 115.41159269507618 114.26474011684316 l 44.431690151580554 41.125309077684726 a81.54309321847668,81.54309321847668 0 0,0 -0.9596618946688978,1.0191276760824364 l -43.719172423175394 -41.881978213711655" fill="red" stroke="none" /><path d="M 115.16444852881244 114.52719865689866 l 40.85330292579511 39.13654006381211 a77.57438579527974,77.57438579527974 0 0,0 -0.9294637789862725,0.9537117185297181 l -40.17545234565803 -39.832074474409566" fill="red" stroke="none" /><path d="M 114.91283532996324 114.78537596483092 l 44.738505989889745 44.356127894492765 a84.0,84.0 0 0,0 -1.0240323194801406,1.015279959085353 l -43.97048175027964 -45.117587863806776" fill="red" stroke="none" /><path d="M 114.13192950727249 115.5334660781643 l 41.98896683556672 46.15322993663338 a83.39546433437349,83.39546433437349 0 0,0 -1.0672037081404668,0.9543001365238344 l -41.19049810060287 -46.8672256030406" fill="red" stroke="none" /><path d="M 113.86319453409587 115.77377054828091 l 39.86650910035719 45.36076916206956 a81.389882652837,81.389882652837 0 0,0 -1.057372863208902,0.9133334954832919 l -39.081956757385434 -46.03844679001757" fill="red" stroke="none" /><path d="M 113.59037401385874 116.0094264158162 l 39.19424921616472 46.1707270241042 a81.56339823320002,81.56339823320002 0 0,0 -1.0751829535202049,0.8969558600334113 l -38.39589192848263 -46.83674506804948" fill="red" stroke="none" /><line stroke="#e1ed5e" stroke-width="0.3" x1="143.1302829299769" x2="145.66735839644613" y1="173.24464959558577" y2="177.55315839532614" /><path d="M 143.63769802327073 174.10635135553383 a86.0,86.0 0 0,1 -40.68552437913181,11.842963189579606" fill="none" id="id114" stroke="none" /><text fill="#e1ed5e" style="font-size:6.75px; font-family:Arial;" text-anchor="middle"><textPath startOffset="21.407464694133747" xlink:href="#id114">June</textPath></text><path d="M 110.34350942703117 118.27599006163325 l 30.45091352613964 53.80384645050947 a82.82323210126137,82.82323210126137 0 0,0 -1.243357394077113,0.6896693872357923 l -29.522811943906433 -54.3186487531784" fill="red" stroke="none" /><path d="M 109.71004243097381 118.62028667847754 l 27.43930902229697 52.618493058764585 a80.34325143937063,80.34325143937063 0 0,0 -1.228382426485855,0.627220819534989 l -26.531999374097534 -53.08177182997241" fill="red" stroke="none" /><path d="M 108.73861861582097 119.09545874513695 l 25.054828990537366 54.74932302104138 a81.2099063859711,81.2099063859711 0 0,0 -1.2726234165224914,0.5692282670941496 l -24.11129217115925 -55.17135503904537" fill="red" stroke="none" /><path d="M 108.4095320186766 119.2426549942271 l 23.813763349683633 54.4905508694698 a80.46692743814003,80.46692743814003 0 0,0 -1.2704767022520604,0.5422909569768705 l -22.87485157226114 -54.89131647610608" fill="red" stroke="none" /><path d="M 107.407793817531 119.65005319985036 l 19.859060321185694 52.67851690024492 a77.29749923087066,77.29749923087066 0 0,0 -1.2456339185587335,0.45741402872234616 l -18.951837250972837 -53.01166177797599" fill="red" stroke="none" /><path d="M 107.06938296918513 119.77432235084164 l 16.261476106061224 45.486242833839505 a69.30563002680967,69.30563002680967 0 0,0 -1.123722237567234,0.39088892629508093 l -15.478248096448969 -45.75869019270317" fill="red" stroke="none" /><path d="M 105.3480935250658 120.30758222061773 l 12.536158751191472 47.601836687664296 a70.22489342064782,70.22489342064782 0 0,0 -1.1683907640469031,0.2970003632641766 l -11.717162693919171 -47.81002228276374" fill="red" stroke="none" /><path d="M 104.9986988182912 120.39639698878246 l 11.738692711244035 47.89787210058561 a70.31534303168813,70.31534303168813 0 0,0 -1.174828236598572,0.27725626494582417 l -10.914732320905582 -48.09232450917766" fill="red" stroke="none" /><line stroke="#e1ed5e" stroke-width="0.3" x1="101.45913802915013" x2="101.54496967792366" y1="184.9874750549273" y2="189.98673829345242" /><path d="M 101.47630435890484 185.9873277026323 a86.0,86.0 0 0,1 -42.54439059252881,-10.42667462771756" fill="none" id="id115" stroke="none" /><text fill="#e1ed5e" style="font-size:6.75px; font-family:Arial;" text-anchor="middle"><textPath startOffset="22.145653131862474" xlink:href="#id115">July</textPath></text><path d="M 91.92203290615298 119.3841803445677 l -18.162911200901842 43.58437490650634 a68.21746582868192,68.21746582868192 0 0,0 -1.0770723299786003,-0.45973813098818345 l 18.908418606050876 -43.26616212585875" fill="red" stroke="none" /><line stroke="#e1ed5e" stroke-width="0.3" x1="58.13341422392154" x2="55.670673884152215" y1="173.97424548756322" y2="178.32567169271397" /><path d="M 57.64086615596767 174.84453072859336 a86.0,86.0 0 0,1 -31.369924170532244,-30.572349798747897" fill="none" id="id116" stroke="none" /><text fill="#e1ed5e" style="font-size:6.75px; font-family:Arial;" text-anchor="middle"><textPath startOffset="22.145653131862474" xlink:href="#id116">August</textPath></text><path d="M 88.72937992617639 117.7192867562869 l -26.163214128212342 41.13291820390989 a69.7486485298642,69.7486485298642 0 0,0 -1.004760395759036,-0.6512735493603031 l 26.86546015622839 -40.67773081284569" fill="red" stroke="none" /><path d="M 82.576782715395 111.72311816256416 l -39.926451422638976 26.86429837806423 a69.12288489429966,69.12288489429966 0 0,0 -0.6539537114187148,-0.9901692687361173 l 40.38172957297842 -26.174949230989053" fill="red" stroke="none" /><line stroke="#e1ed5e" stroke-width="0.3" x1="26.387840678322732" x2="22.057713659400548" y1="142.50000000000003" y2="145.00000000000006" /><path d="M 25.521815274538298 143.00000000000003 a86.0,86.0 0 0,1 -11.493303480769221,-40.785679425670985" fill="none" id="id117" stroke="none" /><text fill="#e1ed5e" style="font-size:6.75px; font-family:Arial;" text-anchor="middle"><textPath startOffset="21.40746469413373" xlink:href="#id117">September</textPath></text><path d="M 81.4637452351635 109.86951160357371 l -45.67790042674011 24.320909159265803 a72.74917593284403,72.74917593284403 0 0,0 -0.5774619341298532,-1.1073593999040512 l 46.08867042984491 -23.53320351625725" fill="red" stroke="none" /><path d="M 81.1358732173502 109.22738970284198 l -42.04114362477946 20.56443005545251 a67.80121302685362,67.80121302685362 0 0,0 -0.5024416705931924,-1.049909848626354 l 42.38796455333256 -19.839707704761054" fill="red" stroke="none" /><path d="M 80.9802524753101 108.90220220490708 l -42.8159569381891 20.04002975147631 a68.27376609677844,68.27376609677844 0 0,0 -0.48772026463661655,-1.0657567977248197 l 43.15366166768077 -19.302083971536803" fill="red" stroke="none" /><path d="M 79.22317932658666 103.0534771498775 l -46.48189261806178 6.831237522973422 a67.98118929371952,67.98118929371952 0 0,0 -0.15977354584491127,-1.1560417866309716 l 46.5923106804619 -6.0323074281423645" fill="red" stroke="none" /><path d="M 79.13060592940153 102.33845913500099 l -46.50555476471473 5.211044412690844 a67.79659825078012,67.79659825078012 0 0,0 -0.1196694140494325,-1.157693025587175 l 46.588156571245825 -4.411946864820738" fill="red" stroke="none" /><path d="M 79.03789590574601 101.26102812881392 l -47.00696335433226 2.827822186809325 a68.09194391948316,68.09194391948316 0 0,0 -0.06017515475989517,-1.1673819264201781 l 47.048580098548726 -2.020468467012416" fill="red" stroke="none" /><path d="M 79.01933749520258 100.90099992219065 l -47.45707275840128 2.038010899462223 a68.50081307959391,68.50081307959391 0 0,0 -0.04036757156335114,-1.1752578011829469 l 47.48506501696148 -1.2230468337151563" fill="red" stroke="none" /><path d="M 79.00696218219943 100.54070618675478 l -54.078316379243496 1.3928656009348448 a75.0962510438184,75.0962510438184 0 0,0 -0.022130394584210372,-1.2889845375193625 l 54.09425820542637 -0.4643341474464299" fill="red" stroke="none" /><line stroke="#e1ed5e" stroke-width="0.3" x1="15.003131293944662" x2="10.003315487706104" y1="100.72959589197737" y2="100.7725132973878" /><path d="M 14.003168132696942 100.73817937305945 a86.0,86.0 0 0,1 10.791469493833615,-42.45332614584628" fill="none" id="id118" stroke="none" /><text fill="#e1ed5e" style="font-size:6.75px; font-family:Arial;" text-anchor="middle"><textPath startOffset="22.145653131862435" xlink:href="#id118">October</textPath></text><path d="M 79.00696218219943 99.45929381324524 l -50.01312389362713 -1.2881606627358413 a71.02971036786359,71.02971036786359 0 0,0 0.04185785230120798,-1.2186456988269003 l 49.98364135432907 2.14651262612688" fill="red" stroke="none" /><path d="M 79.01933749520258 99.09900007780938 l -47.569569608292944 -2.0428419982406645 a68.61341361578692,68.61341361578692 0 0,0 0.060635995174662866,-1.1763221073520789 l 47.527492023661715 2.8591358989694555" fill="red" stroke="none" /><path d="M 79.13060592940154 97.66154086499901 l -49.62958923069539 -5.561098990716331 a70.94018371203796,70.94018371203796 0 0,0 0.14599460668524472,-1.2090447767024497 l 49.52681253775047 6.4122374443422165" fill="red" stroke="none" /><path d="M 79.2786578344484 96.59031103205396 l -46.51350721941647 -7.653779912489606 a68.13901463543269,68.13901463543269 0 0,0 0.1998263643915447,-1.1525453680205424 l 46.37526603753268 8.45111831343074" fill="red" stroke="none" /><path d="M 79.407916724674 95.88100663000787 l -46.195302009513696 -9.240354176790243 a68.11040302377708,68.11040302377708 0 0,0 0.23917223979277574,-1.144525748733879 l 46.02987205889655 10.03199637680953" fill="red" stroke="none" /><path d="M 79.48165901384962 95.52812308129327 l -46.53757767904347 -10.14264845368871 a68.63002680965148,68.63002680965148 0 0,0 0.2607586052579366,-1.1489505279580403 l 46.356608212227876 10.940033315585756" fill="red" stroke="none" /><path d="M 79.73907114497095 94.47779374421319 l -45.055255011554735 -12.280010105218885 a67.69876499802223,67.69876499802223 0 0,0 0.3152232060092913,-1.1186159531364648 l 44.83781331347086 13.051633982258362" fill="red" stroke="none" /><path d="M 79.83685265289637 94.1308016681162 l -50.397677351431945 -14.670029373382128 a73.48938601503099,73.48938601503099 0 0,0 0.36298045515013366,-1.2082438821998083 l 50.13842057627818 15.53301085917266" fill="red" stroke="none" /><path d="M 80.16572619554312 93.10060997987247 l -47.54106229831958 -16.537249309000778 a71.33520854392827,71.33520854392827 0 0,0 0.41224898946528493,-1.1531337942828892 l 47.250173138810354 17.35091805966459" fill="red" stroke="none" /><path d="M 80.5471966667186 92.08871423366112 l -45.07582077706655 -18.33194389569219 a69.66096778446799,69.66096778446799 0 0,0 0.4600083750610797,-1.103852639977637 l 44.754486557468994 19.103029045111093" fill="red" stroke="none" /><path d="M 80.9802524753101 91.09779779509293 l -46.29339506514862 -21.66764638103782 a72.1132597899178,72.1132597899178 0 0,0 0.5343961428303408,-1.1166824056673204 l 45.914619664358376 22.459141288770226" fill="red" stroke="none" /><path d="M 81.1358732173502 90.77261029715801 l -46.02240046169257 -22.51186227771101 a72.23324396782843,72.23324396782843 0 0,0 0.5544076443681837,-1.1091866716940557 l 45.62917290411264 23.298580805568836" fill="red" stroke="none" /><path d="M 81.46374523516351 90.13048839642627 l -45.281969348829016 -24.11009816118483 a72.3006196985013,72.3006196985013 0 0,0 0.5927089479423406,-1.090517706013809 l 44.86141505127133 24.88387070067326" fill="red" stroke="none" /><line stroke="#e1ed5e" stroke-width="0.3" x1="26.387840678322718" x2="22.05771365940052" y1="57.49999999999999" y2="54.99999999999999" /><path d="M 25.521815274538284 56.99999999999999 a86.0,86.0 0 0,1 29.574782752854787,-30.34633250058573" fill="none" id="id119" stroke="none" /><text fill="#e1ed5e" style="font-size:6.75px; font-family:Arial;" text-anchor="middle"><textPath startOffset="21.40746469413373" xlink:href="#id119">November</textPath></text><path d="M 82.576782715395 88.27688183743585 l -47.332065379454136 -31.84712595025944 a78.04878477563399,78.04878477563399 0 0,0 0.7574830174460442,-1.1051903601080115 l 46.77839262519278 32.654951045437485" fill="red" stroke="none" /><path d="M 82.78059297857968 87.97951657250589 l -47.226416576174216 -32.96770655851604 a78.59517426273459,78.59517426273459 0 0,0 0.7817783443757605,-1.0996691461488195 l 46.653523133268486 33.77355293137438" fill="red" stroke="none" /><path d="M 82.98947788004972 87.6856937992154 l -45.846097128366 -33.18903877074293 a77.59838263086186,77.59838263086186 0 0,0 0.7903874918239728,-1.0723124309722254 l 45.269607616958204 33.97115751098402" fill="red" stroke="none" /><path d="M 83.2033758604659 87.39550010848427 l -45.20021533158414 -33.91908424636826 a77.51162484068035,77.51162484068035 0 0,0 0.8077745632589378,-1.057402833217776 l 44.611288790970896 34.69000799282692" fill="red" stroke="none" /><path d="M 83.8745106332314 86.54754324733833 l -43.78609344076377 -36.527916454662844 a78.02201907440778,78.02201907440778 0 0,0 0.8668076769624259,-1.021097263904836 l 43.15259120029423 37.27418050101724" fill="red" stroke="none" /><path d="M 84.10781606972428 86.27271002978789 l -37.26313069398363 -32.18700478665743 a70.23966070408298,70.23966070408298 0 0,0 0.7960124818511508,-0.9057160823507582 l 36.705107148173894 32.82193314681949" fill="red" stroke="none" /><path d="M 85.08716467003674 85.21462403516908 l -40.16955354031502 -39.82622608590328 a77.56607919834747,77.56607919834747 0 0,0 0.9455972856483298,-0.9375153061298315 l 39.47996433453671 40.50992140226178" fill="red" stroke="none" /><path d="M 85.60350026404147 84.71141617570332 l -38.60410679428215 -40.996223631520635 a77.31134355909111,77.31134355909111 0 0,0 0.9740133259740125,-0.9015321933469168 l 37.894663696994186 41.652873570999915" fill="red" stroke="none" /><path d="M 85.86807049272753 84.46653392183569 l -37.80584613801119 -41.55524751513134 a77.17936096338944,77.17936096338944 0 0,0 0.9876568332516293,-0.8831688304878585 l 37.08692427793617 42.198111875502605" fill="red" stroke="none" /><path d="M 86.13680546590413 84.22622945171909 l -34.21594582917515 -38.931465419057325 a72.83039599173736,72.83039599173736 0 0,0 0.9461726915973112,-0.8172814357319774 l 33.54259365781498 39.51309098725401" fill="red" stroke="none" /><path d="M 86.68645165197937 83.75963576809568 l -35.47607448653552 -43.275042544549144 a76.95785171186216,76.95785171186216 0 0,0 1.0288503611057405,-0.8287690224110582 l 34.72797335507453 43.8776598607536" fill="red" stroke="none" /><path d="M 88.12776184653039 82.6780497279521 l -32.01950926417011 -46.717420931051734 a77.63714674987915,77.63714674987915 0 0,0 1.105788513068934,-0.7440238613661524 l 31.212824463004193 47.26019446647499" fill="red" stroke="none" /><path d="M 88.4268655584334 82.4767994020092 l -31.878128372359836 -48.26754938152671 a78.84437217070277,78.84437217070277 0 0,0 1.1357883522529468,-0.7362042877247879 l 31.044854387849863 48.80766751095541" fill="red" stroke="none" /><line stroke="#e1ed5e" stroke-width="0.3" x1="56.869717070023135" x2="54.33264160355391" y1="26.7553504044142" y2="22.446841604673864" /><path d="M 56.362301976729285 25.89364864446614 a86.0,86.0 0 0,1 42.16139366436587,-11.88097634709845" fill="none" id="id120" stroke="none" /><text fill="#e1ed5e" style="font-size:6.75px; font-family:Arial;" text-anchor="middle"><textPath startOffset="22.145653131862474" xlink:href="#id120">December</textPath></text><path d="M 89.34428304082924 81.90426304109057 l -29.04435698034773 -49.32366785556389 a78.23983650507625,78.23983650507625 0 0,0 1.1631936319169365,-0.6715701565068981 l 28.193370880570395 49.81498490934696" fill="red" stroke="none" /><path d="M 89.97174638481275 81.54914285379989 l -27.18554525725686 -50.01834130157646 a77.92880059772338,77.92880059772338 0 0,0 1.180848377263545,-0.6287352493434739 l 26.32290806420675 50.47764701864251" fill="red" stroke="none" /><path d="M 92.93061703081487 80.22567764915836 l -19.33182474147139 -54.074554417851154 a78.42627345844505,78.42627345844505 0 0,0 1.2716044491724103,-0.44233003601061666 l 18.400714520253977 54.39844288643035" fill="red" stroke="none" /><path d="M 93.95794788825049 79.88797359093562 l -16.32466723376262 -54.339507910923096 a77.7386718234958,77.7386718234958 0 0,0 1.2813553763073244,-0.37298387536972244 l 15.389451845073673 54.61173548059534" fill="red" stroke="none" /><path d="M 94.6519064749342 79.69241777938228 l -14.957174147322888 -56.794826485597 a79.73133213202655,79.73133213202655 0 0,0 1.3265574005247336,-0.33720570375102776 l 13.980011453572775 57.043217421183286" fill="red" stroke="none" /><path d="M 95.35216902796891 79.52079915486377 l -12.691501704930854 -55.921098251145516 a78.3432074891223,78.3432074891223 0 0,0 1.3140677181083538,-0.28639494305084806 l 11.729671570203381 56.13072465233007" fill="red" stroke="none" /><path d="M 96.05791012581881 79.37332000966035 l -9.407444995749577 -49.22372742563452 a71.1146222476157,71.1146222476157 0 0,0 1.2010422118032318,-0.21886989981165916 l 8.561068050395306 49.377965499377545" fill="red" stroke="none" /><path d="M 97.12497278360702 79.19773525538626 l -8.155913800786777 -59.0121293985777 a80.57306728783018,80.57306728783018 0 0,0 1.3717456435087922,-0.17759993685675488 l 7.141690335387191 59.14344093163485" fill="red" stroke="none" /><path d="M 97.48249496171623 79.15144685158666 l -6.808870260884594 -56.38721327504331 a77.79681800202172,77.79681800202172 0 0,0 1.3272288980867164,-0.1487187663651791 l 5.839905461197078 56.49578780191546" fill="red" stroke="none" /><path d="M 98.1996594967304 79.07731436759882 l -4.821348740198043 -56.03138063723911 a77.23843009713005,77.23843009713005 0 0,0 1.3219945986569321,-0.10233074281421968 l 3.858785146765894 56.10588914704839" fill="red" stroke="none" /><path d="M 98.5590905019552 79.04949213459386 l -3.975245946084858 -57.79920360951407 a78.93574473695776,78.93574473695776 0 0,0 1.3526415982010866,-0.08137155964237855 l 2.9824599957512876 57.858927146981145" fill="red" stroke="none" /><path d="M 98.9189461498227 79.02784411241856 l -3.001655080156494 -58.231306656434114 a79.30861864369535,79.30861864369535 0 0,0 1.3602343522758378,-0.058414315814924414 l 2.001594967279836 58.27425354067486" fill="red" stroke="none" /><path d="M 99.27912038922189 79.0123766808444 l -1.9669339426153403 -57.26513562606332 a78.29890563881686,78.29890563881686 0 0,0 1.3437087197647977,-0.034609170158173594 l 0.9836119087797988 57.29046251357153" fill="red" stroke="none" /></svg>