<?xml version="1.0" encoding="utf-8" ?>
<svg baseProfile="full" height="200mm" version="1.1" viewBox="0,0,200,200" width="200mm" xmlns="http://www.w3.org/2000/svg" xmlns:ev="http://www.w3.org/2001/xml-events" xmlns:xlink="http://www.w3.org/1999/xlink"><defs /><rect fill="#2b2b2b" height="200" width="200" x="0" y="0" /><text alignment-baseline="middle" fill="#e1ed5e" style="dominant-baseline: central; font-size:9.0px; font-family:Arial;" text-anchor="middle" x="100.0" y="100.0">2021</text><line stroke="#e1ed5e" stroke-width="0.3" x1="100.0" x2="100.0" y1="15.0" y2="10.0" /><path d="M 100.0 14.0 a86.0,86.0 0 0,1 42.46469731375804,11.215312516191453" fill="none" id="id73" stroke="none" /><text fill="#e1ed5e" style="font-size:6.75px; font-family:Arial;" text-anchor="middle"><textPath startOffset="22.20632615414155" xlink:href="#id73">January</textPath></text><path d="M 100.72285384407766 79.0124445844662 l 0.7130538013302569 -20.70301803370916 a41.715293901552016,41.715293901552016 0 0,0 0.7174219439104248,0.03089369804192987 l -1.069316577630013 20.687676609143033" fill="#ff2c04" stroke="none" /><path d="M 103.2404852339499 79.25152402106235 l 3.713710217876494 -23.77848429644686 a45.06673968402721,45.06673968402721 0 0,0 0.7654280866587926,0.12630219273962476 l -4.122467510674162 23.71103584076761" fill="#ff6d0a" stroke="none" /><path d="M 104.307194497241 79.44645832069477 l 4.386587797674105 -20.93239931170483 a42.38708707260912,42.38708707260912 0 0,0 0.712824200077613,0.15579576081144975 l -4.746254721905245 20.85379005279751" fill="#ff3905" stroke="none" /><path d="M 105.71112130821622 79.79150937346287 l 6.026361030279917 -21.323949154667424 a43.15914788113744,43.15914788113744 0 0,0 0.713173643308377,0.20819494299066763 l -6.392524891311721 21.217055882758054" fill="#ff4806" stroke="none" /><path d="M 106.74666289553966 80.11325718540242 l 7.175434605609969 -21.15060805529026 a43.33461624671206,43.33461624671206 0 0,0 0.7043278272388029,0.2457261490842033 l -7.538444436912046 21.023961053033847" fill="#ff4c07" stroke="none" /><path d="M 108.09893153111575 80.62456947434976 l 8.88529782803788 -21.256689244185 a44.03899639994731,44.03899639994731 0 0,0 0.6968987521103012,0.298375675991879 l -9.249880337938496 21.100594040230334" fill="#ff5a08" stroke="none" /><path d="M 109.41281617654863 81.2277094730956 l 10.014401055574044 -19.97205114198938 a43.342136319522396,43.342136319522396 0 0,0 0.6640418003002297,0.3401480016372304 l -10.35670334346303 19.796710615039647" fill="#ff4c07" stroke="none" /><path d="M 110.36928655335952 81.73862282372117 l 11.077797132687797 -19.50913697690905 a43.434883884183265,43.434883884183265 0 0,0 0.6469796954267418,0.3747723992409498 l -11.411973560579868 19.31556042027805" fill="#ff4e07" stroke="none" /><line stroke="#e1ed5e" stroke-width="0.3" x1="143.23703022742887" x2="145.7803849466894" y1="26.81831364943548" y2="22.513508569990506" /><path d="M 143.74570117128098 25.957352633546492 a86.0,86.0 0 0,1 28.547481713284135,27.462654790039103" fill="none" id="id74" stroke="none" /><text fill="#e1ed5e" style="font-size:6.75px; font-family:Arial;" text-anchor="middle"><textPath startOffset="19.985693538727396" xlink:href="#id74">February</textPath></text><path d="M 111.2981086023043 82.29822771554956 l 12.322274125102377 -19.30642537323906 a43.903635089361174,43.903635089361174 0 0,0 0.6335356723814647,0.41206922425812303 l -12.652776823268121 19.091457224821404" fill="#ff5708" stroke="none" /><path d="M 112.19680574252982 82.90503203632743 l 12.069301419017464 -16.916258687515704 a41.7804678659083,41.7804678659083 0 0,0 0.5818520720149957,0.4227402753269297 l -12.358698807386247 16.705999177372096" fill="#ff2d04" stroke="none" /><path d="M 115.4437574822437 85.77008943001954 l 15.921991539362605 -14.670556434314017 a42.65028962097105,42.65028962097105 0 0,0 0.49282685743316745,0.5441917250516988 l -16.17216203741181 14.39431192199277" fill="#ff3f05" stroke="none" /><path d="M 116.15771136456269 86.58626213691792 l 17.66482750110355 -14.664908918725395 a43.958782289970344,43.958782289970344 0 0,0 0.4783165733210989,0.5863595621034168 l -17.91464256650106 14.358665187013877" fill="#ff5808" stroke="none" /><path d="M 117.45458315368197 88.32363383020206 l 18.29510703941185 -12.23864053509398 a43.011253115867405,43.011253115867405 0 0,0 0.4063608255076204,0.6189154160618626 l -18.503064500277397 11.921907055054444" fill="#ff4606" stroke="none" /><line stroke="#e1ed5e" stroke-width="0.3" x1="172.23445277983987" x2="176.4835382374775" y1="55.19839476539836" y2="52.563006222186495" /><path d="M 173.08426987136738 54.67131705675599 a86.0,86.0 0 0,1 12.851231095245387,41.99856678651699" fill="none" id="id75" stroke="none" /><text fill="#e1ed5e" style="font-size:6.75px; font-family:Arial;" text-anchor="middle"><textPath startOffset="22.20632615414155" xlink:href="#id75">March</textPath></text><path d="M 119.85752413597 93.16781622104841 l 40.97880704483431 -14.099176657444245 a64.33646742912467,64.33646742912467 0 0,0 0.3512854030756098,1.05029864274602 l -41.215429741681696 13.39170491177591" fill="#52ff2b" stroke="none" /><path d="M 120.18372546131832 94.20196356495316 l 41.365681667886044 -11.882827574651689 a64.03860140638618,64.03860140638618 0 0,0 0.295227800503128,1.0620914768906435 l -41.564096238955536 11.169024794342093" fill="#56ff2a" stroke="none" /><path d="M 120.53481517161879 95.60439243477599 l 39.799862063227785 -8.519413168217246 a61.70146706179953,61.70146706179953 0 0,0 0.2133716181478814,1.0404757874768864 l -39.94061297729066 7.8330617245769485" fill="#78ff26" stroke="none" /><path d="M 120.73433829027371 96.67025291283417 l 40.58389165311424 -6.5174057221397295 a62.10387863765043,62.10387863765043 0 0,0 0.16041759098349986,1.0569514928090797 l -40.69006513753704 5.817855116938568" fill="#72ff27" stroke="none" /><path d="M 120.83666639777658 97.38593545837742 l 42.065139095167 -5.277283153068635 a63.39487757469538,63.39487757469538 0 0,0 0.12651699716838957,1.0839203691106547 l -42.14974644533898 4.552419045633128" fill="#60ff29" stroke="none" /><path d="M 120.91429891909075 98.10471618934814 l 40.74267213356555 -3.6921594740599946 a61.90962446863953,61.90962446863953 0 0,0 0.08704350566561049,1.0621512422354384 l -40.800190123050655 2.9902943146167873" fill="#75ff27" stroke="none" /><path d="M 120.96714384426684 98.82574320788733 l 41.57281931523028 -2.3282696876012614 a62.637965194699255,62.637965194699255 0 0,0 0.05102426533700656,1.0770415969305243 l -41.60673718880078 1.6123169840477374" fill="#6bff28" stroke="none" /><line stroke="#e1ed5e" stroke-width="0.3" x1="184.98032266829074" x2="189.97916517819016" y1="98.17113171792111" y2="98.06355123074" /><path d="M 185.9800911702706 98.14961562048488 a86.0,86.0 0 0,1 -9.607161424134198,41.387399972396054" fill="none" id="id76" stroke="none" /><text fill="#e1ed5e" style="font-size:6.75px; font-family:Arial;" text-anchor="middle"><textPath startOffset="21.466115282336823" xlink:href="#id76">April</textPath></text><path d="M 120.99513854157772 99.54816195383933 l 42.26917735142988 -0.9096783271740012 a63.27896484808448,63.27896484808448 0 0,0 0.014062975168778004,1.089192924764241 l -42.27857333371637 0.18194914434929765" fill="#61ff29" stroke="none" /><path d="M 120.9764740272857 100.99374915477107 l 40.868017142410196 1.9361002921468893 a61.91385229349083,61.91385229349083 0 0,0 -0.05959547073628395,1.0641171639691314 l -40.82863532078638 -2.639289172451444" fill="#75ff27" stroke="none" /><path d="M 120.95626037817324 101.35467743843564 l 40.36171710018625 2.609106135610562 a61.445959527526945,61.445959527526945 0 0,0 -0.07731493842328999,1.054900907781223 l -40.31082560309862 -3.3034801798885556" fill="#7cff26" stroke="none" /><path d="M 120.8583938346157 102.4346265915055 l 45.07288848015467 5.260982879114798 a66.37888514274891,66.37888514274891 0 0,0 -0.14223569758573892,1.133758456709536 l -44.97565127332208 -6.036059090111729" fill="#36ff2e" stroke="none" /><path d="M 120.81339534386255 102.79330883721812 l 45.15652774886452 6.060334026960346 a66.56138328510565,66.56138328510565 0 0,0 -0.16217506387762665,1.1342520190391692 l -45.04551863397029 -6.836731517979924" fill="#33ff2f" stroke="none" /><path d="M 120.64145759157962 103.86396538481128 l 41.9686732216962 7.856300838039812 a63.697669665302634,63.697669665302634 0 0,0 -0.21102148323376718,1.0759939967393657 l -41.82722180548677 -8.577558561847123" fill="#5bff2a" stroke="none" /><path d="M 120.5718875245553 104.21870165774334 l 45.781964585767 9.38856240887877 a67.73471285284457,67.73471285284457 0 0,0 -0.24405772189210972,1.1401564256806929 l -45.61357282515045 -10.175232653975632" fill="#31ff3e" stroke="none" /><path d="M 120.23288151984713 105.62410040840565 l 39.71681598287018 11.040017249679435 a62.2226570309386,62.2226570309386 0 0,0 -0.29572758686659945,1.0294665256972324 l -39.52089575911748 -11.722041250881249" fill="#71ff27" stroke="none" /><path d="M 120.02730092923936 106.31721596034902 l 35.77335480895177 11.283997217238676 a58.510818539266815,58.510818539266815 0 0,0 -0.3112434204865876,0.9579087512856925 l -35.573819137448936 -11.898104868502164" fill="#a9ff21" stroke="none" /><path d="M 119.9155931802556 106.66101706037122 l 36.77930477143943 12.301294484867888 a59.781943033760804,59.781943033760804 0 0,0 -0.334804983085701,0.9730999995857088 l -36.562108957410494 -12.932567187542897" fill="#95ff23" stroke="none" /><path d="M 119.67450827220406 107.3425965602758 l 33.14706832908985 12.370603957622377 a56.3802201956078,56.3802201956078 0 0,0 -0.34715642805094216,0.9063158873712014 l -32.9292176214454 -12.939343411826723" fill="#caff1d" stroke="none" /><path d="M 119.54520255179757 107.68017299344265 l 33.92003225708185 13.328678226135052 a57.4447835989915,57.4447835989915 0 0,0 -0.36955428994159856,0.9172034407083156 l -33.68557535288286 -13.91058103468618" fill="#b9ff1f" stroke="none" /><path d="M 119.41010516605496 108.01547362559984 l 31.340323655557516 12.94210080418338 a54.907430749921794,54.907430749921794 0 0,0 -0.3682694164941776,0.8704801155652379 l -31.11290325787103 -13.47965544541478" fill="#e2ff1b" stroke="none" /><path d="M 119.26925614724726 108.34839909993367 l 26.256129970838217 11.37545996281755 a49.61442731230548,49.61442731230548 0 0,0 -0.34625888802717136,0.780722382824475 l -26.05642999807977 -11.825730682134711" fill="#ffc111" stroke="none" /><path d="M 118.97047184881838 109.00673069616215 l 25.513160225672024 12.113044166319808 a49.242648312012584,49.242648312012584 0 0,0 -0.370132936748482,0.762583479456399 l -25.300874032308826 -12.550416601741482" fill="#ffba11" stroke="none" /><path d="M 118.81262510543309 109.33194174019688 l 34.32256420620314 17.025596786806368 a59.31330525595316,59.31330525595316 0 0,0 -0.46157424972861644,0.9107297842749782 l -34.024411286688256 -17.61388078278404" fill="#9cff22" stroke="none" /><path d="M 118.64920377521936 109.65438752849418 l 33.13807116058376 17.155037007864404 a58.31523891100137,58.31523891100137 0 0,0 -0.4691530164895143,0.8874607022676593 l -32.837865635869356 -17.7229127252182" fill="#acff21" stroke="none" /><line stroke="#e1ed5e" stroke-width="0.3" x1="174.80103733775053" x2="179.2010983576182" y1="140.37084112569926" y2="142.7455964860345" /><path d="M 175.68104954172406 140.8457921977663 a86.0,86.0 0 0,1 -30.038265399797805,32.042727171017184" fill="none" id="id77" stroke="none" /><text fill="#e1ed5e" style="font-size:6.75px; font-family:Arial;" text-anchor="middle"><textPath startOffset="22.206326154141568" xlink:href="#id77">May</textPath></text><path d="M 118.12598468904814 110.60418214915192 l 32.76057399596163 19.16580532994979 a58.95501682900969,58.95501682900969 0 0,0 -0.5199807900126406,0.8715177133003459 l -32.42581233025076 -19.726885137136243" fill="#a2ff22" stroke="none" /><path d="M 117.94076556474637 110.91462005526583 l 38.871949378032 23.648520278445766 a66.50034021640215,66.50034021640215 0 0,0 -0.6033650612064401,0.9728165942826826 l -38.459119677157595 -24.314133204093718" fill="#34ff2f" stroke="none" /><path d="M 117.75023020441432 111.22182372390056 l 53.25069061324299 33.66547117170166 a84.0,84.0 0 0,0 -0.783180546491808,1.2155136003141789 l -52.66330520337414 -34.5771063719373" fill="#4dd2ff" stroke="none" /><path d="M 117.55443506779137 111.5257021239791 l 30.572283724997273 20.072821147666016 a57.572977469546025,57.572977469546025 0 0,0 -0.5510471277922447,0.8237406889933027 l -30.222233491794302 -20.596098750865124" fill="#b7ff1f" stroke="none" /><path d="M 117.35343817320211 111.8261652097733 l 34.78213154220425 23.70361595556212 a63.09106893377714,63.09106893377714 0 0,0 -0.6193112245799977,0.8921640094212476 l -34.36895941046212 -24.29882122717039" fill="#64ff29" stroke="none" /><path d="M 117.14729908036423 112.12312394758627 l 29.85066247052593 21.104389638957684 a57.557588979064384,57.557588979064384 0 0,0 -0.5789202806913188,0.8040696360816108 l -29.48296239745901 -21.615092880490426" fill="#b8ff1f" stroke="none" /><path d="M 116.93607887273984 112.41649034213515 l 33.257670834643115 24.3824767127724 a62.23806300002899,62.23806300002899 0 0,0 -0.6408704717370156,0.8585507264474401 l -32.83303909621101 -24.951340318729155" fill="#70ff27" stroke="none" /><path d="M 116.71984013943494 112.70617746262583 l 33.74717076536067 25.646031124117115 a63.38620585857618,63.38620585857618 0 0,0 -0.6676474580156754,0.8630243392683046 l -33.30071649012693 -26.223133457498673" fill="#60ff29" stroke="none" /><path d="M 116.498646956653 112.99209946851258 l 28.752766008320364 22.641783714532394 a57.59743055058493,57.59743055058493 0 0,0 -0.6200832075786564,0.7736491436061792 l -28.358764888686853 -23.133360691716824" fill="#b7ff1f" stroke="none" /><path d="M 116.27256486870786 113.27417163493432 l 26.070296742199357 21.266567152858606 a54.64412654080018,54.64412654080018 0 0,0 -0.6008355905044835,0.7237451743892482 l -25.700365151801332 -21.712173584361626" fill="#e7ff1a" stroke="none" /><path d="M 115.80600337817218 113.82643327865902 l 31.63617326997301 27.674006416665787 a63.032107850040234,63.032107850040234 0 0,0 -0.7213909195127941,0.8104903454852553 l -31.15512350081188 -28.214470931891906" fill="#65ff29" stroke="none" /><path d="M 115.56566222782051 114.09645910891815 l 42.61155994178393 38.589563585222265 a78.48825496021041,78.48825496021041 0 0,0 -0.9155228563167206,0.9936192425716593 l -41.94099067747149 -39.31733408259526" fill="#43ffe3" stroke="none" /><path d="M 115.07121518719521 114.62390073753431 l 28.945966511841885 28.086848722113302 a61.33286561160203,61.33286561160203 0 0,0 -0.7417169625845376,0.7513553671424295 l -28.458208924201813 -28.5809445832364" fill="#7eff26" stroke="none" /><path d="M 114.29624159901734 115.38237550388516 l 24.056391179479895 25.884036711896766 a56.336854883859964,56.336854883859964 0 0,0 -0.7160158071486729,0.6540634632593834 l -23.60727582286436 -26.294292941742732" fill="#cbff1d" stroke="none" /><path d="M 114.0293411484842 115.62618273729858 l 32.67063011074228 36.3892524139173 a69.90345348824279,69.90345348824279 0 0,0 -0.902279315534613,0.7961565897421357 l -32.03940844230108 -36.94623214543172" fill="#35ff62" stroke="none" /><path d="M 113.75828350139079 115.86535959552629 l 29.076383186392178 33.52942065358617 a65.38083041772698,65.38083041772698 0 0,0 -0.8565963627608669,0.7300100038060305 l -28.494921347054262 -34.02495504761515" fill="#44ff2d" stroke="none" /><path d="M 113.20401910651253 116.32954008644616 l 22.503787682707628 27.830655204096125 a56.79058296755819,56.79058296755819 0 0,0 -0.7654356663419507,0.6081083863467603 l -22.021394523648326 -28.21389750444801" fill="#c4ff1e" stroke="none" /><path d="M 112.92097659922987 116.55440617244103 l 24.243710309147392 31.061137252469194 a60.4024331351579,60.4024331351579 0 0,0 -0.8251296569318797,0.6326742356017866 l -23.70545192372202 -31.473850829898353" fill="#8cff24" stroke="none" /><path d="M 112.34349029814194 116.9893568818739 l 21.92259984139127 30.173870071415152 a58.296954552515565,58.296954552515565 0 0,0 -0.8169143140209947,0.5828466726336861 l -21.39995819952139 -30.546761005893057" fill="#acff21" stroke="none" /><path d="M 112.04921762599082 117.19931262002967 l 23.695041384539195 33.82281214990653 a62.29694429304534,62.29694429304534 0 0,0 -0.8835579031769198,0.6077191825161823 l -23.10932659673939 -34.22567212178781" fill="#6fff27" stroke="none" /><path d="M 111.7513745106137 117.40417183066458 l 18.25495823171581 27.036193046135374 a53.62206667992676,53.62206667992676 0 0,0 -0.769413590310222,0.5099253728168881 l -17.786869942665625 -27.34641644004358" fill="#f8ff18" stroke="none" /><path d="M 111.1453310114006 117.79835938074945 l 16.260548982170754 25.967025494075962 a51.63807869647778,51.63807869647778 0 0,0 -0.7574096340022615,0.46526285905702025 l -15.811160148236185 -26.243076819961363" fill="#ffe415" stroke="none" /><line stroke="#e1ed5e" stroke-width="0.3" x1="143.8653032363475" x2="146.44561519142675" y1="172.8068346515853" y2="177.08958963109032" /><path d="M 144.38136562736335 173.6633856474863 a86.0,86.0 0 0,1 -40.68145358897372,12.25698825130547" fill="none" id="id78" stroke="none" /><text fill="#e1ed5e" style="font-size:6.75px; font-family:Arial;" text-anchor="middle"><textPath startOffset="21.466115282336833" xlink:href="#id78">June</textPath></text><path d="M 110.5260780823613 118.17145234162733 l 16.37792440423474 28.273652393386424 a53.674697052197345,53.674697052197345 0 0,0 -0.8034622477852056,0.45622683336902925 l -15.888813389528337 -28.55138239255008" fill="#f7ff19" stroke="none" /><path d="M 109.89434966115114 118.52300852407294 l 17.88864729940268 33.48896873050467 a58.96728498108795,58.96728498108795 0 0,0 -0.8994170396550101,0.47053248607301823 l -17.309539357221176 -33.791930635522405" fill="#a2ff22" stroke="none" /><path d="M 108.92500713936063 119.00905698771935 l 16.546959485484408 35.24278366634333 a59.93399117438307,59.93399117438307 0 0,0 -0.9376302020084697,0.4304200378847829 l -15.937861287708518 -35.52239077456218" fill="#93ff23" stroke="none" /><path d="M 108.59647513512805 119.15986991738527 l 14.708798647043604 32.783049364822034 a56.93156110295836,56.93156110295836 0 0,0 -0.8975648971737296,0.39346607392009136 l -14.14231307521212 -33.031379992036584" fill="#c2ff1e" stroke="none" /><path d="M 107.93186726928326 119.44442032107085 l 12.888846347547203 31.596109380944384 a55.123840466502045,55.123840466502045 0 0,0 -0.8816636295394541,0.35083215365735393 l -12.343061641965884 -31.813288379007805" fill="#dfff1b" stroke="none" /><path d="M 106.57524785965236 119.94407469862006 l 12.2497966523081 37.15614448174665 a60.12335096552098,60.12335096552098 0 0,0 -0.9856755428111844,0.3155821822004171 l -11.608399764405975 -37.36149951060678" fill="#90ff24" stroke="none" /><path d="M 106.2309692047433 120.05430185196036 l 12.90435737139207 41.53252398269996 a64.49106790528543,64.49106790528543 0 0,0 -1.062951072718703,0.3202584386895371 l -12.187531324233122 -41.74849779049523" fill="#50ff2b" stroke="none" /><path d="M 105.53697534728816 120.25689768951611 l 10.902522202042993 39.88662815929442 a62.34982583136063,62.34982583136063 0 0,0 -1.0377076198618627,0.27406801398330694 l -10.214324139369634 -40.06838752258131" fill="#6fff28" stroke="none" /><path d="M 105.18746579009965 120.34920634021253 l 9.754559117567663 38.26483764384931 a60.48859611949088,60.48859611949088 0 0,0 -1.0111582370591343,0.24851809331145353 l -9.094447595765317 -38.4270769954748" fill="#8aff24" stroke="none" /><path d="M 104.48393922423573 120.51570834832081 l 7.809415498512217 35.73101300578873 a57.57447553756918,57.57447553756918 0 0,0 -0.970016240424637,0.20327633447222915 l -7.193207796658202 -35.8601453209875" fill="#b7ff1f" stroke="none" /><path d="M 104.13013068566511 120.58985236759428 l 6.530048915189323 32.55411350143884 a54.202587921716706,54.202587921716706 0 0,0 -0.9163654326778099,0.17562361614081365 l -5.9687158679398085 -32.66169431592812" fill="#eeff19" stroke="none" /><path d="M 103.41894727170886 120.7198165907248 l 6.5334651212027275 39.59470218607854 a61.130120952898025,61.130120952898025 0 0,0 -1.0396898503642245,0.1623781723251813 l -5.850939407229985 -39.701298665750826" fill="#81ff25" stroke="none" /><path d="M 102.70371172650421 120.8252237178851 l 6.255019872314049 48.179022535505645 a69.58336635186784,69.58336635186784 0 0,0 -1.1891219997835565,0.143986114015744 l -5.424770449479112 -48.279554178246734" fill="#34ff5c" stroke="none" /><path d="M 101.98527174616119 120.90594882070398 l 4.775205668118335 50.285410800336805 a71.51163359594955,71.51163359594955 0 0,0 -1.2264438660555286,0.10582273736992315 l -3.9089174843212646 -50.360157789985394" fill="#37ff7b" stroke="none" /><path d="M 101.62511606390274 120.93702456842531 l 3.1992880172685596 41.21771564928036 a62.341692359679335,62.341692359679335 0 0,0 -1.0706064676649527,0.07383529022103248 l -2.4893187888246766 -41.26667928401767" fill="#6fff28" stroke="none" /><path d="M 101.26447882468166 120.96189622390904 l 2.5476190842547894 42.23315236270835 a63.3099222581441,63.3099222581441 0 0,0 -1.0883636820478593,0.05625597062890211 l -1.8202673337934505 -42.27074814009946" fill="#61ff29" stroke="none" /><path d="M 100.90346689309514 120.98055641714683 l 1.7052888871795668 39.600687062737485 a60.637386720489054,60.637386720489054 0 0,0 -1.0431930357022092,0.03592967742275949 l -1.0233754998027051 -39.62417353858634" fill="#88ff25" stroke="none" /><line stroke="#e1ed5e" stroke-width="0.3" x1="102.19456741930631" x2="102.32365962044197" y1="184.97166512339345" y2="189.96999836594603" /><path d="M 102.22038585953345 185.97133177190398 a86.0,86.0 0 0,1 -42.740103519485714,-10.115201625700543" fill="none" id="id79" stroke="none" /><text fill="#e1ed5e" style="font-size:6.75px; font-family:Arial;" text-anchor="middle"><textPath startOffset="22.20632615414155" xlink:href="#id79">July</textPath></text><path d="M 99.45781275523022 120.99299961872073 l -0.9151839549381424 35.435094798723306 a56.446911079329375,56.446911079329375 0 0,0 -0.971100961132991,-0.03344668060878359 l 1.5250052677457764 -35.414091319688424" fill="#c9ff1d" stroke="none" /><path d="M 98.73552117531835 120.96189622390904 l -1.8780899122533843 31.13403330398786 a52.19062762261018,52.19062762261018 0 0,0 -0.8962801837634785,-0.06181272903373389 l 2.413732856795793 -31.09709223043784" fill="#ffee16" stroke="none" /><path d="M 98.37488393609728 120.93702456842531 l -4.255248504806091 54.822079769444336 a75.98697636790891,75.98697636790891 0 0,0 -1.303197205549599,-0.11244533846268107 l 5.198290028097232 -54.740710178703" fill="#3fffbf" stroke="none" /><path d="M 97.65516085044442 120.86867818915974 l -4.74161830586494 42.19961379426749 a63.46516629596362,63.46516629596362 0 0,0 -1.0845670369097418,-0.13132596408328218 l 5.467312765826072 -42.11174230145886" fill="#5fff29" stroke="none" /><path d="M 97.2962882734958 120.8252237178851 l -4.4097090899558635 33.96559530695954 a55.25065253121744,55.25065253121744 0 0,0 -0.9420799518904718,-0.13056369707994162 l 4.9937176330331665 -33.884657044387" fill="#ddff1b" stroke="none" /><path d="M 96.93821686468263 120.77559828337769 l -5.470424968035221 37.11933424163914 a58.52026817432715,58.52026817432715 0 0,0 -0.9953019544705494,-0.15544569586977453 l 6.1085627861142875 -37.01967023842226" fill="#a8ff21" stroke="none" /><path d="M 96.58105272829116 120.7198165907248 l -4.221976036468048 25.58640487085663 a46.93239664720379,46.93239664720379 0 0,0 -0.7959533970087307,-0.1383867006576582 l 4.661778404948828 -25.509939591677966" fill="#ff900d" stroke="none" /><path d="M 96.22490169976321 120.6578951692458 l -4.607281303696032 25.211723408900042 a46.6292418588273,46.6292418588273 0 0,0 -0.788328141326325,-0.15108496452197587 l 5.040577059594052 -25.128681246029597" fill="#ff8a0c" stroke="none" /><path d="M 95.86986931433489 120.58985236759428 l -4.881434536389043 24.335311421299725 a45.82006819299038,45.82006819299038 0 0,0 -0.7719776840270364,-0.16177542948629883 l 5.299603681845466 -24.247680011086885" fill="#ff7b0b" stroke="none" /><path d="M 95.51606077576429 120.51570834832081 l -6.55400797188114 29.987051416068596 a51.69492259520169,51.69492259520169 0 0,0 -0.8676865996906772,-0.1974826451445584 l 7.0692147209646805 -29.86979203734635" fill="#ffe515" stroke="none" /><path d="M 94.81253420990036 120.34920634021253 l -8.413266168386379 33.00326135786145 a55.05874789059964,55.05874789059964 0 0,0 -0.9163599330760633,-0.2420189869912154 l 8.98011654427393 -32.85355102156665" fill="#e0ff1b" stroke="none" /><path d="M 94.46302465271185 120.25689768951611 l -8.056375689187888 29.47406622717096 a51.5552903636833,51.5552903636833 0 0,0 -0.8540227922305696,-0.24135537168745747 l 8.562529649523071 -29.33102206214498" fill="#ffe315" stroke="none" /><path d="M 94.11515582081647 120.15858648285463 l -9.342091478267623 32.00141809388148 a54.33714794651345,54.33714794651345 0 0,0 -0.8955927010395767,-0.26983473416427317 l 9.891559153747446 -31.835867990611483" fill="#ecff1a" stroke="none" /><path d="M 93.76903079525671 120.05430185196036 l -9.195638409727248 29.5960551770611 a51.99171256652488,51.99171256652488 0 0,0 -0.852363660420078,-0.27289992730927615 l 9.703723415238267 -29.433382403092118" fill="#ffea16" stroke="none" /><path d="M 93.42475214034765 119.94407469862007 l -10.130746268898575 30.728630258869433 a53.35553642811549,53.35553642811549 0 0,0 -0.8697721445102073,-0.2950739349147487 l 10.658188146346008 -30.54969333705656" fill="#fcff18" stroke="none" /><path d="M 92.7421414339146 119.70592522655815 l -9.472751642270401 25.71961603448804 a48.40860581345996,48.40860581345996 0 0,0 -0.7794471998575094,-0.2947202363404316 l 9.914069062888192 -25.552747548040976" fill="#ffab0f" stroke="none" /><path d="M 91.07499286063937 119.00905698771935 l -13.817127402486069 29.428610879436448 a53.51086199948898,53.51086199948898 0 0,0 -0.8304053357152713,-0.39864502479248226 l 14.321645406201583 -29.186411578144405" fill="#faff18" stroke="none" /><path d="M 90.7491055286396 118.85261126421891 l -14.426531948936574 29.400162283349445 a53.748959775250434,53.748959775250434 0 0,0 -0.8270841103566033,-0.41471714291728096 l 14.930469966975938 -29.147477299522862" fill="#f6ff19" stroke="none" /><path d="M 90.10565033884886 118.52300852407294 l -17.54229074658259 32.84056175076706 a58.23216970233647,58.23216970233647 0 0,0 -0.8800743942340806,-0.47988673025243145 l 18.104987952685313 -32.533734368754864" fill="#adff20" stroke="none" /><line stroke="#e1ed5e" stroke-width="0.3" x1="58.666819895761336" x2="56.23545636021788" y1="174.27360380694188" y2="178.64263932499728" /><path d="M 58.180547188652646 175.14741091055294 a86.0,86.0 0 0,1 -31.652253787137756,-30.449443065178592" fill="none" id="id80" stroke="none" /><text fill="#e1ed5e" style="font-size:6.75px; font-family:Arial;" text-anchor="middle"><textPath startOffset="22.20632615414155" xlink:href="#id80">August</textPath></text><path d="M 89.7882731507175 118.34994917583269 l -14.10341352072428 25.343110438684132 a50.003095001118226,50.003095001118226 0 0,0 -0.7485016462551206,-0.4250187694366576 l 14.537563933900607 -25.09658850345284" fill="#ffc812" stroke="none" /><path d="M 89.4739219176387 118.17145234162733 l -13.713988568521115 23.674828149346236 a48.360025043091696,48.360025043091696 0 0,0 -0.7167235024420089,-0.42345287851589186 l 14.119479941991507 -23.435256698536595" fill="#ffaa0f" stroke="none" /><path d="M 89.1626897886671 117.98757091392108 l -15.758414793592944 26.155531037057326 a51.53587137511222,51.53587137511222 0 0,0 -0.7559104920546522,-0.4643419636295469 l 16.206304485579906 -25.8804006065994" fill="#ffe315" stroke="none" /><path d="M 87.95078237400918 117.19931262002967 l -23.533063148910294 33.59160092950226 a62.014640241961615,62.014640241961615 0 0,0 -0.8690101855472447,-0.6200156937364942 l 24.107800662306424 -33.18154097392156" fill="#74ff27" stroke="none" /><path d="M 87.65650970185807 116.9893568818739 l -18.468339605118363 25.419488733606656 a52.420216028027866,52.420216028027866 0 0,0 -0.7254334586500271,-0.536658330044671 l 18.903158034186955 -25.097820454822212" fill="#fff216" stroke="none" /><path d="M 85.70375840098266 115.38237550388516 l -17.99777440150905 19.365126292861035 a47.43724644788243,47.43724644788243 0 0,0 -0.5933364170014443,-0.5610366164667254 l 18.32844665290131 -19.05245503964838" fill="#ff990e" stroke="none" /><path d="M 85.44109423537348 115.13401014063109 l -17.939919435340467 18.648580260489947 a46.876828535940064,46.876828535940064 0 0,0 -0.5766967087967545,-0.5644191081251755 l 18.258266096513015 -18.3370110494422" fill="#ff8f0d" stroke="none" /><path d="M 85.18274418774928 114.88116024355367 l -21.56793987687137 21.66095891829656 a51.56751824719288,51.56751824719288 0 0,0 -0.6236216524521184,-0.6317254414721915 l 21.93760215437902 -21.286492982843708" fill="#ffe315" stroke="none" /><path d="M 84.9287848128048 114.62390073753433 l -23.22545605338366 22.536123311225698 a53.36199411016611,53.36199411016611 0 0,0 -0.633974663611481,-0.6647199001993332 l 23.609937268374097 -22.132996294443863" fill="#fcff18" stroke="none" /><path d="M 84.67929136418377 114.36230785411682 l -22.825407925439453 21.39754389392799 a52.286644621232384,52.286644621232384 0 0,0 -0.6098953054200795,-0.6619208982477524 l 23.190349638855263 -21.001471740878895" fill="#fff016" stroke="none" /><path d="M 84.43433777217949 114.09645910891817 l -23.801670400731926 21.55509149673002 a53.11139179944527,53.11139179944527 0 0,0 -0.6078501429455471,-0.6829260793744449 l 24.16917939332581 -21.142191247614708" fill="#fffe18" stroke="none" /><path d="M 83.95833913139862 113.55231037782056 l -23.237788137272474 19.63174012403932 a51.42038819296323,51.42038819296323 0 0,0 -0.5653892057515421,-0.681047720510152 l 23.57227334291755 -19.22883114641541" fill="#ffe115" stroke="none" /><path d="M 83.72743513129214 113.27417163493432 l -24.138846671531073 19.691007310312862 a52.15155995333912,52.15155995333912 0 0,0 -0.5614539792308099,-0.7005001665862687 l 24.474218562816745 -19.272579310148338" fill="#ffed16" stroke="none" /><path d="M 83.50135304334701 112.99209946851258 l -23.880477146070007 18.805028997373228 a51.39582708721741,51.39582708721741 0 0,0 -0.5413526940538776,-0.6997713321421726 l 24.200636657341953 -18.3911796711178" fill="#ffe015" stroke="none" /><path d="M 83.28015986056508 112.70617746262583 l -30.37137454913537 23.08060792369718 a59.14622988096335,59.14622988096335 0 0,0 -0.6090336109152773,-0.8159000486712826 l 30.764169426745735 -22.55439499551659" fill="#9fff22" stroke="none" /><path d="M 83.06392112726016 112.41649034213515 l -17.13838994734351 12.564812366542265 a42.25085691904255,42.25085691904255 0 0,0 -0.42496356051184137,-0.5902372171875832 l 17.352133300230957 -12.267941543903541" fill="#ff3705" stroke="none" /><path d="M 82.64656182679789 111.8261652097733 l -25.716700622711738 17.52563078157727 a52.12067520492367,52.12067520492367 0 0,0 -0.49886161238502286,-0.7457304240832098 l 26.01456534050749 -17.08036344328824" fill="#ffed16" stroke="none" /><path d="M 82.44556493220864 111.52570212397912 l -25.612249116900266 16.81621498536099 a51.63939280175177,51.63939280175177 0 0,0 -0.4814639032735901,-0.7472426697916289 l 25.897917883550903 -16.372850715647914" fill="#ffe415" stroke="none" /><path d="M 82.24976979558568 111.22182372390057 l -26.035161887633162 16.459617366177913 a51.801763883846846,51.801763883846846 0 0,0 -0.4700032260687727,-0.7577948527080053 l 26.314629753369893 -16.00902618210464" fill="#ffe715" stroke="none" /><path d="M 82.05923443525364 110.91462005526583 l -27.68231769599642 16.841086229601718 a53.40266807556065,53.40266807556065 0 0,0 -0.47100930553968245,-0.7894386884891461 l 27.968107877234335 -16.362085447226463" fill="#fbff18" stroke="none" /><line stroke="#e1ed5e" stroke-width="0.3" x1="26.63291911575756" x2="22.317208475507996" y1="142.92168965132927" y2="145.44649492493687" /><path d="M 25.769776987707644 143.4266507060508 a86.0,86.0 0 0,1 -11.730757126820373,-40.83630448921669" fill="none" id="id81" stroke="none" /><text fill="#e1ed5e" style="font-size:6.75px; font-family:Arial;" text-anchor="middle"><textPath startOffset="21.46611528233685" xlink:href="#id81">September</textPath></text><path d="M 81.87401531095188 110.60418214915194 l -27.13694131229834 15.875830945632867 a52.43971361195007,52.43971361195007 0 0,0 -0.44910370549763595,-0.783050165599121 l 27.40619701394835 -15.406360934175439" fill="#fff216" stroke="none" /><path d="M 81.69416730710424 110.29060199501025 l -28.05673715309318 15.772061296788065 a53.18599722282035,53.18599722282035 0 0,0 -0.4417567905955176,-0.8019168918645931 l 28.32407035314022 -15.286773886525648" fill="#ffff18" stroke="none" /><path d="M 81.35079622478065 109.6543875284942 l -27.696723146099476 14.338140209351334 a52.18799027982887,52.18799027982887 0 0,0 -0.4061252758433817,-0.8013236983539034 l 27.939427091729122 -13.859262299294745" fill="#ffee16" stroke="none" /><path d="M 81.18737489456691 109.33194174019688 l -27.546342204719693 13.664273814489162 a51.749200765822444,51.749200765822444 0 0,0 -0.3889734673179126,-0.8014005528102506 l 27.777468928652326 -13.188084305713629" fill="#ffe615" stroke="none" /><path d="M 81.02952815118164 109.00673069616217 l -29.727877925075425 14.114092299513159 a53.90827141263065,53.90827141263065 0 0,0 -0.39077177482334846,-0.841687638280384 l 29.9664243167386 -13.600284593953948" fill="#f3ff19" stroke="none" /><path d="M 80.87730276802145 108.67885076344099 l -30.69699140760746 13.931853026869833 a54.71055932851053,54.71055932851053 0 0,0 -0.38182477280626,-0.8609140638819696 l 30.932257265144997 -13.401390626495166" fill="#e6ff1a" stroke="none" /><path d="M 80.73074385275274 108.34839909993369 l -29.98479543624681 12.990903090331239 a53.67799749764274,53.67799749764274 0 0,0 -0.36002348948118107,-0.8509891799139738 l 30.2039699069203 -12.472839384751106" fill="#f7ff19" stroke="none" /><path d="M 80.58989483394504 108.01547362559985 l -28.222602636305353 11.654626553631822 a51.5343350946342,51.5343350946342 0 0,0 -0.33153114034613496,-0.8228331016681689 l 28.419036390908875 -11.167094084120848" fill="#ffe315" stroke="none" /><path d="M 80.32549172779595 107.34259656027581 l -28.87999787887824 10.778118067927117 a51.825672848620655,51.825672848620655 0 0,0 -0.30472444066119203,-0.8384707867599586 l 29.061246580544655 -10.279399484161042" fill="#ffe815" stroke="none" /><path d="M 79.97269907076064 106.31721596034903 l -33.1975546695737 10.471512009739172 a55.809915251397065,55.809915251397065 0 0,0 -0.2811045172523622,-0.9186658269792412 l 33.37288595933219 -9.898519210207882" fill="#d4ff1c" stroke="none" /><path d="M 79.86692584326677 105.97154293290107 l -30.844080221257688 9.148466241827581 a53.172219682099005,53.172219682099005 0 0,0 -0.2527132874944333,-0.8797281066367947 l 30.99698614563823 -8.616180659686192" fill="#ffff18" stroke="none" /><path d="M 79.76711848015287 105.62410040840567 l -34.5230056887644 9.59630244476607 a56.83192630040816,56.83192630040816 0 0,0 -0.2538815395925666,-0.9447876550748591 l 34.68307530469873 -9.000623856515674" fill="#c3ff1e" stroke="none" /><path d="M 79.67330655649465 105.27499134158121 l -33.50507144490431 8.694919430066015 a55.614901941555196,55.614901941555196 0 0,0 -0.23249329271705707,-0.9286951345498736 l 33.64977605191643 -8.116896456118749" fill="#d7ff1c" stroke="none" /><path d="M 79.35854240842038 103.8639653848113 l -37.06006097808014 6.937436086718669 a58.70379475803894,58.70379475803894 0 0,0 -0.17737926788512645,-0.9948371340567581 l 37.17398668830445 -6.2984802019286965" fill="#a6ff21" stroke="none" /><path d="M 79.29508885075956 103.50808413554451 l -32.25087322481 5.464344951876969 a53.7105164972348,53.7105164972348 0 0,0 -0.1465996465700214,-0.9128761391318285 l 32.34015462574131 -4.908389583051927" fill="#f6ff19" stroke="none" /><path d="M 79.23777060512086 103.15116336523772 l -37.948791248158955 5.759633922826547 a59.383383646069035,59.383383646069035 0 0,0 -0.14468605609983318,-1.0119339393748015 l 38.04231135527538 -5.105554511471345" fill="#9bff22" stroke="none" /><path d="M 79.18660465613746 102.79330883721812 l -38.27883463031802 5.137297653014044 a59.622027495082364,59.622027495082364 0 0,0 -0.12775720252007766,-1.01835060551781 l 38.36159334208495 -4.477629293208825" fill="#97ff23" stroke="none" /><path d="M 79.1416061653843 102.43462659150553 l -34.15600753176403 3.986746288129431 a55.387890259157146,55.387890259157146 0 0,0 -0.10238240117013273,-0.9479338801039585 l 34.21957223443521 -3.3982160861406907" fill="#daff1b" stroke="none" /><path d="M 79.10278846688536 102.07522291339032 l -36.3004934243962 3.60486448645589 a57.47904701085738,57.47904701085738 0 0,0 -0.08929891020658037,-0.9854060329714553 l 36.357166930879856 -2.9794770649358684" fill="#b9ff1f" stroke="none" /><path d="M 79.07016306316243 101.71520430193888 l -34.976221398104606 2.8663083037215595 a56.093472136299276,56.093472136299276 0 0,0 -0.07058012239558303,-0.963009693919349 l 35.02037807916452 -2.26382547330545" fill="#cfff1d" stroke="none" /><path d="M 79.04373962182676 101.35467743843564 l -37.23186890266973 2.406783074988538 a58.30957875339303,58.30957875339303 0 0,0 -0.0561261602293775,-1.0021702943174182 l 37.26778141378664 -1.7655410643356821" fill="#acff21" stroke="none" /><path d="M 79.0235259727143 100.99374915477108 l -36.309108043771126 1.7201244299711442 a57.349830192021926,57.349830192021926 0 0,0 -0.03822739543019584,-0.9864792164400936 l 36.33333757205252 -1.0948679665170538" fill="#bbff1f" stroke="none" /><line stroke="#e1ed5e" stroke-width="0.3" x1="15.007084014347285" x2="10.007500721073583" y1="101.09737516637583" y2="101.16192664675087" /><path d="M 14.007167355692545 101.11028546245083 a86.0,86.0 0 0,1 10.666146001902534,-42.60595125391555" fill="none" id="id82" stroke="none" /><text fill="#e1ed5e" style="font-size:6.75px; font-family:Arial;" text-anchor="middle"><textPath startOffset="22.20632615414155" xlink:href="#id82">October</textPath></text><path d="M 79.08570108090925 98.10471618934814 l -38.63828129783273 -3.501456553647573 a59.796610414410324,59.796610414410324 0 0,0 0.10171937135536742,-1.0243001879522708 l 38.57228480079513 4.166032272304274" fill="#95ff23" stroke="none" /><path d="M 79.12142395522702 97.74499172005258 l -37.71544450467357 -4.0734885107851335 a58.93478697492066,58.93478697492066 0 0,0 0.11761600561560052,-1.0076621092302687 l 37.639738146054384 4.7220943583402635" fill="#a2ff22" stroke="none" /><path d="M 79.16333360222342 97.38593545837743 l -36.24973166706197 -4.5477110582482965 a57.53388457039998,57.53388457039998 0 0,0 0.1317361599947424,-0.9815874072068292 l 36.166079508009396 5.171016807519785" fill="#b8ff1f" stroke="none" /><path d="M 79.32604984820605 96.31383870115002 l -36.45728856200995 -6.500327473539256 a58.03225818873203,58.03225818873203 0 0,0 0.18380826872854839,-0.9819111213718392 l 36.339994569371534 7.126916672373668" fill="#b0ff20" stroke="none" /><path d="M 79.3925641242962 95.95851677861259 l -41.47262934727728 -8.133517273318501 a63.26266778389664,63.26266778389664 0 0,0 0.2187704512743983,-1.066802415158336 l 41.326479600087886 8.84619534464024" fill="#62ff29" stroke="none" /><path d="M 79.54389044137918 95.25157060432595 l -36.0196156036978 -8.361150054625035 a57.97731113093685,57.97731113093685 0 0,0 0.23402734823700053,-0.9701944457185356 l 35.870355455199984 8.979929732002967" fill="#b1ff20" stroke="none" /><path d="M 79.71946130924805 94.55025226153421 l -34.27926922802187 -9.211459951843393 a56.4953418528632,56.4953418528632 0 0,0 0.26045221393967266,-0.9369851893730946 l 34.11563024351584 9.80015644463543" fill="#c9ff1d" stroke="none" /><path d="M 79.81627453868168 94.20196356495316 l -35.71915660824742 -10.260790151979993 a58.163718373535694,58.163718373535694 0 0,0 0.2847089167073776,-0.9598969307532309 l 35.53724179442833 10.874116469479763" fill="#aeff20" stroke="none" /><path d="M 79.91906864156998 93.8553929516997 l -40.106217091530404 -12.272186972932662 a62.9418075730122,62.9418075730122 0 0,0 0.3259322102515245,-1.0332941755055525 l 39.889029397510676 12.96073131486463" fill="#66ff29" stroke="none" /><path d="M 80.14247586403 93.16781622104843 l -34.74956284520559 -11.955941635574627 a57.74883206751147,57.74883206751147 0 0,0 0.3314973234557231,-0.9371875733189975 l 34.53861244094006 12.552326835320235" fill="#b5ff20" stroke="none" /><path d="M 80.65960295795068 91.81776055985345 l -33.87422537104616 -14.330989288005727 a57.780978758882455,57.780978758882455 0 0,0 0.39541254485876853,-0.9126666705211832 l 33.62252211634471 14.911955103113508" fill="#b4ff20" stroke="none" /><path d="M 80.803312248108 91.48605970444005 l -36.733749912720825 -16.291818548650983 a61.18447130761441,61.18447130761441 0 0,0 0.4352770595799944,-0.9590753026238314 l 36.447870536177476 16.921715860116887" fill="#80ff26" stroke="none" /><path d="M 80.95270993114464 91.15688171328213 l -33.426340735379775 -15.518904996277143 a57.853177166170966,57.853177166170966 0 0,0 0.4271267180874422,-0.8996377991859577 l 33.15425582345058 16.091985211103633" fill="#b3ff20" stroke="none" /><path d="M 81.10775173730289 90.83032412892265 l -37.46479798937904 -18.184180588835385 a62.6446336527572,62.6446336527572 0 0,0 0.4792015780246247,-0.9660411400209855 l 37.146236398401 18.82638131735533" fill="#6aff28" stroke="none" /><path d="M 81.26839172434947 90.50648371742162 l -36.90322667054878 -18.703219612591894 a62.37219552519234,62.37219552519234 0 0,0 0.4936033585419007,-0.9534845779094562 l 36.575813878846766 19.335676912761688" fill="#6eff28" stroke="none" /><path d="M 81.43458229118936 90.18545643968196 l -36.01649056818282 -19.039992588125813 a61.73952516419267,61.73952516419267 0 0,0 0.5047703061328205,-0.9352627159406204 l 35.68341216283153 19.657136287398906" fill="#78ff26" stroke="none" /><path d="M 81.6062741919709 89.86733742301443 l -31.19635432766599 -17.185323698602716 a56.616679715591694,56.616679715591694 0 0,0 0.47758153271481146,-0.8495642567201778 l 30.895915153658752 17.71977146525768" fill="#c7ff1e" stroke="none" /><line stroke="#e1ed5e" stroke-width="0.3" x1="26.266209847984257" x2="21.92892807433627" y1="57.711370442889674" y2="55.22380399835377" /><path d="M 25.39875349325466 57.213857153982495 a86.0,86.0 0 0,1 29.58750427330802,-30.492523968695096" fill="none" id="id83" stroke="none" /><text fill="#e1ed5e" style="font-size:6.75px; font-family:Arial;" text-anchor="middle"><textPath startOffset="21.46611528233685" xlink:href="#id83">November</textPath></text><path d="M 81.78341655067847 89.55222093294921 l -35.96301287286643 -20.625910128894436 a62.45800843672048,62.45800843672048 0 0,0 0.5429097710463879,-0.9280087855062432 l 35.60264342734972 21.24189832675457" fill="#6dff28" stroke="none" /><path d="M 81.96595687620814 89.24020034530311 l -30.84964784061167 -18.406079430131744 a56.92331460038279,56.92331460038279 0 0,0 0.5092853105997771,-0.8371311430700222 l 30.528246731725673 18.93437834640884" fill="#c2ff1e" stroke="none" /><path d="M 82.15384107792192 88.93136811851018 l -35.38640765229178 -21.94753064912992 a62.64002819557969,62.64002819557969 0 0,0 0.5762059437028954,-0.9114194267812971 l 35.00337411234292 22.553397723625434" fill="#6aff28" stroke="none" /><path d="M 83.17141714833178 87.43820079747576 l -33.56548784454165 -25.0551649033301 a62.8855973166808,62.8855973166808 0 0,0 0.6549806260255316,-0.8618777278836189 l 33.12923127829201 25.629227407094746" fill="#67ff28" stroke="none" /><path d="M 83.39014120810768 87.1503855733568 l -33.092707533274655 -25.60097213733176 a62.839420003858685,62.839420003858685 0 0,0 0.669227612462123,-0.8498511066988034 l 32.647125840218564 26.16681563798361" fill="#68ff28" stroke="none" /><path d="M 83.6137871275137 86.86637796730984 l -22.08647361341819 -17.702406207640433 a49.305255734872354,49.305255734872354 0 0,0 0.5364916801894013,-0.6576753644218875 l 21.778483441152392 18.0799657416704" fill="#ffbb11" stroke="none" /><path d="M 83.84228863543731 86.58626213691792 l -28.502150239855617 -23.661789917235147 a58.0439316269571,58.0439316269571 0 0,0 0.6448111047641967,-0.7632529641487482 l 28.090628521604295 24.14890183101301" fill="#b0ff20" stroke="none" /><path d="M 84.07557802195018 86.31012108654704 l -27.107189281252545 -23.3034605247156 a56.74704160006295,56.74704160006295 0 0,0 0.6431551247000747,-0.7352374881372242 l 26.702042292974625 23.766613569055764" fill="#c4ff1e" stroke="none" /><path d="M 84.31358615837235 86.03803664274997 l -31.160920567894326 -27.735315129361364 a62.716311869143,62.716311869143 0 0,0 0.7246910434359508,-0.8002219503842848 l 30.67888588384233 28.26758986701521" fill="#69ff28" stroke="none" /><path d="M 84.5562425177563 85.77008943001954 l -26.64196941181692 -24.547966553747738 a57.22702300857891,57.22702300857891 0 0,0 0.6737328644794905,-0.7186912451612265 l 26.215469225366974 25.002927215787015" fill="#bdff1f" stroke="none" /><path d="M 84.80347519578584 85.50635884689758 l -25.765784317115642 -24.5740415477721 a56.60560573094849,56.60560573094849 0 0,0 0.6785549446291095,-0.6993105171038644 l 25.338965108783416 25.01391626042609" fill="#c7ff1e" stroke="none" /><path d="M 85.05521093208273 85.24692304244772 l -25.882312165813026 -25.550293248457713 a57.36910183288524,57.36910183288524 0 0,0 0.6998052412448083,-0.6968000551415234 l 25.438671124400905 25.992029154249348" fill="#bbff1f" stroke="none" /><path d="M 85.57189188830299 84.74124197986013 l -24.69195760900694 -26.113514210081227 a56.938953726633585,56.938953726633585 0 0,0 0.7179517167515271,-0.6672578755158278 l 24.23879800846056 26.5346766716717" fill="#c1ff1e" stroke="none" /><path d="M 85.83668400450813 84.49514656593479 l -28.21570241312563 -30.888270133488614 a62.83552431254362,62.83552431254362 0 0,0 0.8048602680343065,-0.7226114955229223 l 27.67983115749535 31.369380637780814" fill="#68ff28" stroke="none" /><path d="M 86.10567301691215 84.25364557470407 l -23.729733966707112 -26.892760038868268 a56.86531495245571,56.86531495245571 0 0,0 0.7395366740676196,-0.6413189162360373 l 23.26330349399272 27.297243948523988" fill="#c3ff1e" stroke="none" /><path d="M 86.93701828274178 83.55741782278169 l -23.152254981053076 -29.14211038134854 a58.21947753779463,58.21947753779463 0 0,0 0.7900312263761213,-0.6166319034542258 l 22.64719119951753 29.536320674025987" fill="#adff20" stroke="none" /><path d="M 87.22198572758235 83.33499621200491 l -23.15183445278133 -30.19447314967166 a59.04883240409928,59.04883240409928 0 0,0 0.8119322606076136,-0.6115305455686063 l 22.628656038415325 30.58852028474612" fill="#a0ff22" stroke="none" /><path d="M 87.51073957382395 83.11751280151077 l -22.15848709712959 -29.95296454633367 a58.25826935792349,58.25826935792349 0 0,0 0.8113287492784548,-0.5894648405442027 l 21.63961303149735 30.32994862169454" fill="#adff20" stroke="none" /><path d="M 87.80319425747017 82.90503203632743 l -18.65743440228973 -26.150145384320112 a53.12366669757397,53.12366669757397 0 0,0 0.7489649266803955,-0.5246977943349148 l 18.204538336025678 26.467428021418968" fill="#fffe18" stroke="none" /><path d="M 88.09926311788651 82.69761687909137 l -20.718101905712352 -30.121877347732777 a57.55909246038992,57.55909246038992 0 0,0 0.8211635188263221,-0.5544532735065039 l 20.19653369247949 30.474042533537947" fill="#b8ff1f" stroke="none" /><path d="M 88.39885842347998 82.49532879139004 l -23.90228163934484 -36.06555255554714 a64.26711394007572,64.26711394007572 0 0,0 0.9273835562629164,-0.60319606184527 l 23.277931057297636 36.47164754155195" fill="#53ff2b" stroke="none" /><path d="M 89.00827224532344 82.1063720568725 l -9.693360083819085 -15.779992256888445 a39.51943264093251,39.51943264093251 0 0,0 0.5827007365328158,-0.3510706738779844 l 9.42029728106862 15.944509540225049" fill="#ff0000" stroke="none" /><line stroke="#e1ed5e" stroke-width="0.3" x1="56.762969772571076" x2="54.21961505331055" y1="26.818313649435495" y2="22.513508569990535" /><path d="M 56.25429882871897 25.957352633546506 a86.0,86.0 0 0,1 42.265352541879196,-11.944610805530505" fill="none" id="id84" stroke="none" /><text fill="#e1ed5e" style="font-size:6.75px; font-family:Arial;" text-anchor="middle"><textPath startOffset="22.20632615414155" xlink:href="#id84">December</textPath></text><path d="M 89.3179101791058 81.91981866633112 l -10.71705450018703 -18.139361489657766 a42.06873732363803,42.06873732363803 0 0,0 0.626630404566289,-0.3629847765187316 l 10.40322736315542 18.321150423566547" fill="#ff3304" stroke="none" /><path d="M 89.63071344664047 81.73862282372117 l -10.81910890914236 -19.05356048214101 a42.9109854783962,42.9109854783962 0 0,0 0.645454601276413,-0.35919478679145567 l 10.489530218793902 19.23697066649265" fill="#ff4406" stroke="none" /><path d="M 89.94658935756843 81.56283822128135 l -12.81714536613657 -23.505633168850483 a47.77300890832482,47.77300890832482 0 0,0 0.725364787269846,-0.38746474838614475 l 12.41063553233842 23.722776643738378" fill="#ffa00e" stroke="none" /><path d="M 90.58718382345135 81.22770947309562 l -9.173968879026392 -18.29594946419199 a41.46713149881077,41.46713149881077 0 0,0 0.6408226498105293,-0.31444889119981806 l 8.857674962205436 18.451153515526638" fill="#ff2703" stroke="none" /><path d="M 90.91171255644093 81.06846463323043 l -9.172277012302139 -19.106491484847243 a42.194071870477046,42.194071870477046 0 0,0 0.6574676033338274,-0.3086898554433099 l 8.842031197668703 19.26154632293056" fill="#ff3605" stroke="none" /><path d="M 91.23893434514133 80.91482961587045 l -8.826344566330436 -19.227374448909977 a42.15647150642533,42.15647150642533 0 0,0 0.6620932440554758,-0.29706193905286604 l 8.494069203808184 19.37645671847937" fill="#ff3505" stroke="none" /><path d="M 91.56875222667455 80.76684994638697 l -8.454819357961208 -19.286920958761286 a42.05871055989091,42.05871055989091 0 0,0 0.6655615545451442,-0.2849587234160871 l 8.121574045625755 19.42959921014016" fill="#ff3304" stroke="none" /><path d="M 91.90106846888425 80.62456947434976 l -8.482167679600092 -20.292263238872728 a42.99370627930995,42.99370627930995 0 0,0 0.685270809422113,-0.27953916928859823 l 8.1316130005896 20.435263294344903" fill="#ff4506" stroke="none" /><path d="M 92.23578459929587 80.48803036053334 l -7.835968534304201 -19.69228985111536 a42.194071870477046,42.194071870477046 0 0,0 0.6771482170268719,-0.2627229880776819 l 7.495837152277652 19.82425554308359" fill="#ff3605" stroke="none" /><path d="M 92.57280143429618 80.3572730644239 l -7.334483827414904 -19.397524081363755 a41.73785411998304,41.73785411998304 0 0,0 0.6742008477059274,-0.24831386202510025 l 6.999500653936408 19.520901211195177" fill="#ff2d04" stroke="none" /><path d="M 93.25333710446033 80.11325718540243 l -6.798543090971886 -20.039667026123492 a42.1614848882989,42.1614848882989 0 0,0 0.6892743810438137,-0.22724292639082103 l 6.452585887685663 20.153723676773545" fill="#ff3505" stroke="none" /><path d="M 93.59665428221793 80.00007090966166 l -6.46022932038844 -20.177596839148304 a42.1865517976667,42.1865517976667 0 0,0 0.6934959407357641,-0.21547256455186156 l 6.111948006941947 20.28580953858269" fill="#ff3505" stroke="none" /><path d="M 95.33964822691252 79.52364482259891 l -5.314225428781164 -23.349303372523984 a44.946418519061766,44.946418519061766 0 0,0 0.7558645106308376,-0.16520270564787928 l 4.911518193996805 23.437319576267733" fill="#ff6b09" stroke="none" /><path d="M 95.692805502759 79.44645832069477 l -4.2847893466732305 -20.446626331897335 a41.89076226712663,41.89076226712663 0 0,0 0.7070234895474425,-0.14182226067156006 l 3.9321994476586517 20.517352548646105" fill="#ff3004" stroke="none" /><path d="M 96.04723909329186 79.375362276772 l -5.316894658764647 -27.74238784933513 a49.24729106295571,49.24729106295571 0 0,0 0.833932236878711,-0.15239578592887465 l 4.838567300783042 27.829799116614744" fill="#ffba11" stroke="none" /><path d="M 96.40284397218896 79.31037775812273 l -6.949742778938033 -39.9725648992604 a61.572217949219706,61.572217949219706 0 0,0 1.045762469320845,-0.17255976787654073 l 6.260651103478303 40.086270930076566" fill="#7aff26" stroke="none" /><path d="M 96.75951476605007 79.25152402106235 l -6.20468558865636 -39.72792980024628 a61.209532818317804,61.209532818317804 0 0,0 1.0424013156810037,-0.15362285721216856 l 5.519915292546707 39.82884714161942" fill="#80ff26" stroke="none" /><path d="M 97.83486435360386 79.11191278185805 l -2.232956942422383 -21.542391325601223 a42.65780969378139,42.65780969378139 0 0,0 0.7310225639123077,-0.06941940087904913 l 1.861809251419839 21.577636270995452" fill="#ff3f05" stroke="none" /><path d="M 98.91598698831166 79.02799685794201 l -1.365306615302901 -26.414087577610438 a47.44934941943684,47.44934941943684 0 0,0 0.8160365495234246,-0.03514025040096346 l 0.9104292333901522 26.433675554535593" fill="#ff9a0e" stroke="none" /><path d="M 99.63851952072746 79.00311137660856 l -0.5068748094631552 -29.442236941033862 a50.446599772545,50.446599772545 0 0,0 0.8683552887356838,-0.007474208119696556 l 7.212336831444083e-15 29.446599772545" fill="#ffd013" stroke="none" /></svg>