<?xml version="1.0" encoding="utf-8" ?>
<svg baseProfile="full" height="200mm" version="1.1" viewBox="0,0,200,200" width="200mm" xmlns="http://www.w3.org/2000/svg" xmlns:ev="http://www.w3.org/2001/xml-events" xmlns:xlink="http://www.w3.org/1999/xlink"><defs /><rect fill="#2b2b2b" height="200" width="200" x="0" y="0" /><text alignment-baseline="middle" fill="#e1ed5e" style="dominant-baseline: central; font-size:9.0px; font-family:Arial;" text-anchor="middle" x="100.0" y="100.0">2019</text><line stroke="#e1ed5e" stroke-width="0.3" x1="100.0" x2="100.0" y1="15.0" y2="10.0" /><path d="M 100.0 14.0 a86.0,86.0 0 0,1 42.46469731375804,11.215312516191453" fill="none" id="id49" stroke="none" /><text fill="#e1ed5e" style="font-size:6.75px; font-family:Arial;" text-anchor="middle"><textPath startOffset="22.20632615414155" xlink:href="#id49">January</textPath></text><line stroke="#e1ed5e" stroke-width="0.3" x1="143.23703022742887" x2="145.7803849466894" y1="26.81831364943548" y2="22.513508569990506" /><path d="M 143.74570117128098 25.957352633546492 a86.0,86.0 0 0,1 28.547481713284135,27.462654790039103" fill="none" id="id50" stroke="none" /><text fill="#e1ed5e" style="font-size:6.75px; font-family:Arial;" text-anchor="middle"><textPath startOffset="19.985693538727396" xlink:href="#id50">February</textPath></text><line stroke="#e1ed5e" stroke-width="0.3" x1="172.23445277983987" x2="176.4835382374775" y1="55.19839476539836" y2="52.563006222186495" /><path d="M 173.08426987136738 54.67131705675599 a86.0,86.0 0 0,1 12.851231095245387,41.99856678651699" fill="none" id="id51" stroke="none" /><text fill="#e1ed5e" style="font-size:6.75px; font-family:Arial;" text-anchor="middle"><textPath startOffset="22.20632615414155" xlink:href="#id51">March</textPath></text><path d="M 119.34039704204932 91.81776055985345 l 42.61433195374832 -18.028619933156772 a67.27107546360331,67.27107546360331 0 0,0 0.44199759589615717,1.0703322373973674 l -42.91835123653067 17.2924131253061" fill="#74ff27" stroke="none" /><path d="M 120.08093135843002 93.85539295169968 l 59.70857639135888 -18.270354735528848 a83.44133211939669,83.44133211939669 0 0,0 0.40844175614370876,1.3770625544431325 l -60.014224044614295 17.239862794339185" fill="#4cdbff" stroke="none" /><path d="M 120.67395015179393 96.31383870115 l 62.02185045538181 -11.058483896549978 a84.0,84.0 0 0,0 0.2415525539191079,1.4256568467366484 l -62.20301487082114 9.98924126149749" fill="#4dd2ff" stroke="none" /><path d="M 120.83666639777658 97.38593545837742 l 28.99626289204243 -3.637726938592386 a50.223557603142666,50.223557603142666 0 0,0 0.10023102714531558,0.858718230524325 l -29.054584272191335 3.138064969743208" fill="#ff0000" stroke="none" /><line stroke="#e1ed5e" stroke-width="0.3" x1="184.98032266829074" x2="189.97916517819016" y1="98.17113171792111" y2="98.06355123074" /><path d="M 185.9800911702706 98.14961562048488 a86.0,86.0 0 0,1 -9.607161424134198,41.387399972396054" fill="none" id="id52" stroke="none" /><text fill="#e1ed5e" style="font-size:6.75px; font-family:Arial;" text-anchor="middle"><textPath startOffset="21.466115282336823" xlink:href="#id52">April</textPath></text><path d="M 120.89721153311464 102.0752229133903 l 56.301938022294316 5.591132178903264 a77.57887400884042,77.57887400884042 0 0,0 -0.14340158767443092,1.327720602991124 l -56.19735413311883 -6.559449103779179" fill="#3effb9" stroke="none" /><path d="M 120.76222939487914 103.15116336523771 l 56.41370394223962 8.562124701502274 a78.05975790245466,78.05975790245466 0 0,0 -0.2130594465691073,1.3267213771669548 l -56.25796274130923 -9.531925308362434" fill="#3fffc2" stroke="none" /><path d="M 120.5718875245553 104.21870165774334 l 55.53439858912903 11.388505751360432 a77.69010045770801,77.69010045770801 0 0,0 -0.2799283872727172,1.3077322323794927 l -55.330136163131876 -12.342751803156093" fill="#3fffbb" stroke="none" /><path d="M 120.32669344350535 105.2749913415812 l 54.436273966158595 14.126787253299064 a77.23943493153757,77.23943493153757 0 0,0 -0.3450466653905556,1.2840470024284307 l -54.18503922442626 -15.061725188903043" fill="#3effb2" stroke="none" /><path d="M 120.13307415673323 105.97154293290107 l 47.090031110074364 13.967074292596939 a70.11771772225063,70.11771772225063 0 0,0 -0.35317034799935176,1.1541811315614596 l -46.84263398956888 -14.775582396710455" fill="#3fff2d" stroke="none" /><path d="M 119.54520255179757 107.68017299344265 l 45.90697274972712 18.038876363076405 a70.32394152423896,70.32394152423896 0 0,0 -0.4524086026209851,1.1228410499458257 l -45.58966153284874 -18.826416780865042" fill="#3bff2e" stroke="none" /><line stroke="#e1ed5e" stroke-width="0.3" x1="174.80103733775053" x2="179.2010983576182" y1="140.37084112569926" y2="142.7455964860345" /><path d="M 175.68104954172406 140.8457921977663 a86.0,86.0 0 0,1 -30.038265399797805,32.042727171017184" fill="none" id="id53" stroke="none" /><text fill="#e1ed5e" style="font-size:6.75px; font-family:Arial;" text-anchor="middle"><textPath startOffset="22.206326154141568" xlink:href="#id53">May</textPath></text><path d="M 117.75023020441432 111.22182372390056 l 43.80096489108239 27.691286326091983 a72.82018780150686,72.82018780150686 0 0,0 -0.6789446961668995,1.053737245835297 l -43.317815331538434 -28.44114517184873" fill="#34ff57" stroke="none" /><path d="M 117.35343817320211 111.8261652097733 l 34.267712163500384 23.353045163829602 a62.468552125006454,62.468552125006454 0 0,0 -0.613200507902078,0.8833610662879188 l -33.86065074843617 -23.939447492304538" fill="#d6ff1c" stroke="none" /><path d="M 114.81725581225074 114.88116024355365 l 36.49125677149391 36.64863766854118 a72.71783506415476,72.71783506415476 0 0,0 -0.8946026739025487,0.8755570053173769 l -35.85500414521556 -37.27134477678113" fill="#33ff55" stroke="none" /><path d="M 114.0293411484842 115.62618273729858 l 37.264843786792426 41.50638668817453 a76.78036140401309,76.78036140401309 0 0,0 -0.9910430526263636,0.8744802673428603 l -36.54485838125947 -42.141690097289676" fill="#3dffa9" stroke="none" /><path d="M 113.20401910651253 116.32954008644616 l 26.8914644349423 33.256938128561536 a63.76885307256598,63.76885307256598 0 0,0 -0.8594902885808535,0.6828310666100051 l -26.315016653644097 -33.71490310917667" fill="#bbff1f" stroke="none" /><path d="M 112.04921762599082 117.19931262002967 l 28.377197620893178 40.50622275336068 a70.45724847340479,70.45724847340479 0 0,0 -0.9992955422008801,0.6873245859890063 l -27.675745194069414 -40.988688128714784" fill="#39ff2e" stroke="none" /><path d="M 111.1453310114006 117.79835938074945 l 26.742380546776182 42.705819969044754 a71.38791498501456,71.38791498501456 0 0,0 -1.0470934613737386,0.6432103259161907 l -26.003307885470136 -43.159818761789325" fill="#30ff38" stroke="none" /><line stroke="#e1ed5e" stroke-width="0.3" x1="143.8653032363475" x2="146.44561519142675" y1="172.8068346515853" y2="177.08958963109032" /><path d="M 144.38136562736335 173.6633856474863 a86.0,86.0 0 0,1 -40.68145358897372,12.25698825130547" fill="none" id="id54" stroke="none" /><text fill="#e1ed5e" style="font-size:6.75px; font-family:Arial;" text-anchor="middle"><textPath startOffset="21.466115282336833" xlink:href="#id54">June</textPath></text><path d="M 110.21172684928248 118.3499491758327 l 24.35462922701921 43.76401906436159 a71.08430222586098,71.08430222586098 0 0,0 -1.0743112362249008,0.5858001434913808 l -23.597695178925658 -44.176759859612744" fill="#30ff31" stroke="none" /><path d="M 108.2653958097858 119.30500536409082 l 19.260712132526315 44.98612765699669 a69.935945003889,69.935945003889 0 0,0 -1.110744460276806,0.46429127447974794 l -18.483496212752048 -45.311003974496415" fill="#42ff2d" stroke="none" /><path d="M 106.57524785965236 119.94407469862006 l 17.46626805644483 52.978771638621446 a76.78369622171684,76.78369622171684 0 0,0 -1.2588089359123102,0.40303086940312816 l -16.551737775441577 -53.27157535468428" fill="#3dffa9" stroke="none" /><path d="M 103.41894727170886 120.7198165907248 l 8.038523410875097 48.71579392633659 a70.3745525194961,70.3745525194961 0 0,0 -1.1969174416458515,0.18693388853464263 l -7.198770105620729 -48.846946122218334" fill="#3aff2e" stroke="none" /><path d="M 103.06178313531738 120.77559828337769 l 7.4829528580587255 50.775256013148734 a72.32369050133404,72.32369050133404 0 0,0 -1.2331926546847776,0.17090926506224924 l -6.607831612187118 -50.896539843703586" fill="#32ff4d" stroke="none" /><path d="M 102.34483914955558 120.86867818915974 l 5.599585596137057 49.83537988974036 a71.14898251812497,71.14898251812497 0 0,0 -1.2182311856283603,0.12627464343717726 l -4.740921813903094 -49.92438390163329" fill="#30ff33" stroke="none" /><path d="M 101.26447882468166 120.96189622390904 l 2.3490952175732422 38.94212319707927 a60.01291077883993,60.01291077883993 0 0,0 -1.0316846114475482,0.05332631009028047 l -1.6784225377122146 -38.976789313931754" fill="#fff216" stroke="none" /><line stroke="#e1ed5e" stroke-width="0.3" x1="102.19456741930631" x2="102.32365962044197" y1="184.97166512339345" y2="189.96999836594603" /><path d="M 102.22038585953345 185.97133177190398 a86.0,86.0 0 0,1 -42.740103519485714,-10.115201625700543" fill="none" id="id55" stroke="none" /><text fill="#e1ed5e" style="font-size:6.75px; font-family:Arial;" text-anchor="middle"><textPath startOffset="22.20632615414155" xlink:href="#id55">July</textPath></text><path d="M 100.54218724476979 120.99299961872073 l 1.3139623347003229 50.87543290157827 a71.8923979582413,71.8923979582413 0 0,0 -1.2373719339231648,0.02130247998813582 l -0.4380307108844899 -50.89051285884557" fill="#31ff43" stroke="none" /><path d="M 99.09653310690486 120.98055641714683 l -2.1636748941681194 50.24545285764911 a71.29201747710955,71.29201747710955 0 0,0 -1.225584235052887,-0.06334870583025448 l 3.0282471976344953 -50.200764345056655" fill="#30ff36" stroke="none" /><path d="M 98.01472825383883 120.90594882070398 l -4.840609129046497 50.97414341817903 a72.2034646675134,72.2034646675134 0 0,0 -1.236286300313218,-0.12814612989716143 l 5.717328025965308 -50.88326791982611" fill="#32ff4a" stroke="none" /><path d="M 96.93821686468263 120.77559828337769 l -7.681496507481186 52.12246543975302 a73.68545142743577,73.68545142743577 0 0,0 -1.2532286011284122,-0.19572853354833278 l 8.577560972218116 -51.98251859885758" fill="#35ff6a" stroke="none" /><path d="M 95.86986931433489 120.58985236759428 l -9.690353548832281 48.30911274860047 a70.271425050006,70.271425050006 0 0,0 -1.183934771438905,-0.24810504253719343 l 10.520479781700573 -48.13515172533674" fill="#3cff2e" stroke="none" /><path d="M 94.81253420990036 120.34920634021253 l -12.353698979983932 48.46065107327435 a71.01048471004557,71.01048471004557 0 0,0 -1.181849669845216,-0.31213723947061683 l 13.186039092640637 -48.24082248450015" fill="#2fff30" stroke="none" /><path d="M 93.42475214034765 119.94407469862007 l -15.875299550812992 48.15303800899214 a71.70246744807875,71.70246744807875 0 0,0 -1.1688535633600319,-0.39653859054544893 l 16.70182284711025 -47.87263643154857" fill="#31ff3f" stroke="none" /><line stroke="#e1ed5e" stroke-width="0.3" x1="58.666819895761336" x2="56.23545636021788" y1="174.27360380694188" y2="178.64263932499728" /><path d="M 58.180547188652646 175.14741091055294 a86.0,86.0 0 0,1 -31.652253787137756,-30.449443065178592" fill="none" id="id56" stroke="none" /><text fill="#e1ed5e" style="font-size:6.75px; font-family:Arial;" text-anchor="middle"><textPath startOffset="22.20632615414155" xlink:href="#id56">August</textPath></text><line stroke="#e1ed5e" stroke-width="0.3" x1="26.63291911575756" x2="22.317208475507996" y1="142.92168965132927" y2="145.44649492493687" /><path d="M 25.769776987707644 143.4266507060508 a86.0,86.0 0 0,1 -11.730757126820373,-40.83630448921669" fill="none" id="id57" stroke="none" /><text fill="#e1ed5e" style="font-size:6.75px; font-family:Arial;" text-anchor="middle"><textPath startOffset="21.46611528233685" xlink:href="#id57">September</textPath></text><path d="M 79.23777060512086 103.15116336523772 l -50.747685854513996 7.7021713561636505 a72.32885215147664,72.32885215147664 0 0,0 -0.17622735043859078,-1.2325336785174315 l 50.87274725596919 -6.827492205665819" fill="#32ff4d" stroke="none" /><path d="M 79.0235259727143 100.99374915477108 l -50.899224149677025 2.411323319231372 a71.95630970928855,71.95630970928855 0 0,0 -0.047963564944212694,-1.2377264899001277 l 50.93318984747244 -1.5348195823172472" fill="#32ff45" stroke="none" /><line stroke="#e1ed5e" stroke-width="0.3" x1="15.007084014347285" x2="10.007500721073583" y1="101.09737516637583" y2="101.16192664675087" /><path d="M 14.007167355692545 101.11028546245083 a86.0,86.0 0 0,1 10.666146001902534,-42.60595125391555" fill="none" id="id58" stroke="none" /><text fill="#e1ed5e" style="font-size:6.75px; font-family:Arial;" text-anchor="middle"><textPath startOffset="22.20632615414155" xlink:href="#id58">October</textPath></text><path d="M 79.81627453868168 94.20196356495316 l -35.69684392969846 -10.254380546209331 a58.1405033208723,58.1405033208723 0 0,0 0.2845952800163281,-0.9595138043228374 l 35.51504275257042 10.867323737278708" fill="#ffc712" stroke="none" /><path d="M 80.2630227832202 92.82701384747504 l -45.94803707945658 -16.698840460049883 a69.88837677981665,69.88837677981665 0 0,0 0.4206461972399153,-1.1271226764714153 l 45.653786293715044 17.48728627355064" fill="#43ff2d" stroke="none" /><path d="M 80.803312248108 91.48605970444005 l -46.18577270190413 -20.48389369929499 a71.52440500546216,71.52440500546216 0 0,0 0.5088371613519477,-1.121155236117341 l 45.826333223588826 21.2758709442544" fill="#31ff3b" stroke="none" /><line stroke="#e1ed5e" stroke-width="0.3" x1="26.266209847984243" x2="21.928928074336255" y1="57.711370442889674" y2="55.22380399835377" /><path d="M 25.398753493254645 57.213857153982495 a86.0,86.0 0 0,1 29.58750427330803,-30.492523968695096" fill="none" id="id59" stroke="none" /><text fill="#e1ed5e" style="font-size:6.75px; font-family:Arial;" text-anchor="middle"><textPath startOffset="21.46611528233685" xlink:href="#id59">November</textPath></text><path d="M 81.96595687620814 89.24020034530311 l -43.30296350846918 -25.836203706926234 a71.42475652496105,71.42475652496105 0 0,0 0.6390277791568393,-1.0503936478926792 l 42.85181993102613 26.577765128025987" fill="#30ff39" stroke="none" /><path d="M 85.05521093208273 85.24692304244772 l -32.448468752085844 -32.03221902154069 a66.59568159156133,66.59568159156133 0 0,0 0.8123537851054617,-0.8088652797870363 l 31.892279166813072 32.58602015197784" fill="#81ff25" stroke="none" /><line stroke="#e1ed5e" stroke-width="0.3" x1="56.762969772571076" x2="54.21961505331055" y1="26.818313649435495" y2="22.513508569990535" /><path d="M 56.25429882871897 25.957352633546506 a86.0,86.0 0 0,1 42.265352541879196,-11.944610805530505" fill="none" id="id60" stroke="none" /><text fill="#e1ed5e" style="font-size:6.75px; font-family:Arial;" text-anchor="middle"><textPath startOffset="22.20632615414155" xlink:href="#id60">December</textPath></text></svg>