<?xml version="1.0" encoding="utf-8" ?>
<svg baseProfile="full" height="200mm" version="1.1" viewBox="0,0,200,200" width="200mm" xmlns="http://www.w3.org/2000/svg" xmlns:ev="http://www.w3.org/2001/xml-events" xmlns:xlink="http://www.w3.org/1999/xlink"><defs /><rect fill="#2b2b2b" height="200" width="200" x="0" y="0" /><text alignment-baseline="middle" fill="#e1ed5e" style="dominant-baseline: central; font-size:9.0px; font-family:Arial;" text-anchor="middle" x="100.0" y="100.0">2015</text><line stroke="#e1ed5e" stroke-width="0.3" x1="100.0" x2="100.0" y1="15.0" y2="10.0" /><path d="M 100.0 14.0 a86.0,86.0 0 0,1 42.46469731375804,11.215312516191453" fill="none" id="id1" stroke="none" /><text fill="#e1ed5e" style="font-size:6.75px; font-family:Arial;" text-anchor="middle"><textPath startOffset="22.20632615414155" xlink:href="#id1">January</textPath></text><line stroke="#e1ed5e" stroke-width="0.3" x1="143.23703022742887" x2="145.7803849466894" y1="26.81831364943548" y2="22.513508569990506" /><path d="M 143.74570117128098 25.957352633546492 a86.0,86.0 0 0,1 28.547481713284135,27.462654790039103" fill="none" id="id2" stroke="none" /><text fill="#e1ed5e" style="font-size:6.75px; font-family:Arial;" text-anchor="middle"><textPath startOffset="19.985693538727396" xlink:href="#id2">February</textPath></text><line stroke="#e1ed5e" stroke-width="0.3" x1="172.23445277983987" x2="176.4835382374775" y1="55.19839476539836" y2="52.563006222186495" /><path d="M 173.08426987136738 54.67131705675599 a86.0,86.0 0 0,1 12.851231095245387,41.99856678651699" fill="none" id="id3" stroke="none" /><text fill="#e1ed5e" style="font-size:6.75px; font-family:Arial;" text-anchor="middle"><textPath startOffset="22.20632615414155" xlink:href="#id3">March</textPath></text><line stroke="#e1ed5e" stroke-width="0.3" x1="184.98032266829074" x2="189.97916517819016" y1="98.17113171792111" y2="98.06355123074" /><path d="M 185.9800911702706 98.14961562048488 a86.0,86.0 0 0,1 -9.607161424134198,41.387399972396054" fill="none" id="id4" stroke="none" /><text fill="#e1ed5e" style="font-size:6.75px; font-family:Arial;" text-anchor="middle"><textPath startOffset="21.466115282336823" xlink:href="#id4">April</textPath></text><line stroke="#e1ed5e" stroke-width="0.3" x1="174.80103733775053" x2="179.2010983576182" y1="140.37084112569926" y2="142.7455964860345" /><path d="M 175.68104954172406 140.8457921977663 a86.0,86.0 0 0,1 -30.038265399797805,32.042727171017184" fill="none" id="id5" stroke="none" /><text fill="#e1ed5e" style="font-size:6.75px; font-family:Arial;" text-anchor="middle"><textPath startOffset="22.206326154141568" xlink:href="#id5">May</textPath></text><line stroke="#e1ed5e" stroke-width="0.3" x1="143.8653032363475" x2="146.44561519142675" y1="172.8068346515853" y2="177.08958963109032" /><path d="M 144.38136562736335 173.6633856474863 a86.0,86.0 0 0,1 -40.68145358897372,12.25698825130547" fill="none" id="id6" stroke="none" /><text fill="#e1ed5e" style="font-size:6.75px; font-family:Arial;" text-anchor="middle"><textPath startOffset="21.466115282336833" xlink:href="#id6">June</textPath></text><line stroke="#e1ed5e" stroke-width="0.3" x1="102.19456741930631" x2="102.32365962044197" y1="184.97166512339345" y2="189.96999836594603" /><path d="M 102.22038585953345 185.97133177190398 a86.0,86.0 0 0,1 -42.740103519485714,-10.115201625700543" fill="none" id="id7" stroke="none" /><text fill="#e1ed5e" style="font-size:6.75px; font-family:Arial;" text-anchor="middle"><textPath startOffset="22.20632615414155" xlink:href="#id7">July</textPath></text><line stroke="#e1ed5e" stroke-width="0.3" x1="58.666819895761336" x2="56.23545636021788" y1="174.27360380694188" y2="178.64263932499728" /><path d="M 58.180547188652646 175.14741091055294 a86.0,86.0 0 0,1 -31.652253787137756,-30.449443065178592" fill="none" id="id8" stroke="none" /><text fill="#e1ed5e" style="font-size:6.75px; font-family:Arial;" text-anchor="middle"><textPath startOffset="22.20632615414155" xlink:href="#id8">August</textPath></text><line stroke="#e1ed5e" stroke-width="0.3" x1="26.63291911575756" x2="22.317208475507996" y1="142.92168965132927" y2="145.44649492493687" /><path d="M 25.769776987707644 143.4266507060508 a86.0,86.0 0 0,1 -11.730757126820373,-40.83630448921669" fill="none" id="id9" stroke="none" /><text fill="#e1ed5e" style="font-size:6.75px; font-family:Arial;" text-anchor="middle"><textPath startOffset="21.46611528233685" xlink:href="#id9">September</textPath></text><path d="M 80.73074385275274 108.34839909993369 l -12.655131263981731 5.482831596945717 a34.79180153674908,34.79180153674908 0 0,0 -0.23335195757157653,-0.5515750966452881 l 12.747634202745616 -5.26418197463427" fill="#ff0000" stroke="none" /><path d="M 80.58989483394504 108.01547362559985 l -13.914255322237942 5.745942415103799 a36.05398138068849,36.05398138068849 0 0,0 -0.23194279191161102,-0.5756629880346941 l 14.01110072840694 -5.5055800592263" fill="#ff1702" stroke="none" /><path d="M 80.45479744820244 107.68017299344265 l -16.989521905739636 6.675933235594097 a39.25409376418662,39.25409376418662 0 0,0 -0.24170375586105208,-0.6310122361957572 l 17.101919941194197 -6.382497432565182" fill="#ff5007" stroke="none" /><path d="M 80.32549172779594 107.34259656027581 l -20.977155518115893 7.828749151982414 a43.39040792205192,43.39040792205192 0 0,0 -0.2551267944504822,-0.7019993657295414 l 21.108806573571602 -7.466501989246756" fill="#ff970d" stroke="none" /><path d="M 80.20201598880116 107.00284435728193 l -26.26970669223158 9.29198989013658 a48.864647240083215,48.864647240083215 0 0,0 -0.2736633599123072,-0.7953938228844141 l 26.425760883087115 -8.83842336416287" fill="#ffef16" stroke="none" /><path d="M 80.0844068197444 106.66101706037122 l -30.220661939517345 10.107675073138486 a52.86618118706315,52.86618118706315 0 0,0 -0.2812172427511397,-0.8654976783850031 l 30.390171433284735 -9.585978494775679" fill="#d3ff1c" stroke="none" /><path d="M 79.86692584326677 105.97154293290107 l -30.653968013626667 9.09207827041798 a52.9739212836939,52.9739212836939 0 0,0 -0.2517708284346941,-0.8764472830108296 l 30.805931478947464 -8.563073511902555" fill="#d1ff1c" stroke="none" /><path d="M 79.76711848015287 105.62410040840567 l -30.48018377316019 8.472525964171485 a52.63582303432578,52.63582303432578 0 0,0 -0.23513656248495318,-0.875030621954807 l 30.621508411986916 -7.946604409041139" fill="#d6ff1c" stroke="none" /><path d="M 79.67330655649465 105.27499134158121 l -31.04884807999897 8.057503560196391 a53.077318010043065,53.077318010043065 0 0,0 -0.22188514232594764,-0.8863208469320727 l 31.182944536619974 -7.521854873866927" fill="#d0ff1d" stroke="none" /><path d="M 79.58551787078972 104.9243191809786 l -30.473081525590434 7.35062388113563 a52.34709506648427,52.34709506648427 0 0,0 -0.2037534250435168,-0.8777644223649015 l 30.595095516564506 -6.824990801422154" fill="#daff1b" stroke="none" /><path d="M 79.50377843672027 104.57218783832718 l -31.16528998643155 6.952186743979595 a52.93130439649367,52.93130439649367 0 0,0 -0.19071895374904424,-0.8909754583065221 l 31.280342978905033 -6.414697466256909" fill="#d2ff1c" stroke="none" /><path d="M 79.4281124754447 104.21870165774334 l -30.942003648356145 6.345313813786389 a52.58592403540402,52.58592403540402 0 0,0 -0.17420982188950335,-0.8882921286193749 l 31.046643403221317 -5.81175795809906" fill="#d7ff1c" stroke="none" /><path d="M 79.35854240842038 103.8639653848113 l -31.709620354385454 5.935863534406373 a53.26041690552606,53.26041690552606 0 0,0 -0.1609315683406498,-0.9025897002289752 l 31.80709836506529 -5.389155083444184" fill="#cdff1d" stroke="none" /><path d="M 79.29508885075956 103.50808413554451 l -32.10088491177909 5.438932062265022 a53.558390532967394,53.558390532967394 0 0,0 -0.14618442783726404,-0.9102905716865911 l 32.18975109397764 -4.885562260885217" fill="#c9ff1d" stroke="none" /><path d="M 79.23777060512086 103.15116336523772 l -31.825689963655414 4.830307303685804 a53.190160147330076,53.190160147330076 0 0,0 -0.129596429548439,-0.90639712641951 l 31.904120444220453 -4.281764705285894" fill="#ceff1d" stroke="none" /><path d="M 79.18660465613746 102.79330883721812 l -32.9283587439606 4.419224924861508 a54.22358136185026,54.22358136185026 0 0,0 -0.11618949164352368,-0.9261445682594222 l 32.999549744850974 -3.851762602314677" fill="#bfff1e" stroke="none" /><path d="M 79.07016306316243 101.71520430193888 l -31.43940817625587 2.5764657563774778 a52.54480246042144,52.54480246042144 0 0,0 -0.06611497644319207,-0.902086324973954 l 31.479099711363396 -2.034906294906763" fill="#d8ff1c" stroke="none" /><path d="M 79.0095281055655 100.63252640178507 l -25.94010963876311 0.7816786727918974 a46.951884509964756,46.951884509964756 0 0,0 -0.017389943549489303,-0.8080423442736647 l 25.94972164499761 -0.3350465127281038" fill="#ffd113" stroke="none" /><line stroke="#e1ed5e" stroke-width="0.3" x1="15.007084014347285" x2="10.007500721073583" y1="101.09737516637583" y2="101.16192664675087" /><path d="M 14.007167355692545 101.11028546245083 a86.0,86.0 0 0,1 10.666146001902534,-42.60595125391555" fill="none" id="id10" stroke="none" /><text fill="#e1ed5e" style="font-size:6.75px; font-family:Arial;" text-anchor="middle"><textPath startOffset="22.20632615414155" xlink:href="#id10">October</textPath></text><path d="M 79.00175016825051 100.2711162175752 l -31.159522722829173 0.40231219314711025 a52.16211981581584,52.16211981581584 0 0,0 -0.003864226246796823,-0.8979100909629368 l 31.161831246365473 0.13410737601950193" fill="#ddff1b" stroke="none" /><path d="M 79.00486145842228 99.54816195383935 l -31.185490782677263 -0.6711454271140488 a52.1927118337086,52.1927118337086 0 0,0 0.027061437792089946,-0.8980373748744609 l 31.169317650429527 1.2078529494135042" fill="#ddff1b" stroke="none" /><path d="M 79.16333360222342 97.38593545837743 l -31.599684992984095 -3.9643393280710546 a52.84738730200509,52.84738730200509 0 0,0 0.12100542003907769,-0.9016309304815928 l 31.52676357388718 4.507688600617307" fill="#d3ff1c" stroke="none" /><path d="M 79.21141760316559 97.0276538004421 l -31.869312335994213 -4.556666135101194 a53.19341974745664,53.19341974745664 0 0,0 0.13740140614804588,-0.9053035920305248 l 31.786155036406864 5.104568839523812" fill="#ceff1d" stroke="none" /><path d="M 79.32604984820605 96.31383870115002 l -34.57578277613884 -6.164855357155219 a56.121079085890635,56.121079085890635 0 0,0 0.17775490232359145,-0.9495737959844602 l 34.464542149905384 6.759107230602252" fill="#a4ff21" stroke="none" /><path d="M 79.3925641242962 95.95851677861259 l -32.91897686653853 -6.455994499937369 a54.54607134856361,54.54607134856361 0 0,0 0.1886273384001729,-0.9198138916749676 l 32.80297023222336 7.021684047775739" fill="#baff1f" stroke="none" /><path d="M 79.54389044137918 95.25157060432595 l -33.9693824457302 -7.885234173974297 a55.872566032953394,55.872566032953394 0 0,0 0.2255314745169608,-0.9349735642412081 l 33.82861817095242 8.468792969874903" fill="#a8ff21" stroke="none" /><path d="M 79.62865764111835 94.90015583598534 l -32.85813979066873 -8.225839490580283 a54.872138784374364,54.872138784374364 0 0,0 0.23726626094013173,-0.9142836904014958 l 32.71167719785829 8.790219606530643" fill="#b6ff1f" stroke="none" /><path d="M 79.71946130924805 94.55025226153421 l -31.459593656676912 -8.45376210158108 a53.5756370116281,53.5756370116281 0 0,0 0.24699192562191075,-0.888561370632372 l 31.30941496048864 8.994034775632395" fill="#c8ff1d" stroke="none" /><path d="M 79.81627453868168 94.20196356495316 l -60.551176383954946 -17.394109305140535 a84.0,84.0 0 0,0 0.4111764115531722,-1.3862824530138431 l 60.24279407529007 18.433821144900918" fill="#4dd2ff" stroke="none" /><path d="M 80.02781315780177 93.51064311812611 l -30.425803106861515 -9.885942703123654 a52.99158260897619,52.99158260897619 0 0,0 0.289340869964852,-0.8650923731938448 l 30.251124943124893 10.408208179239821" fill="#d1ff1c" stroke="none" /><path d="M 80.14247586403 93.16781622104843 l -30.821330000985302 -10.604393047016629 a53.59459364565313,53.59459364565313 0 0,0 0.307650626153983,-0.8697697488161835 l 30.63422629402151 11.133360422259424" fill="#c8ff1d" stroke="none" /><path d="M 80.2630227832202 92.82701384747504 l -28.853004788862986 -10.486013209423843 a51.69938693808659,51.69938693808659 0 0,0 0.3111697755358588,-0.8337802945570194 l 28.6682304248255 10.981116641010203" fill="#e4ff1a" stroke="none" /><path d="M 80.38941819471856 92.48833698450439 l -25.953961764873906 -9.941439607991926 a48.792811170730594,48.792811170730594 0 0,0 0.30717735029405996,-0.7817328510631152 l 25.778990864698155 10.386721463950805" fill="#ffee16" stroke="none" /><path d="M 80.52162464483688 92.15188598940014 l -29.243481187576393 -11.782613808502074 a52.52794284644081,52.52794284644081 0 0,0 0.3451293783471436,-0.835758165084331 l 29.03633012234305 12.284246544039716" fill="#d8ff1c" stroke="none" /><path d="M 80.65960295795068 91.81776055985345 l -26.956312490740256 -11.404264490698312 a50.26943852676784,50.26943852676784 0 0,0 0.34400882510899067,-0.7940197981181074 l 26.756012955788584 11.866583433403019" fill="#faff18" stroke="none" /><path d="M 80.95270993114464 91.15688171328213 l -28.51182177091052 -13.237232781068862 a52.43482642542139,52.43482642542139 0 0,0 0.38712334259959946,-0.8153804882758856 l 28.279740234469166 13.72605568498528" fill="#d9ff1c" stroke="none" /><path d="M 81.10775173730289 90.83032412892265 l -26.438145292261964 -12.832206076879153 a50.38777023345337,50.38777023345337 0 0,0 0.3854424170289696,-0.7770283927153008 l 26.213342862279582 13.285394058093416" fill="#f8ff18" stroke="none" /><line stroke="#e1ed5e" stroke-width="0.3" x1="26.266209847984243" x2="21.928928074336255" y1="57.711370442889674" y2="55.22380399835377" /><path d="M 25.398753493254645 57.213857153982495 a86.0,86.0 0 0,1 29.58750427330803,-30.492523968695096" fill="none" id="id11" stroke="none" /><text fill="#e1ed5e" style="font-size:6.75px; font-family:Arial;" text-anchor="middle"><textPath startOffset="21.46611528233685" xlink:href="#id11">November</textPath></text><path d="M 82.15384107792192 88.93136811851018 l -25.546877026754277 -15.844808889436104 a51.06161829580801,51.06161829580801 0 0,0 0.4696997878939221,-0.7429522658001423 l 25.27034964261439 16.282208802950464" fill="#eeff19" stroke="none" /><path d="M 82.54541684631803 88.32363383020206 l -24.615011720074985 -16.466385223117438 a50.614872012141625,50.614872012141625 0 0,0 0.49066426738000235,-0.7199892675896121 l 24.327922987026245 16.887652513977468" fill="#f4ff19" stroke="none" /><path d="M 82.7489923806493 88.02491185347247 l -25.97935800968238 -18.034024969484747 a52.62519721986327,52.62519721986327 0 0,0 0.5229625971484522,-0.7396935063865236 l 25.66508279273005 18.478544976203057" fill="#d6ff1c" stroke="none" /><path d="M 83.39014120810768 87.1503855733568 l -25.009451227468197 -19.347654264933876 a52.619683367398295,52.619683367398295 0 0,0 0.5603894031217106,-0.7116376335296868 l 24.672707743752515 19.77528429241661" fill="#d6ff1c" stroke="none" /><path d="M 83.6137871275137 86.86637796730984 l -24.35761512236783 -19.522736163891775 a52.21587163246174,52.21587163246174 0 0,0 0.568162162169668,-0.6964996305697526 l 24.01795446812177 19.93911996406961" fill="#dcff1b" stroke="none" /><path d="M 84.31358615837235 86.03803664274999 l -25.156363708759123 -22.39085566971784 a54.67778277543682,54.67778277543682 0 0,0 0.6318053194035343,-0.6976552139504274 l 24.767214748739544 22.820563670937826" fill="#b9ff1f" stroke="none" /><path d="M 84.5562425177563 85.77008943001954 l -23.14885223887518 -21.32940105642147 a52.47717759588603,52.47717759588603 0 0,0 0.6178130072601379,-0.6590398403789117 l 22.778271909644584 21.724710313678433" fill="#d9ff1c" stroke="none" /><path d="M 84.80347519578584 85.50635884689758 l -24.11950050682063 -23.0039031714006 a54.330614543054786,54.330614543054786 0 0,0 0.6512836788313314,-0.6712050804873129 l 23.719952564286178 23.415672447438038" fill="#beff1f" stroke="none" /><path d="M 86.65592168130627 83.78471172551755 l -19.842381502753234 -24.111814127219425 a52.226586175987634,52.226586175987634 0 0,0 0.699081708507065,-0.5652754570719639 l 19.42439639568167 24.449795681555525" fill="#dcff1b" stroke="none" /><path d="M 87.51073957382395 83.11751280151077 l -26.045476087768105 -35.207242192557395 a64.79402616161128,64.79402616161128 0 0,0 0.9023484011075629,-0.6555944884822861 l 25.43558237030676 35.650355915856345" fill="#32ff2f" stroke="none" /><path d="M 88.70189139769569 82.29822771554957 l -25.080934719256675 -39.29657703864668 a67.61838964771208,67.61838964771208 0 0,0 0.9865228350233346,-0.6177605087878361 l 24.4007927318611 39.72248188875745" fill="#33ff56" stroke="none" /><line stroke="#e1ed5e" stroke-width="0.3" x1="56.762969772571076" x2="54.21961505331055" y1="26.818313649435495" y2="22.513508569990535" /><path d="M 56.25429882871897 25.957352633546506 a86.0,86.0 0 0,1 42.265352541879196,-11.944610805530505" fill="none" id="id12" stroke="none" /><text fill="#e1ed5e" style="font-size:6.75px; font-family:Arial;" text-anchor="middle"><textPath startOffset="22.20632615414155" xlink:href="#id12">December</textPath></text><path d="M 89.3179101791058 81.91981866633112 l -21.03870381628017 -35.60947215400354 a62.36014464863385,62.36014464863385 0 0,0 0.9288789052394261,-0.5380666168994166 l 20.422628178575422 35.966342928293" fill="#51ff2b" stroke="none" /><path d="M 89.94658935756843 81.56283822128135 l -21.558457955034037 -39.536510658290446 a66.03224161011846,66.03224161011846 0 0,0 1.0026051107726677,-0.5355569277609308 l 20.874707797733063 39.90174631255313" fill="#31ff3e" stroke="none" /><path d="M 90.91171255644093 81.06846463323043 l -20.119035293805894 -41.90935097237782 a67.4883779032927,67.4883779032927 0 0,0 1.0516032254287342,-0.4937418147985763 l 19.39465385707755 42.24945776981641" fill="#33ff54" stroke="none" /><path d="M 91.56875222667455 80.76684994638697 l -17.82738500918966 -40.66738164546181 a65.40328350655528,65.40328350655528 0 0,0 1.034979685860646,-0.44312428809982896 l 17.124721565538703 40.968225461524426" fill="#30ff35" stroke="none" /><path d="M 92.23578459929587 80.48803036053334 l -18.827205285711813 -47.31397043640747 a71.92224913854037,71.92224913854037 0 0,0 1.1542385128940775,-0.4478266108316977 l 18.00998360781806 47.63103975112972" fill="#3aff94" stroke="none" /><path d="M 92.91201910852362 80.23233633223022 l -15.371698058015824 -42.870115180301234 a66.54268192321464,66.54268192321464 0 0,0 1.081534039918375,-0.37732599004997225 l 14.631482014034162 43.128362023523415" fill="#32ff46" stroke="none" /><path d="M 93.59665428221793 80.00007090966166 l -13.484719900820865 -42.117582542912444 a65.2236184641492,65.2236184641492 0 0,0 1.072197482788519,-0.333136977092299 l 12.757737045321617 42.34345965488727" fill="#30ff32" stroke="none" /><path d="M 94.28887869178378 79.79150937346287 l -13.158289078592146 -46.5598867815062 a69.3835057491959,69.3835057491959 0 0,0 1.152103567038219,-0.31491342583592585 l 12.354887622330205 46.779486748168424" fill="#36ff70" stroke="none" /><path d="M 95.33964822691252 79.52364482259891 l -6.932235572911852 -30.458412728427525 a52.23733016718267,52.23733016718267 0 0,0 0.8784758675873967,-0.19200079925790506 l 6.4069169811709346 30.5732270257813" fill="#dcff1b" stroke="none" /><path d="M 97.47563105711357 79.15227682838746 l -5.954364344243962 -49.174642185931575 a70.53382570384005,70.53382570384005 0 0,0 1.206576129602926,-0.13557288679078552 l 5.107021511131318 49.26985102619296" fill="#38ff80" stroke="none" /><path d="M 98.19473922651362 79.07773832637324 l -4.360856439869442 -50.540609365740046 a71.72839701734603,71.72839701734603 0 0,0 1.2310294279221425,-0.09555157620010217 l 3.490236822584966 50.60818620412861" fill="#3aff91" stroke="none" /><path d="M 99.27714615592234 79.0124445844662 l -1.7134518864896013 -49.74887622744363 a70.77837485556174,70.77837485556174 0 0,0 1.2179723560472626,-0.0314566325882354 l 0.8568528952474598 49.770999652174226" fill="#38ff84" stroke="none" /></svg>