<?xml version="1.0" encoding="utf-8" ?>
<svg baseProfile="full" height="200mm" version="1.1" viewBox="0,0,200,200" width="200mm" xmlns="http://www.w3.org/2000/svg" xmlns:ev="http://www.w3.org/2001/xml-events" xmlns:xlink="http://www.w3.org/1999/xlink"><defs /><rect fill="#2b2b2b" height="200" width="200" x="0" y="0" /><text alignment-baseline="middle" fill="#e1ed5e" style="dominant-baseline: central; font-size:9.0px; font-family:Arial;" text-anchor="middle" x="100.0" y="100.0">2023</text><line stroke="#e1ed5e" stroke-width="0.3" x1="100.0" x2="100.0" y1="15.0" y2="10.0" /><path d="M 100.0 14.0 a86.0,86.0 0 0,1 42.46469731375804,11.215312516191453" fill="none" id="id97" stroke="none" /><text fill="#e1ed5e" style="font-size:6.75px; font-family:Arial;" text-anchor="middle"><textPath startOffset="22.20632615414155" xlink:href="#id97">January</textPath></text><line stroke="#e1ed5e" stroke-width="0.3" x1="143.23703022742887" x2="145.7803849466894" y1="26.81831364943548" y2="22.513508569990506" /><path d="M 143.74570117128098 25.957352633546492 a86.0,86.0 0 0,1 28.547481713284135,27.462654790039103" fill="none" id="id98" stroke="none" /><text fill="#e1ed5e" style="font-size:6.75px; font-family:Arial;" text-anchor="middle"><textPath startOffset="19.985693538727396" xlink:href="#id98">February</textPath></text><line stroke="#e1ed5e" stroke-width="0.3" x1="172.23445277983987" x2="176.4835382374775" y1="55.19839476539836" y2="52.563006222186495" /><path d="M 173.08426987136738 54.67131705675599 a86.0,86.0 0 0,1 12.851231095245387,41.99856678651699" fill="none" id="id99" stroke="none" /><text fill="#e1ed5e" style="font-size:6.75px; font-family:Arial;" text-anchor="middle"><textPath startOffset="22.20632615414155" xlink:href="#id99">March</textPath></text><line stroke="#e1ed5e" stroke-width="0.3" x1="184.98032266829074" x2="189.97916517819016" y1="98.17113171792111" y2="98.06355123074" /><path d="M 185.9800911702706 98.14961562048488 a86.0,86.0 0 0,1 -9.607161424134198,41.387399972396054" fill="none" id="id100" stroke="none" /><text fill="#e1ed5e" style="font-size:6.75px; font-family:Arial;" text-anchor="middle"><textPath startOffset="21.466115282336823" xlink:href="#id100">April</textPath></text><line stroke="#e1ed5e" stroke-width="0.3" x1="174.80103733775053" x2="179.2010983576182" y1="140.37084112569926" y2="142.7455964860345" /><path d="M 175.68104954172406 140.8457921977663 a86.0,86.0 0 0,1 -30.038265399797805,32.042727171017184" fill="none" id="id101" stroke="none" /><text fill="#e1ed5e" style="font-size:6.75px; font-family:Arial;" text-anchor="middle"><textPath startOffset="22.206326154141568" xlink:href="#id101">May</textPath></text><line stroke="#e1ed5e" stroke-width="0.3" x1="143.8653032363475" x2="146.44561519142675" y1="172.8068346515853" y2="177.08958963109032" /><path d="M 144.38136562736335 173.6633856474863 a86.0,86.0 0 0,1 -40.68145358897372,12.25698825130547" fill="none" id="id102" stroke="none" /><text fill="#e1ed5e" style="font-size:6.75px; font-family:Arial;" text-anchor="middle"><textPath startOffset="21.466115282336833" xlink:href="#id102">June</textPath></text><path d="M 107.93186726928326 119.44442032107085 l 18.662506283662623 45.74983469900556 a70.4098827743406,70.4098827743406 0 0,0 -1.126152174393517,0.44811919132330447 l -17.87223303322724 -46.064300734734935" fill="#35ff66" stroke="none" /><path d="M 105.53697534728816 120.25689768951611 l 14.91714784566189 54.574044270750605 a77.5760338651905,77.5760338651905 0 0,0 -1.2911221545077625,0.3409970958321529 l -13.97553524834263 -54.82273271588634" fill="#42ffd5" stroke="none" /><path d="M 104.83641907484287 120.43548508189849 l 12.175303115470598 51.44472001568132 a73.86584174535983,73.86584174535983 0 0,0 -1.2398200411130917,0.2821790048498382 l -11.287962924964644 -51.64667575410884" fill="#3bff9d" stroke="none" /><path d="M 102.70371172650421 120.8252237178851 l 8.111135179512624 62.47567115365527 a84.0,84.0 0 0,0 -1.4354903077944787,0.1738178850985963 l -7.034517448666764 -62.60603456747921" fill="#4dd2ff" stroke="none" /><path d="M 102.34483914955558 120.86867818915974 l 5.826047758108718 51.85085544212682 a73.17714099641812,73.17714099641812 0 0,0 -1.2529578369479888,0.12987420283516743 l -4.932657324555127 -51.943459013417744" fill="#3aff93" stroke="none" /><path d="M 101.98527174616119 120.90594882070398 l 5.140239525207952 54.12940805103867 a75.37292412894823,75.37292412894823 0 0,0 -1.2926660434988744,0.11153666548812564 l -4.207729163967536 -54.209868968805466" fill="#3effb4" stroke="none" /><path d="M 101.62511606390274 120.93702456842531 l 4.039222688345859 52.03893219795278 a73.19545750569847,73.19545750569847 0 0,0 -1.25700036754182,0.08669010485974389 l -3.1428595600251086 -52.100750647328816" fill="#3aff93" stroke="none" /><path d="M 101.26447882468166 120.96189622390904 l 3.1914752621509592 52.906677391947184 a74.00284923477696,74.00284923477696 0 0,0 -1.2721862640548993,0.06575749842231322 l -2.2803009296825802 -52.9537746971317" fill="#3bff9f" stroke="none" /><line stroke="#e1ed5e" stroke-width="0.3" x1="102.19456741930631" x2="102.32365962044197" y1="184.97166512339345" y2="189.96999836594603" /><path d="M 102.22038585953345 185.97133177190398 a86.0,86.0 0 0,1 -42.740103519485714,-10.115201625700543" fill="none" id="id103" stroke="none" /><text fill="#e1ed5e" style="font-size:6.75px; font-family:Arial;" text-anchor="middle"><textPath startOffset="22.20632615414155" xlink:href="#id103">July</textPath></text><path d="M 100.54218724476979 120.99299961872073 l 1.349723908314852 52.260088679626726 a73.27751546727451,73.27751546727451 0 0,0 -1.2612118054469772,0.02171290499627834 l -0.449952412975207 -52.275579061902164" fill="#3aff94" stroke="none" /><path d="M 100.18074693466247 120.99922214144158 l 0.47078745526453025 54.69619926316244 a75.69822533376751,75.69822533376751 0 0,0 -1.3030687798539338,0.0 l 0.4707874552644926 -54.69619926316244" fill="#3effb9" stroke="none" /><path d="M 99.09653310690486 120.98055641714683 l -2.2235321756309196 51.63547509344461 a72.68332790621947,72.68332790621947 0 0,0 -1.2495023143600026,-0.06458499732839519 l 3.112022558404411 -51.589550289354015" fill="#39ff8b" stroke="none" /><path d="M 98.73552117531835 120.96189622390904 l -3.1393744053354693 52.042975499574865 a73.13757733637252,73.13757733637252 0 0,0 -1.2560063797098513,-0.08662155363922894 l 4.034743545824251 -51.98122560141935" fill="#3aff92" stroke="none" /><path d="M 98.01472825383883 120.90594882070398 l -4.97767848919451 52.41755540129016 a73.6533702377076,73.6533702377076 0 0,0 -1.2611119565533047,-0.1307194106724304 l 5.8792230423534075 -52.32410662216197" fill="#3bff9a" stroke="none" /><path d="M 97.65516085044442 120.86867818915974 l -4.780621669857874 42.54673724263599 a63.814474112666886,63.814474112666886 0 0,0 -1.0905364176872938,-0.1320487729636128 l 5.512285510596557 -42.45814294094703" fill="#5eff2a" stroke="none" /><path d="M 97.2962882734958 120.8252237178851 l -5.401826617550909 41.60733805048638 a62.95652881797461,62.95652881797461 0 0,0 -1.0734729984685256,-0.14877357607949193 l 6.117228207206265 -41.50818990891429" fill="#6aff28" stroke="none" /><path d="M 96.93821686468263 120.77559828337769 l -5.578848886766221 37.85504009679317 a59.26392054705308,59.26392054705308 0 0,0 -1.0079498572076986,-0.15742103816005992 l 6.229634607582437 -37.753400751286" fill="#a3ff22" stroke="none" /><path d="M 96.58105272829116 120.7198165907248 l -6.23237809925276 37.7700271101356 a59.28077173559101,59.28077173559101 0 0,0 -1.00537656312197,-0.17479760248759785 l 6.8816036338467805 -37.657150929127" fill="#a2ff22" stroke="none" /><path d="M 96.22490169976321 120.6578951692458 l -6.926911135426589 37.90508026594914 a59.53280690328884,59.53280690328884 0 0,0 -1.006479735529395,-0.19289423675616332 l 7.578358485527678 -37.78022883084451" fill="#9fff22" stroke="none" /><path d="M 95.86986931433489 120.58985236759428 l -7.606745088719148 37.921743957946525 a59.67714099641811,59.67714099641811 0 0,0 -1.00544200200072,-0.21070014724873065 l 8.258378552149255 -37.78518782997125" fill="#9cff22" stroke="none" /><path d="M 95.51606077576429 120.51570834832081 l -8.223649246625914 37.62628819560388 a59.51449039400847,59.51449039400847 0 0,0 -0.9989361277638102,-0.22735461042222593 l 8.870105523782586 -37.47915685160396" fill="#9fff22" stroke="none" /><path d="M 95.16358092515715 120.4354850818985 l -12.08216093298068 51.05116320199076 a73.46141322044937,73.46141322044937 0 0,0 -1.228018467102878,-0.30181706167302175 l 12.959132684826768 -50.835624882003714" fill="#3aff97" stroke="none" /><path d="M 94.81253420990036 120.34920634021253 l -9.655824353400336 37.87752442188511 a60.088896125040705,60.088896125040705 0 0,0 -1.0000782607909235,-0.26412975824474993 l 10.306393057002749 -37.70570331433678" fill="#96ff23" stroke="none" /><path d="M 94.11515582081647 120.15858648285463 l -11.227180568810535 38.45880766997512 a61.06406707912733,61.06406707912733 0 0,0 -1.006466751359309,-0.3032401760119051 l 11.88752229461009 -38.25985212485749" fill="#87ff25" stroke="none" /><path d="M 93.42475214034765 119.94407469862007 l -13.582152161688962 41.19745187751309 a64.37862259850212,64.37862259850212 0 0,0 -1.0494643365370848,-0.3560352826763349 l 14.28928623116327 -40.95755360793863" fill="#56ff2b" stroke="none" /><path d="M 92.7421414339146 119.70592522655815 l -13.528848239364008 36.73238729838637 a60.14457831325302,60.14457831325302 0 0,0 -0.9684129994060056,-0.36617093256895417 l 14.159131459530297 -36.49406811571078" fill="#95ff23" stroke="none" /><path d="M 92.40401165467489 119.57807347666478 l -14.179272471563763 36.54598001914705 a60.200260501465316,60.200260501465316 0 0,0 -0.9628570818681905,-0.3831407039808414 l 14.806250629473812 -36.29649247076015" fill="#94ff23" stroke="none" /><path d="M 92.06813273071674 119.44442032107085 l -14.930779875572483 36.60176724669918 a60.529957668511884,60.529957668511884 0 0,0 -0.9613556398980552,-0.4018467354456395 l 15.558606974968 -36.33933546823357" fill="#8fff24" stroke="none" /><path d="M 91.7346041902142 119.30500536409082 l -15.176519377350907 35.446915638463594 a59.559182676652554,59.559182676652554 0 0,0 -0.9389911437391596,-0.41162612300920437 l 15.78443119574781 -35.18042496215993" fill="#9eff22" stroke="none" /><path d="M 91.40352486487194 119.15986991738527 l -16.00577133564144 35.67374905385984 a60.09988603060892,60.09988603060892 0 0,0 -0.9402255243707438,-0.43161142308877953 l 16.617464855779605 -35.39295056043698" fill="#96ff23" stroke="none" /><path d="M 90.42595943632237 118.69057910512821 l -17.786150809463177 34.722378338484454 a60.01269944643439,60.01269944643439 0 0,0 -0.9153625522207655,-0.4788744246159564 l 18.381204264210435 -34.41107449492378" fill="#97ff23" stroke="none" /><line stroke="#e1ed5e" stroke-width="0.3" x1="58.666819895761336" x2="56.23545636021788" y1="174.27360380694188" y2="178.64263932499728" /><path d="M 58.180547188652646 175.14741091055294 a86.0,86.0 0 0,1 -31.652253787137756,-30.449443065178592" fill="none" id="id104" stroke="none" /><text fill="#e1ed5e" style="font-size:6.75px; font-family:Arial;" text-anchor="middle"><textPath startOffset="22.20632615414155" xlink:href="#id104">August</textPath></text><path d="M 89.4739219176387 118.17145234162733 l -20.327469205523865 35.091858050440386 a61.55421686746988,61.55421686746988 0 0,0 -0.9122690458496822,-0.5389846323300251 l 20.928506122401927 -34.73675484581661" fill="#7fff26" stroke="none" /><path d="M 89.1626897886671 117.98757091392108 l -20.96555977177314 34.79825582093748 a61.62601758384891,61.62601758384891 0 0,0 -0.9039092971982263,-0.5552549176333991 l 21.561448268903675 -34.432212436475695" fill="#7eff26" stroke="none" /><path d="M 88.8546689885994 117.79835938074946 l -20.96029409354344 33.472208821925804 a60.493324649951155,60.493324649951155 0 0,0 -0.8777817559773115,-0.5602418474710855 l 21.533357651567673 -33.106452545630916" fill="#90ff24" stroke="none" /><path d="M 88.24862548938628 117.40417183066458 l -21.71834076676072 32.16557639621092 a59.81121784435038,59.81121784435038 0 0,0 -0.8483028312981092,-0.5834704226050285 l 22.268800482681716 -31.786965184240792" fill="#9aff22" stroke="none" /><path d="M 87.95078237400918 117.19931262002967 l -21.979999283361266 31.37472413537489 a59.30788016932596,59.30788016932596 0 0,0 -0.8310803989069314,-0.5929537980669248 l 22.516807010117084 -30.991726075463745" fill="#a2ff22" stroke="none" /><path d="M 87.65650970185807 116.9893568818739 l -23.251921372781464 32.00352419371369 a60.55853142298926,60.55853142298926 0 0,0 -0.8380580667095394,-0.6199753226129957 l 23.79936440990957 -31.598538922360927" fill="#8fff24" stroke="none" /><path d="M 87.36589467227662 116.77436683061367 l -24.020639036875558 31.892326386273382 a60.926326929338984,60.926326929338984 0 0,0 -0.832286327354333,-0.6381616653056396 l 24.566054092723377 -31.474125379140375" fill="#89ff24" stroke="none" /><path d="M 87.07902340077011 116.55440617244103 l -24.14771666363727 30.93814981529337 a60.24641810485184,60.24641810485184 0 0,0 -0.8120141540569341,-0.6451131540213556 l 24.67668831041156 -30.517902747266884" fill="#93ff23" stroke="none" /><path d="M 86.79598089348748 116.32954008644616 l -24.375871063474104 30.145879104091698 a59.767990882448714,59.767990882448714 0 0,0 -0.7944300767695296,-0.6537618686570471 l 24.891171268788323 -29.72182211657747" fill="#9bff22" stroke="none" /><path d="M 86.24171649860922 115.8653595955263 l -16.015916894476142 18.46874871834432 a45.44594594594595,45.44594594594595 0 0,0 -0.5865938656210719,-0.517600884311321 l 16.3314531130038 -18.19032469226071" fill="#ff6909" stroke="none" /><path d="M 85.97065885151581 115.62618273729859 l -26.21519802431728 29.199052933908504 a60.24055682188212,60.24055682188212 0 0,0 -0.7656300836251373,-0.699384928477488 l 26.713927657409272 -28.743475238844443" fill="#94ff23" stroke="none" /><path d="M 85.70375840098266 115.38237550388516 l -26.80121340471685 28.837392380068096 a60.368772386844675,60.368772386844675 0 0,0 -0.7550815822781546,-0.7139767658600429 l 27.293630821385822 -28.371780977462123" fill="#92ff23" stroke="none" /><path d="M 85.44109423537348 115.13401014063109 l -27.058454749061013 28.127315004473612 a60.02955063497233,60.02955063497233 0 0,0 -0.7385065364478464,-0.7227840809360546 l 27.538611237884655 -27.65738082061499" fill="#97ff23" stroke="none" /><path d="M 85.18274418774928 114.88116024355367 l -27.512246627249745 27.630902503672345 a59.99218495604038,59.99218495604038 0 0,0 -0.7255037044280408,-0.7349314222291214 l 27.98379095673332 -27.15323058746256" fill="#97ff23" stroke="none" /><path d="M 84.9287848128048 114.62390073753433 l -27.925425665560873 27.096597581164012 a59.910859654835555,59.910859654835555 0 0,0 -0.7117793802445811,-0.7462978345299807 l 28.38771159718441 -26.611892630051532" fill="#99ff23" stroke="none" /><path d="M 84.43433777217949 114.09645910891817 l -27.93955634380063 25.302412949561173 a58.69391077824813,58.69391077824813 0 0,0 -0.6717410492896168,-0.7547081899548617 l 28.370956242738583 -24.817730589865448" fill="#acff21" stroke="none" /><path d="M 84.19399662182784 113.82643327865904 l -33.214885640114886 29.054998229061884 a65.12959947899708,65.12959947899708 0 0,0 -0.7308703793276555,-0.8501673685538268 l 33.710098529013315 -28.478953761346528" fill="#4bff2c" stroke="none" /><line stroke="#e1ed5e" stroke-width="0.3" x1="26.63291911575756" x2="22.317208475507996" y1="142.92168965132927" y2="145.44649492493687" /><path d="M 25.769776987707644 143.4266507060508 a86.0,86.0 0 0,1 -11.730757126820373,-40.83630448921669" fill="none" id="id105" stroke="none" /><text fill="#e1ed5e" style="font-size:6.75px; font-family:Arial;" text-anchor="middle"><textPath startOffset="21.46611528233685" xlink:href="#id105">September</textPath></text><path d="M 81.87401531095188 110.60418214915194 l -33.209962527749084 19.42870954886894 a59.475659394334095,59.475659394334095 0 0,0 -0.5093608866472429,-0.8881136400263866 l 33.539475410548704 -18.854176062984248" fill="#9fff22" stroke="none" /><path d="M 81.35079622478065 109.6543875284942 l -33.722249004483544 17.45745631533443 a58.97305437968088,58.97305437968088 0 0,0 -0.4589264282616323,-0.9055053813217442 l 34.01775410253145 -16.87439672231" fill="#a7ff21" stroke="none" /><path d="M 79.58551787078972 104.9243191809786 l -37.79817765027178 9.11756125044894 a59.88228590035819,59.88228590035819 0 0,0 -0.23308305525142736,-1.0041157016728415 l 37.94952127145376 -8.465576891427524" fill="#99ff23" stroke="none" /><path d="M 79.4281124754447 104.21870165774334 l -37.98483190734396 7.789595055161484 a59.77531748616086,59.77531748616086 0 0,0 -0.19802727828157277,-1.009736825636686 l 38.1132891186012 -7.134594502456843" fill="#9bff22" stroke="none" /><path d="M 79.23777060512086 103.15116336523772 l -18.960975367738165 2.8777801175209086 a40.178117876913056,40.178117876913056 0 0,0 -0.09789292997805736,-0.6846629242646929 l 19.00770234873282 -2.550971721275815" fill="#ff0000" stroke="none" /><path d="M 79.1416061653843 102.43462659150553 l -38.22785574241281 4.462019217043442 a59.48738196027354,59.48738196027354 0 0,0 -0.10996015511550777,-1.018094470379389 l 38.29899819902937 -3.8033284247792705" fill="#9fff22" stroke="none" /><path d="M 79.10278846688536 102.07522291339032 l -37.55315526518826 3.7292615884626343 a58.73787040052101,58.73787040052101 0 0,0 -0.0912546064591345,-1.00698697815285 l 37.61178446792447 -3.0822932217612182" fill="#abff21" stroke="none" /><path d="M 79.07016306316243 101.71520430193888 l -38.06743705602699 3.1196340420295057 a59.195050472158904,59.195050472158904 0 0,0 -0.07448271159584757,-1.0162574229353998 l 38.11549632628717 -2.4639034825973454" fill="#a4ff21" stroke="none" /><path d="M 79.04373962182676 101.35467743843564 l -38.97238579330184 2.519295466054801 a60.0537284272224,60.0537284272224 0 0,0 -0.05780499972968288,-1.0321471013759582 l 39.00997714391905 -1.8480766483434055" fill="#96ff23" stroke="none" /><line stroke="#e1ed5e" stroke-width="0.3" x1="15.007084014347285" x2="10.007500721073583" y1="101.09737516637583" y2="101.16192664675087" /><path d="M 14.007167355692545 101.11028546245083 a86.0,86.0 0 0,1 10.666146001902534,-42.60595125391555" fill="none" id="id106" stroke="none" /><text fill="#e1ed5e" style="font-size:6.75px; font-family:Arial;" text-anchor="middle"><textPath startOffset="22.20632615414155" xlink:href="#id106">October</textPath></text><path d="M 79.01574976396665 99.18683210126434 l -38.95049537055226 -1.50938404369562 a59.97972972972973,59.97972972972973 0 0,0 0.048858893085981694,-1.0313340111028149 l 38.91874286923278 2.179629161421444" fill="#98ff23" stroke="none" /><path d="M 79.03285615573316 98.82574320788736 l -38.59468213786293 -2.161480265334575 a59.65516118528167,59.65516118528167 0 0,0 0.06624395725605901,-1.0247646984817105 l 38.55175758960246 2.825504028069297" fill="#9dff22" stroke="none" /><path d="M 79.12142395522702 97.74499172005258 l -38.248090580974335 -4.131017401154093 a59.470530771735596,59.470530771735596 0 0,0 0.11868518815869723,-1.0168222123207455 l 38.17131503981205 4.7887833517997" fill="#9fff22" stroke="none" /><path d="M 79.16333360222342 97.38593545837743 l -38.15241403061278 -4.7864121251838165 a59.451481602084016,59.451481602084016 0 0,0 0.13612690939846575,-1.0143035902431934 l 38.06437112215648 5.44243405749167" fill="#a0ff22" stroke="none" /><path d="M 79.3925641242962 95.95851677861259 l -39.52794170152763 -7.752129577219789 a61.28093454900684,61.28093454900684 0 0,0 0.21191736256838148,-1.0333843208028821 l 39.38864504304425 8.431389554186074" fill="#84ff25" stroke="none" /><path d="M 79.46518482838121 95.60439243477599 l -39.4280487331326 -8.43982416422773 a61.32123086942364,61.32123086942364 0 0,0 0.2298250031127411,-1.0302604247999807 l 39.27692934301782 9.11726275857767" fill="#83ff25" stroke="none" /><path d="M 79.54389044137918 95.25157060432595 l -38.643177239652644 -8.970151348728907 a60.67062845978509,60.67062845978509 0 0,0 0.2448990133786904,-1.0152645164416279 l 38.483045426013135 9.634001096829932" fill="#8dff24" stroke="none" /><path d="M 79.62865764111835 94.90015583598534 l -38.47735960686845 -9.63257768588961 a60.664767176815374,60.664767176815374 0 0,0 0.2623134945661245,-1.0108008989720791 l 38.30584978043202 10.293475010410553" fill="#8dff24" stroke="none" /><path d="M 79.71946130924805 94.55025226153421 l -38.21740485777965 -10.269708259213587 a60.57318463041355,60.57318463041355 0 0,0 0.279251696245258,-1.0046169296519274 l 38.03496639096803 10.926036492284457" fill="#8eff24" stroke="none" /><path d="M 79.81627453868168 94.20196356495316 l -38.14552291853328 -10.957795286080184 a60.68821230869424,60.68821230869424 0 0,0 0.29706620667459466,-1.0015595693847805 l 37.95125081474698 11.612784242211506" fill="#8dff24" stroke="none" /><path d="M 80.02781315780177 93.51064311812611 l -37.74712653912973 -12.264784888759099 a60.689677629436666,60.689677629436666 0 0,0 0.3313734608147587,-0.9907644698259205 l 37.530415784543194 12.912722461507341" fill="#8dff24" stroke="none" /><path d="M 80.14247586403 93.16781622104843 l -40.41731755250804 -13.905990468911556 a63.742673396287856,63.742673396287856 0 0,0 0.3659039475651912,-1.034459732922296 l 40.17196052413304 14.599647828260464" fill="#5fff29" stroke="none" /><path d="M 80.38941819471856 92.48833698450439 l -36.570400802696824 -14.007974362978194 a60.161429501790955,60.161429501790955 0 0,0 0.3787490013559373,-0.9638748963224258 l 36.3238582514592 14.635398264196382" fill="#95ff23" stroke="none" /><path d="M 80.52162464483688 92.15188598940014 l -36.20425339743856 -14.587207770201909 a60.03248127645718,60.03248127645718 0 0,0 0.39443716659816,-0.9551608853928478 l 35.9477945439542 15.208243226048069" fill="#97ff23" stroke="none" /><path d="M 80.65960295795068 91.81776055985345 l -36.16574175442248 -15.300448999150154 a60.2691305763595,60.2691305763595 0 0,0 0.41243971302511473,-0.9519677222476377 l 35.89701133155469 15.920715865984391" fill="#93ff23" stroke="none" /><path d="M 80.803312248108 91.48605970444005 l -36.089897992689195 -16.006263203000763 a60.4801367632693,60.4801367632693 0 0,0 0.430266300103431,-0.948034758318562 l 35.809029375622416 16.625119970161396" fill="#90ff24" stroke="none" /><path d="M 80.95270993114464 91.15688171328213 l -36.365243560891244 -16.883354491466097 a61.09337349397591,61.09337349397591 0 0,0 0.45104890337173753,-0.9500240223125482 l 36.069236463677754 17.506820929419177" fill="#86ff25" stroke="none" /><path d="M 81.43458229118936 90.18545643968196 l -35.07669549017065 -18.54317318575138 a60.676489742754804,60.676489742754804 0 0,0 0.49607913603259385,-0.9191592977048793 l 34.75230825491958 19.144213466788734" fill="#8dff24" stroke="none" /><path d="M 81.6062741919709 89.86733742301443 l -34.61626125285062 -19.069268434935886 a60.52116574405731,60.52116574405731 0 0,0 0.5105172405540027,-0.9081532059010711 l 34.28288637100418 19.662305150771743" fill="#8fff24" stroke="none" /><line stroke="#e1ed5e" stroke-width="0.3" x1="26.266209847984243" x2="21.928928074336255" y1="57.711370442889674" y2="55.22380399835377" /><path d="M 25.398753493254645 57.213857153982495 a86.0,86.0 0 0,1 29.58750427330803,-30.492523968695096" fill="none" id="id107" stroke="none" /><text fill="#e1ed5e" style="font-size:6.75px; font-family:Arial;" text-anchor="middle"><textPath startOffset="21.46611528233685" xlink:href="#id107">November</textPath></text><path d="M 81.78341655067845 89.55222093294921 l -34.71442542861999 -19.909806266736556 a61.01864213611202,61.01864213611202 0 0,0 0.5303982285192683,-0.9066225036512977 l 34.3665675256304 20.50440818274175" fill="#88ff25" stroke="none" /><path d="M 81.96595687620814 89.24020034530311 l -33.93746518307936 -20.24838931855709 a60.51896776294367,60.51896776294367 0 0,0 0.5414551403182306,-0.8900098846399604 l 33.58389424447491 20.829566976404127" fill="#8fff24" stroke="none" /><path d="M 82.15384107792192 88.93136811851018 l -33.28876890155271 -20.646522894259196 a60.17168674698795,60.17168674698795 0 0,0 0.5535004460405054,-0.8755047822164539 l 32.92844085926624 21.216475324189865" fill="#95ff23" stroke="none" /><path d="M 82.34701348167596 88.62581576622439 l -33.72108844901422 -21.727194556252567 a61.11462064474113,61.11462064474113 0 0,0 0.5773974459400452,-0.8794159231284913 l 33.34209436771625 22.304428543358725" fill="#86ff25" stroke="none" /><path d="M 82.54541684631803 88.32363383020206 l -33.287896413326884 -22.268172440561404 a61.04941387170303,61.04941387170303 0 0,0 0.5918174785496266,-0.8684191233303633 l 32.89965446910851 22.83786958716218" fill="#87ff25" stroke="none" /><path d="M 82.7489923806493 88.02491185347247 l -32.45788679480732 -22.531208842655346 a60.511641159231516,60.511641159231516 0 0,0 0.6013340888041827,-0.8505444234113094 l 32.06524008619926 23.08657976639844" fill="#8fff24" stroke="none" /><path d="M 82.95767976084542 87.72973835380427 l -32.290586856817484 -23.24882667866207 a60.789319439921854,60.789319439921854 0 0,0 0.6187119201982427,-0.8439223638279694 l 31.885612324105608 23.80121148616154" fill="#8bff24" stroke="none" /><path d="M 84.07557802195018 86.31012108654704 l -29.898570803440627 -25.70315045334714 a60.42811787691306,60.42811787691306 0 0,0 0.6848754153991655,-0.7829309924877562 l 29.451703524463618 26.21399700203784" fill="#91ff24" stroke="none" /><path d="M 84.31358615837235 86.03803664274999 l -29.947536347898797 -26.655321563662785 a61.091908173233485,61.091908173233485 0 0,0 0.7059209535778916,-0.7794955483524829 l 29.48427175370486 27.166869899284823" fill="#86ff25" stroke="none" /><path d="M 84.80347519578584 85.50635884689758 l -28.413691118787916 -27.099474927096725 a60.2647346141322,60.2647346141322 0 0,0 0.722418444801178,-0.7445157097416998 l 27.943008410283618 27.58455483238855" fill="#93ff23" stroke="none" /><path d="M 85.05521093208273 85.24692304244772 l -28.272013454075402 -27.909339391636898 a60.727043308368614,60.727043308368614 0 0,0 0.7407664027282459,-0.7375853163801432 l 27.787411251179844 28.39186055866715" fill="#8cff24" stroke="none" /><path d="M 85.31137513191541 84.99185889309783 l -28.96659413093501 -29.596693768660934 a62.412894822533374,62.412894822533374 0 0,0 0.7742669007583385,-0.7448441450786522 l 28.452843986564247 30.090921000501897" fill="#73ff27" stroke="none" /><path d="M 86.10567301691215 84.25364557470407 l -25.951276749300174 -29.410420668868383 a60.222972972972975,60.222972972972975 0 0,0 0.7832032087069846,-0.6791861047781168 l 25.441179741946417 29.85277176706618" fill="#94ff23" stroke="none" /><path d="M 86.37877921826538 84.01681056812374 l -26.050418416256218 -30.567654617638308 a61.162243568870075,61.162243568870075 0 0,0 0.8071740394182602,-0.6759850449301185 l 25.520386839878846 31.01154081996224" fill="#85ff25" stroke="none" /><path d="M 86.65592168130627 83.78471172551755 l -25.860708323724218 -31.425088375271585 a61.697818300227944,61.697818300227944 0 0,0 0.8258593828656687,-0.6677875196070059 l 25.31594554229405 31.865581992142726" fill="#7dff26" stroke="none" /><path d="M 86.93701828274178 83.55741782278169 l -24.69430390407684 -31.083111807126468 a60.698469553891236,60.698469553891236 0 0,0 0.8236708464050373,-0.6428881604696057 l 24.155600502512378 31.503578356819297" fill="#8cff24" stroke="none" /><path d="M 88.09926311788651 82.69761687909137 l -22.905749138685756 -33.302479602303364 a61.4194073591664,61.4194073591664 0 0,0 0.8762364817685092,-0.5916387839254783 l 22.329107962510705 33.691830298527506" fill="#81ff25" stroke="none" /><path d="M 88.39885842347998 82.49532879139004 l -21.04079679218241 -31.747929924393713 a59.087349397590366,59.087349397590366 0 0,0 0.8526388203083246,-0.5545800064203101 l 20.491190946089795 32.10540885497356" fill="#a5ff21" stroke="none" /><path d="M 88.70189139769569 82.29822771554957 l -21.388333402438754 -33.51104337558373 a60.75488440247477,60.75488440247477 0 0,0 0.8863872847979362,-0.5550556364231443 l 20.808326965268574 33.87424335332981" fill="#8cff24" stroke="none" /><path d="M 89.00827224532344 82.1063720568725 l -21.81305995303149 -35.50986594756368 a62.67445457505699,62.67445457505699 0 0,0 0.9241137435979263,-0.5567681905385065 l 21.198584143215914 35.880080747560804" fill="#6fff28" stroke="none" /><line stroke="#e1ed5e" stroke-width="0.3" x1="56.762969772571076" x2="54.21961505331055" y1="26.818313649435495" y2="22.513508569990535" /><path d="M 56.25429882871897 25.957352633546506 a86.0,86.0 0 0,1 42.265352541879196,-11.944610805530505" fill="none" id="id108" stroke="none" /><text fill="#e1ed5e" style="font-size:6.75px; font-family:Arial;" text-anchor="middle"><textPath startOffset="22.20632615414155" xlink:href="#id108">December</textPath></text><path d="M 89.94658935756843 81.56283822128135 l -19.070941647100387 -34.97460204560486 a60.836209703679586,60.836209703679586 0 0,0 0.9237108006886198,-0.4934143195970159 l 18.466085799883462 35.29769509170362" fill="#8aff24" stroke="none" /><path d="M 90.58718382345135 81.22770947309562 l -18.234074709960225 -36.36481808679721 a61.68023445131879,61.68023445131879 0 0,0 0.9531908731898266,-0.46772662181173447 l 17.605412569759974 36.67329986874377" fill="#7eff26" stroke="none" /><path d="M 90.91171255644093 81.06846463323043 l -17.278188562628063 -35.99166948432364 a60.92412894822534,60.92412894822534 0 0,0 0.9493191642596,-0.4457180766001436 l 16.656091187068856 36.283752543563786" fill="#89ff24" stroke="none" /><path d="M 91.23893434514133 80.91482961587045 l -16.87952953871217 -36.770492305535186 a61.45970367958321,61.45970367958321 0 0,0 0.9652623460599964,-0.43308507795508544 l 16.2440850741854 37.0555977140068" fill="#81ff25" stroke="none" /><path d="M 91.56875222667455 80.76684994638697 l -16.83680606769324 -38.40769791489635 a62.9360143275806,62.9360143275806 0 0,0 0.9959361800474716,-0.4264078965080486 l 16.17318612985546 38.691825339367185" fill="#6bff28" stroke="none" /><path d="M 92.23578459929587 80.48803036053334 l -14.765535328545209 -37.106734186550035 a60.93658417453598,60.93658417453598 0 0,0 0.9779359397253774,-0.3794239514670541 l 14.124616223820155 37.35540084190764" fill="#89ff24" stroke="none" /><path d="M 92.91201910852362 80.23233633223022 l -13.52921691070869 -37.73162113075145 a61.08384890915012,61.08384890915012 0 0,0 0.9928103282748664,-0.34637202919329707 l 12.87772457837054 37.95891401311695" fill="#87ff25" stroke="none" /><path d="M 93.25333710446033 80.11325718540243 l -13.083448052717015 -38.56531304158458 a61.72419407359166,61.72419407359166 0 0,0 1.009094100414633,-0.33268245953762415 l 12.417671130059972 38.78480922538144" fill="#7dff26" stroke="none" /><path d="M 93.59665428221793 80.00007090966166 l -12.359362764973877 -38.60269143594879 a61.53296971670466,61.53296971670466 0 0,0 1.0115276765121055,-0.3142865729567334 l 11.693049715751043 38.809718143788054" fill="#80ff26" stroke="none" /><path d="M 98.19473922651362 79.07773832637324 l -3.433518318833211 -39.793125615356665 a60.94098013676327,60.94098013676327 0 0,0 1.0458917671983146,-0.08118133053828981 l 2.748036362272562 39.84633220808342" fill="#89ff24" stroke="none" /><path d="M 98.55514903715128 79.0497635885617 l -2.828740869582447 -41.016541835986594 a62.11396939107783,62.11396939107783 0 0,0 1.0672894025483284,-0.0643818114026421 l 2.122289418194496 41.059156916769545" fill="#77ff27" stroke="none" /><path d="M 98.91598698831166 79.02799685794201 l -2.256019822762457 -43.64639012757745 a64.7046564636926,64.7046564636926 0 0,0 1.112794279474379,-0.04791926249912033 l 1.5043847108987538 43.678757116600764" fill="#51ff2b" stroke="none" /><path d="M 99.63851952072746 79.00311137660856 l -0.7067004745958544 -41.04927376728252 a62.05535656138067,62.05535656138067 0 0,0 1.06818095386838,-0.009194170706707616 l 1.0055662200149625e-14 41.05535656138067" fill="#78ff26" stroke="none" /></svg>