<?xml version="1.0" encoding="utf-8" ?>
<svg baseProfile="full" height="200mm" version="1.1" viewBox="0,0,200,200" width="200mm" xmlns="http://www.w3.org/2000/svg" xmlns:ev="http://www.w3.org/2001/xml-events" xmlns:xlink="http://www.w3.org/1999/xlink"><defs /><rect fill="#2b2b2b" height="200" width="200" x="0" y="0" /><text alignment-baseline="middle" fill="#e1ed5e" style="dominant-baseline: central; font-size:9.0px; font-family:Arial;" text-anchor="middle" x="100.0" y="100.0">2017</text><line stroke="#e1ed5e" stroke-width="0.3" x1="100.0" x2="100.0" y1="15.0" y2="10.0" /><path d="M 100.0 14.0 a86.0,86.0 0 0,1 42.46469731375804,11.215312516191453" fill="none" id="id25" stroke="none" /><text fill="#e1ed5e" style="font-size:6.75px; font-family:Arial;" text-anchor="middle"><textPath startOffset="22.20632615414155" xlink:href="#id25">January</textPath></text><line stroke="#e1ed5e" stroke-width="0.3" x1="143.23703022742887" x2="145.7803849466894" y1="26.81831364943548" y2="22.513508569990506" /><path d="M 143.74570117128098 25.957352633546492 a86.0,86.0 0 0,1 28.547481713284135,27.462654790039103" fill="none" id="id26" stroke="none" /><text fill="#e1ed5e" style="font-size:6.75px; font-family:Arial;" text-anchor="middle"><textPath startOffset="19.985693538727396" xlink:href="#id26">February</textPath></text><line stroke="#e1ed5e" stroke-width="0.3" x1="172.23445277983987" x2="176.4835382374775" y1="55.19839476539836" y2="52.563006222186495" /><path d="M 173.08426987136738 54.67131705675599 a86.0,86.0 0 0,1 12.851231095245387,41.99856678651699" fill="none" id="id27" stroke="none" /><text fill="#e1ed5e" style="font-size:6.75px; font-family:Arial;" text-anchor="middle"><textPath startOffset="22.20632615414155" xlink:href="#id27">March</textPath></text><path d="M 119.196687751892 91.48605970444005 l 14.824319086217661 -6.574747125839323 a37.2168966247778,37.2168966247778 0 0,0 0.2546863712288166,0.5878512593462273 l -14.93529616728916 6.318596721906493" fill="#ff0000" stroke="none" /><path d="M 119.97218684219823 93.5106431181261 l 18.98135710671745 -6.167416785202953 a40.95817996248997,40.95817996248997 0 0,0 0.21209416503598683,0.6723964631211996 l -19.084706755521644 5.839770155655334" fill="#ff4706" stroke="none" /><path d="M 120.37134235888165 94.90015583598534 l 19.473108254611386 -4.874976608706766 a41.0740464787559,41.0740464787559 0 0,0 0.16579675723624684,0.6873345965782282 l -19.55413781210845 4.5390567804691315" fill="#ff4906" stroke="none" /><path d="M 120.91429891909075 98.10471618934814 l 21.919457669783565 -1.98637274051239 a43.00927761653445,43.00927761653445 0 0,0 0.06047005343708715,0.7378878169611803 l -21.950402207040145 1.608771006343441" fill="#ff6c0a" stroke="none" /><line stroke="#e1ed5e" stroke-width="0.3" x1="184.98032266829074" x2="189.97916517819016" y1="98.17113171792111" y2="98.06355123074" /><path d="M 185.9800911702706 98.14961562048488 a86.0,86.0 0 0,1 -9.607161424134198,41.387399972396054" fill="none" id="id28" stroke="none" /><text fill="#e1ed5e" style="font-size:6.75px; font-family:Arial;" text-anchor="middle"><textPath startOffset="21.466115282336823" xlink:href="#id28">April</textPath></text><path d="M 120.99980553446 99.90962569577887 l 20.091964658993533 -0.08646734006714545 a41.092150717609684,41.092150717609684 0 0,0 -0.0030441509643588612,0.7073534764115027 l -20.09047621073967 -0.25939561454804194" fill="#ff4906" stroke="none" /><path d="M 120.9904718944345 100.63252640178507 l 22.210721321379037 0.6692973702124247 a43.220803328991835,43.220803328991835 0 0,0 -0.028809479193500114,0.7434446459411732 l -22.195909709334334 -1.051519263167604" fill="#ff700a" stroke="none" /><path d="M 120.92983693683757 101.71520430193887 l 27.75047752615642 2.2741571555173947 a48.843505413250384,48.843505413250384 0 0,0 -0.07588281349286428,0.8373605236808943 l -27.70722011638648 -2.7514990677468596" fill="#ffd213" stroke="none" /><path d="M 120.64145759157962 103.86396538481128 l 27.121042187355123 5.076907371827079 a48.59213507125551,48.59213507125551 0 0,0 -0.16097895684584895,0.820828232808961 l -27.02963329753361 -5.542999331703984" fill="#ffce13" stroke="none" /><path d="M 120.49622156327973 104.57218783832717 l 27.059344317326524 6.036254273443284 a48.72443832681365,48.72443832681365 0 0,0 -0.1896527625802585,0.8170191375218063 l -26.951430988815712 -6.501142068313655" fill="#ffd013" stroke="none" /><path d="M 120.41448212921028 104.9243191809786 l 27.088831399612566 6.534285376778637 a48.86577958683049,48.86577958683049 0 0,0 -0.20427916980357586,0.8159937384402131 l -26.97234091551393 -6.9996069546162465" fill="#ffd213" stroke="none" /><path d="M 120.23288151984713 105.62410040840565 l 27.030805810677084 7.513708111730774 a49.0556638196786,49.0556638196786 0 0,0 -0.23314840245924276,0.8116201751575083 l -26.89746477133174 -7.977885762392864" fill="#ffd513" stroke="none" /><path d="M 120.02730092923936 106.31721596034902 l 26.74335745589176 8.435663155539098 a49.04224635950767,49.04224635950767 0 0,0 -0.2608761402822504,0.8028942021885097 l -26.594189064593262 -8.894756257705403" fill="#ffd513" stroke="none" /><path d="M 119.67450827220406 107.3425965602758 l 26.43246712430027 9.864690873148199 a49.21324944596046,49.21324944596046 0 0,0 -0.303026413007351,0.7911063434532424 l -26.258746431699414 -10.318220783434585" fill="#ffd814" stroke="none" /><line stroke="#e1ed5e" stroke-width="0.3" x1="174.80103733775053" x2="179.2010983576182" y1="140.37084112569926" y2="142.7455964860345" /><path d="M 175.68104954172406 140.8457921977663 a86.0,86.0 0 0,1 -30.038265399797805,32.042727171017184" fill="none" id="id29" stroke="none" /><text fill="#e1ed5e" style="font-size:6.75px; font-family:Arial;" text-anchor="middle"><textPath startOffset="22.206326154141568" xlink:href="#id29">May</textPath></text><path d="M 112.04921762599082 117.19931262002967 l 12.906764027732429 18.423392814076514 a43.49457624516039,43.49457624516039 0 0,0 -0.616883813850767,0.4242983122134849 l -12.587723329258779 -18.642831915655098" fill="#ff750a" stroke="none" /><path d="M 111.7513745106137 117.40417183066458 l 12.133378442860101 17.969932207954997 a42.682650575890406,42.682650575890406 0 0,0 -0.6124458353979534,0.4058957040510996 l -11.822257908722182 -18.176125933097413" fill="#ff6609" stroke="none" /><line stroke="#e1ed5e" stroke-width="0.3" x1="143.8653032363475" x2="146.44561519142675" y1="172.8068346515853" y2="177.08958963109032" /><path d="M 144.38136562736335 173.6633856474863 a86.0,86.0 0 0,1 -40.68145358897372,12.25698825130547" fill="none" id="id30" stroke="none" /><text fill="#e1ed5e" style="font-size:6.75px; font-family:Arial;" text-anchor="middle"><textPath startOffset="21.466115282336833" xlink:href="#id30">June</textPath></text><path d="M 105.53697534728816 120.25689768951611 l 6.135615895882521 22.447010446946223 a44.27045466739142,44.27045466739142 0 0,0 -0.7368070003492215,0.19459742552684547 l -5.748318452721802 -22.54929922177665" fill="#ff830c" stroke="none" /><path d="M 101.98527174616119 120.90594882070398 l 2.0650786187326275 21.74635688914351 a42.8441888760271,42.8441888760271 0 0,0 -0.7347894321645614,0.0634007240398435 l -1.6904448688265243 -21.778681865462016" fill="#ff6909" stroke="none" /><path d="M 101.62511606390274 120.93702456842531 l 1.2995523511579032 16.74265617608 a37.79301557623972,37.79301557623972 0 0,0 -0.6490270856787607,0.0447607077668049 l -1.0111625047002122 -16.76254522836309" fill="#ff0b01" stroke="none" /><line stroke="#e1ed5e" stroke-width="0.3" x1="102.19456741930631" x2="102.32365962044197" y1="184.97166512339345" y2="189.96999836594603" /><path d="M 102.22038585953345 185.97133177190398 a86.0,86.0 0 0,1 -42.740103519485714,-10.115201625700543" fill="none" id="id31" stroke="none" /><text fill="#e1ed5e" style="font-size:6.75px; font-family:Arial;" text-anchor="middle"><textPath startOffset="22.20632615414155" xlink:href="#id31">July</textPath></text><path d="M 100.54218724476979 120.99299961872073 l 0.6248792352217968 24.194758680329056 a45.202826728668896,45.202826728668896 0 0,0 -0.778005890978004,0.01339407696977863 l -0.20831365435112484 -24.201930234577993" fill="#ff930d" stroke="none" /><path d="M 99.45781275523022 120.99299961872073 l -0.6180483063599833 23.930271294514405 a44.93825114618974,44.93825114618974 0 0,0 -0.7731083604977143,-0.026627415113850524 l 1.0298770185323407 -23.91608708097446" fill="#ff8f0d" stroke="none" /><path d="M 98.37488393609728 120.93702456842531 l -1.691466887163404 21.79184893918939 a42.85739555433858,42.85739555433858 0 0,0 -0.7350159302711157,-0.06342026724953133 l 2.0663271351760613 -21.759504419661194" fill="#ff6a09" stroke="none" /><path d="M 98.01472825383883 120.90594882070398 l -2.0945858480751642 22.05708343208101 a43.156313308056,43.156313308056 0 0,0 -0.7389335007739606,-0.0765934786720145 l 2.473951945454718 -22.017760584953237" fill="#ff6f0a" stroke="none" /><path d="M 97.65516085044442 120.86867818915974 l -2.671732426674502 23.777973952021544 a44.927603294579235,44.927603294579235 0 0,0 -0.7677754652595495,-0.09296691651443939 l 3.080635314985441 -23.728461506781755" fill="#ff8f0d" stroke="none" /><path d="M 93.42475214034765 119.94407469862007 l -8.382642373637147 25.426272779392452 a47.7724492831039,47.7724492831039 0 0,0 -0.7787597772060855,-0.26419759849050434 l 8.819071883780458 -25.278212194003824" fill="#ffc011" stroke="none" /><path d="M 92.40401165467489 119.57807347666478 l -8.856023046311659 22.825715631651004 a45.483513601887296,45.483513601887296 0 0,0 -0.7274739812589246,-0.289476910494849 l 9.247618103612442 -22.66989187675009" fill="#ff980e" stroke="none" /><line stroke="#e1ed5e" stroke-width="0.3" x1="58.666819895761336" x2="56.23545636021788" y1="174.27360380694188" y2="178.64263932499728" /><path d="M 58.180547188652646 175.14741091055294 a86.0,86.0 0 0,1 -31.652253787137756,-30.449443065178592" fill="none" id="id32" stroke="none" /><text fill="#e1ed5e" style="font-size:6.75px; font-family:Arial;" text-anchor="middle"><textPath startOffset="22.20632615414155" xlink:href="#id32">August</textPath></text><path d="M 87.36589467227662 116.77436683061367 l -14.437055160590248 19.168152626220323 a44.99680472087904,44.99680472087904 0 0,0 -0.6146805040004214,-0.4713107991461906 l 14.764864393084155 -18.916802485246766" fill="#ff900d" stroke="none" /><path d="M 86.79598089348748 116.32954008644616 l -25.67427921519084 31.751633215093356 a61.83301146187237,61.83301146187237 0 0,0 -0.8218781210022484,-0.6763497404072368 l 26.21702746473778 -31.304988355828936" fill="#66ff29" stroke="none" /><path d="M 85.44109423537348 115.13401014063109 l -20.407186632407374 21.21330918886727 a50.43565445157262,50.43565445157262 0 0,0 -0.6204787490248462,-0.6072690493863266 l 20.769315333808013 -20.85889003655837" fill="#ffec16" stroke="none" /><path d="M 84.19399662182784 113.82643327865904 l -20.337699750585898 17.790572475215715 a48.02085306093952,48.02085306093952 0 0,0 -0.538879700981495,-0.6268388353239356 l 20.640921961138172 -17.437856540730248" fill="#ffc412" stroke="none" /><path d="M 83.72743513129214 113.27417163493432 l -21.739724849471436 17.733949213074823 a49.0554556409737,49.0554556409737 0 0,0 -0.5281218969719754,-0.6589132689264303 l 22.04176465849827 -17.35710811057013" fill="#ffd513" stroke="none" /><path d="M 83.28015986056508 112.70617746262583 l -21.509676595082883 16.346195041434733 a48.016000435995,48.016000435995 0 0,0 -0.4944247196498953,-0.6623627097039674 l 21.787862581427863 -15.973519452221462" fill="#ffc412" stroke="none" /><path d="M 82.24976979558568 111.22182372390057 l -20.452508235906162 12.930223410729926 a45.1970198700418,45.1970198700418 0 0,0 -0.4100776412796653,-0.6611757293063758 l 20.672050516853783 -12.576251350058286" fill="#ff930d" stroke="none" /><path d="M 82.05923443525364 110.91462005526583 l -26.90224703985471 16.36651479633027 a52.48958085417888,52.48958085417888 0 0,0 -0.46295591432275557,-0.7759407415793792 l 27.1799838298757 -15.901011960864782" fill="#f1ff19" stroke="none" /><line stroke="#e1ed5e" stroke-width="0.3" x1="26.63291911575756" x2="22.317208475507996" y1="142.92168965132927" y2="145.44649492493687" /><path d="M 25.769776987707644 143.4266507060508 a86.0,86.0 0 0,1 -11.730757126820373,-40.83630448921669" fill="none" id="id33" stroke="none" /><text fill="#e1ed5e" style="font-size:6.75px; font-family:Arial;" text-anchor="middle"><textPath startOffset="21.46611528233685" xlink:href="#id33">September</textPath></text><path d="M 81.87401531095188 110.60418214915194 l -29.85892419469319 17.468263179630547 a55.59328797002781,55.59328797002781 0 0,0 -0.4761115175588425,-0.8301405624230881 l 30.15518770840441 -16.95170277134915" fill="#c1ff1e" stroke="none" /><path d="M 81.51974371655577 109.97397251340807 l -31.20979856274503 16.844229227096307 a56.46518834832387,56.46518834832387 0 0,0 -0.4542691401932717,-0.859306017450387 l 31.495120211163186 -16.304508194559794" fill="#b3ff20" stroke="none" /><path d="M 81.18737489456691 109.33194174019688 l -28.412249726740946 14.093804435687098 a52.715788781080064,52.715788781080064 0 0,0 -0.3962388373371344,-0.8163693669813638 l 28.650641820692798 -13.60264611274045" fill="#edff1a" stroke="none" /><path d="M 80.87730276802145 108.67885076344099 l -30.41328994832958 13.803094902606606 a54.39900648779136,54.39900648779136 0 0,0 -0.3796504467879414,-0.856011532715966 l 30.646381479848802 -13.277535033397944" fill="#d3ff1c" stroke="none" /><path d="M 80.73074385275274 108.34839909993369 l -29.370435702092337 12.724731930819022 a53.00845663323906,53.00845663323906 0 0,0 -0.35553281453818514,-0.8403745508726649 l 29.585119497822827 -12.217282854280198" fill="#e9ff1a" stroke="none" /><path d="M 80.45479744820244 107.68017299344265 l -29.4403759935101 11.568423505611543 a52.63169551327326,52.63169551327326 0 0,0 -0.3240752049789882,-0.8460580972806703 l 29.6351454780826 -11.059941841497714" fill="#efff19" stroke="none" /><path d="M 79.97269907076064 106.31721596034903 l -30.598341326144585 9.651641570108934 a53.0844616116447,53.0844616116447 0 0,0 -0.26737689687800403,-0.8738031693210392 l 30.75994499552872 -9.123511428235846" fill="#e7ff1a" stroke="none" /><path d="M 79.86692584326677 105.97154293290107 l -30.446448583523978 9.030527253587552 a52.75746611156118,52.75746611156118 0 0,0 -0.250742075103126,-0.872866057703883 l 30.597383295513207 -8.505103720379072" fill="#edff1a" stroke="none" /><path d="M 79.76711848015287 105.62410040840567 l -38.96081880739253 10.8298739727969 a61.437996641885405,61.437996641885405 0 0,0 -0.27445793574680893,-1.021360079772047 l 39.141464819481115 -10.157622959849315" fill="#6cff28" stroke="none" /><path d="M 79.58551787078972 104.9243191809786 l -33.57433100383965 8.09869783148537 a55.537293016695656,55.537293016695656 0 0,0 -0.21617080480636353,-0.9312581693902234 l 33.70876237457657 -7.519571004746572" fill="#c1ff1e" stroke="none" /><path d="M 79.29508885075956 103.50808413554451 l -39.793705464819375 6.742345612083679 a61.36085007743989,61.36085007743989 0 0,0 -0.1674807751113672,-1.0429029464913846 l 39.903867994292035 -6.056363435899081" fill="#6dff28" stroke="none" /><path d="M 79.18660465613746 102.79330883721812 l -39.52622894723046 5.304707031030525 a60.88060545520772,60.88060545520772 0 0,0 -0.13045406483916439,-1.0398472516674355 l 39.61168452131647 -4.623542025075682" fill="#74ff27" stroke="none" /><path d="M 79.10278846688536 102.07522291339032 l -39.70655472741895 3.94310753143077 a60.90186192805972,60.90186192805972 0 0,0 -0.09461656347051255,-1.0440858936260478 l 39.76854588716653 -3.259040249256156" fill="#73ff27" stroke="none" /><line stroke="#e1ed5e" stroke-width="0.3" x1="15.007084014347285" x2="10.007500721073583" y1="101.09737516637583" y2="101.16192664675087" /><path d="M 14.007167355692545 101.11028546245083 a86.0,86.0 0 0,1 10.666146001902534,-42.60595125391555" fill="none" id="id34" stroke="none" /><text fill="#e1ed5e" style="font-size:6.75px; font-family:Arial;" text-anchor="middle"><textPath startOffset="22.20632615414155" xlink:href="#id34">October</textPath></text><path d="M 79.08570108090925 98.10471618934814 l -40.331293837231385 -3.654879781916721 a61.496560456480275,61.496560456480275 0 0,0 0.10461113810295575,-1.0534198844623945 l 40.2624055734462 4.348575197083546" fill="#6bff28" stroke="none" /><path d="M 79.16333360222342 97.38593545837743 l -40.92588083552883 -5.1343574775589875 a62.2466889443416,62.2466889443416 0 0,0 0.14252713570697353,-1.0619927102840068 l 40.83143770076402 5.838068529907654" fill="#61ff29" stroke="none" /><path d="M 79.3925641242962 95.95851677861259 l -61.8223076271114 -12.124449664162231 a84.0,84.0 0 0,0 0.2904828163400217,-1.41649737534639 l 61.60444551485639 13.186822695672024" fill="#4dd2ff" stroke="none" /><path d="M 79.71946130924805 94.55025226153421 l -53.73417086495273 -14.439344073397127 a76.64041495005122,76.64041495005122 0 0,0 0.3533240988785059,-1.271094772780225 l 53.477659995507864 15.362150149596296" fill="#41ffce" stroke="none" /><path d="M 79.91906864156998 93.8553929516997 l -46.70150213198259 -14.290292319829305 a69.8389471218386,69.8389471218386 0 0,0 0.3616477389953491,-1.1465221617718238 l 46.448598909219044 15.092064648027543" fill="#36ff6c" stroke="none" /><path d="M 80.38941819471856 92.48833698450439 l -52.68461163530614 -20.18038284820789 a77.4173391349085,77.4173391349085 0 0,0 0.4873843611729278,-1.2403400376315297 l 52.32943372425152 21.084271890735184" fill="#42ffd8" stroke="none" /><path d="M 80.65960295795068 91.81776055985345 l -48.377816425722884 -20.466946812213713 a73.52912557748252,73.52912557748252 0 0,0 0.5031818306013524,-1.1614130405643006 l 48.018343885278846 21.296658997364613" fill="#3cffa2" stroke="none" /><path d="M 81.26839172434947 90.50648371742162 l -46.06702501235697 -23.34759757992901 a72.64572689239091,72.64572689239091 0 0,0 0.5749064062258092,-1.1105361877944473 l 45.658309172971045 24.13710648998379" fill="#3aff95" stroke="none" /><line stroke="#e1ed5e" stroke-width="0.3" x1="26.266209847984257" x2="21.92892807433627" y1="57.711370442889674" y2="55.22380399835377" /><path d="M 25.39875349325466 57.213857153982495 a86.0,86.0 0 0,1 29.58750427330802,-30.492523968695096" fill="none" id="id35" stroke="none" /><text fill="#e1ed5e" style="font-size:6.75px; font-family:Arial;" text-anchor="middle"><textPath startOffset="21.46611528233685" xlink:href="#id35">November</textPath></text><path d="M 82.15384107792192 88.93136811851018 l -44.65699176696877 -27.697377624032807 a73.54894519325188,73.54894519325188 0 0,0 0.6765536445978293,-1.0701453910445884 l 44.17361052612498 28.46197066279161" fill="#3cffa3" stroke="none" /><path d="M 82.54541684631803 88.32363383020206 l -47.39390443970362 -31.70448572629801 a78.02066812313578,78.02066812313578 0 0,0 0.7563380572404401,-1.109832771785999 l 46.841141916794435 32.515596521354425" fill="#43ffe0" stroke="none" /><path d="M 82.95767976084542 87.72973835380427 l -41.61854676008709 -29.96484345526142 a72.28347957890415,72.28347957890415 0 0,0 0.735699146839013,-1.0034928094930808 l 41.09658500073445 30.676798708426" fill="#3aff90" stroke="none" /><path d="M 83.39014120810768 87.1503855733568 l -38.87645747974794 -30.075360371660214 a70.15186921837133,70.15186921837133 0 0,0 0.7471037756854361,-0.9487459255442154 l 38.352999623468534 30.740098691157474" fill="#36ff70" stroke="none" /><path d="M 83.84228863543731 86.58626213691792 l -44.23547466926936 -36.72321209821575 a78.49236058839566,78.49236058839566 0 0,0 0.8719730784578216,-1.0321410904271315 l 43.59679097732441 37.47921213827199" fill="#44ffe7" stroke="none" /><path d="M 84.80347519578584 85.50635884689758 l -36.151236918088145 -34.47913663696696 a70.95720962922546,70.95720962922546 0 0,0 0.850593591027869,-0.8766114648417438 l 35.55237906335716 35.09631229735883" fill="#38ff7d" stroke="none" /><path d="M 86.10567301691215 84.25364557470407 l -33.16204371564305 -37.582338061373655 a71.12138543134652,71.12138543134652 0 0,0 0.9249376861968454,-0.8020968469825899 l 32.51021223079943 38.147599901775926" fill="#38ff7f" stroke="none" /><path d="M 87.51073957382395 83.11751280151077 l -31.903550282765558 -43.125954688740435 a74.64405361696899,74.64405361696899 0 0,0 1.0395239565058023,-0.7552583632818687 l 31.15648100990597 43.668732286838974" fill="#3effb2" stroke="none" /><path d="M 88.09926311788651 82.69761687909137 l -32.44640657660074 -47.17356270004472 a78.2548191644086,78.2548191644086 0 0,0 1.1164179267486658,-0.7538103677229506 l 31.629583955445533 47.725084980066335" fill="#44ffe4" stroke="none" /><line stroke="#e1ed5e" stroke-width="0.3" x1="56.762969772571076" x2="54.21961505331055" y1="26.818313649435495" y2="22.513508569990535" /><path d="M 56.25429882871897 25.957352633546506 a86.0,86.0 0 0,1 42.265352541879196,-11.944610805530505" fill="none" id="id36" stroke="none" /><text fill="#e1ed5e" style="font-size:6.75px; font-family:Arial;" text-anchor="middle"><textPath startOffset="22.20632615414155" xlink:href="#id36">December</textPath></text></svg>